<svg width="258" height="156" viewBox="0 0 258 156" fill="none" xmlns="http://www.w3.org/2000/svg">
<path fill-rule="evenodd" clip-rule="evenodd" d="M129.476 0.196655C151.87 0.196655 170.754 14.1451 176.604 33.1958L176.669 33.1963C176.684 33.2329 176.699 33.2696 176.714 33.3063C177.439 35.0569 178.197 37.549 178.987 40.7827C177.483 39.8747 175.948 39.5391 174.383 39.776C170.052 40.4312 164.889 44.6393 162.576 44.5778C158.479 44.4689 154.602 42.3051 151.279 42.3051C151.112 42.3051 150.134 42.6155 149.983 42.6326C149.043 42.7391 147.471 43.6497 145.91 44.6369L145.327 45.0093C143.585 46.1287 141.958 47.2302 141.362 47.278C139.652 47.4152 138.574 46.6779 137.118 46.23C136.758 46.1191 136.393 46.0052 136.027 45.8914L135.295 45.6651C133.101 44.9926 130.941 44.4026 129.476 44.5778C125.165 45.0933 119.979 50.2907 117.84 50.4624C117.143 50.5183 116.773 50.5408 116.596 50.544L116.518 50.5439C116.396 50.5403 116.475 50.5169 116.58 50.4922L116.644 50.4775C116.828 50.4362 116.988 50.4016 116.288 50.4624C116.15 50.3794 114.507 49.7211 112.851 49.0664L112.3 48.8491C110.842 48.2742 109.504 47.7528 109.334 47.6917C108.438 47.3695 107.256 47.3031 106.604 47.278C106.481 47.2733 106.381 47.2686 106.297 47.2643L106.088 47.2532C105.858 47.241 105.783 47.2414 105.435 47.278C104.226 47.4053 103.04 48.19 102.026 49.1639C100.865 50.2772 97.8978 52.6998 95.7508 52.9233C91.8165 53.3329 87.9156 49.3012 85.1223 49.5397C81.7277 49.8296 80.9371 50.6634 79.7835 51.1967C79.4208 51.3643 79.1656 51.5018 79.0178 51.6091L79.0127 51.6124L79.0553 51.254C80.0906 42.686 81.1781 36.6664 82.3178 33.1954L82.3487 33.1947L82.528 32.6268C88.5759 13.868 107.307 0.196655 129.476 0.196655Z" fill="#A4C754"/>
<path fill-rule="evenodd" clip-rule="evenodd" d="M128.436 101.803C106.042 101.803 87.1576 87.8549 81.3081 68.8042L81.2433 68.8037C81.2281 68.7671 81.2129 68.7304 81.1977 68.6937C80.4728 66.9431 79.5951 64.1181 78.5645 60.2184C80.7617 58.9811 82.6432 58.244 84.2089 58.0071C88.5392 57.352 92.0237 60.7166 94.3367 60.7781C98.4332 60.887 103.704 55.3231 107.027 55.3231C110.35 55.3231 112.288 56.6384 112.42 56.6807C114.731 57.4222 116.56 58.1029 117.753 58.0071C118.199 57.9713 119.514 57.7958 120.271 57.4222C122.413 56.3643 123.751 55.9202 125.756 54.722C127.76 53.5237 130.01 52.8033 130.977 52.8033C131.944 52.8033 132.688 52.9666 133.633 53.5237C135.717 54.7528 138.957 56.0978 140.072 55.9883C141.171 55.8803 144.037 53.8754 144.627 53.5237C147.598 51.7521 149.663 50.2775 151.308 50.1344C151.438 50.2119 154.138 50.4065 156.558 51.0474C159.319 51.7786 161.891 52.9554 162.976 52.8361C166.392 52.4603 171.698 49.0278 173.273 48.2115C174.573 47.5377 176.628 48.1786 179.436 50.1344C178.564 58.7606 177.283 64.947 175.592 68.6937L175.544 68.8033L175.563 68.8032C169.714 87.8544 150.829 101.803 128.436 101.803Z" fill="#89CDE9"/>
<path d="M116.899 27.0316C116.847 27.5313 116.766 28.1507 116.657 28.89C116.547 29.6292 116.41 30.5068 116.246 31.5227C116.079 32.5139 115.942 33.3792 115.832 34.1184C115.723 34.8577 115.642 35.4771 115.59 35.9768C115.554 36.1777 115.523 36.3534 115.497 36.5041C115.469 36.6424 115.434 36.7565 115.39 36.8463C115.267 37.2022 115.001 37.5741 114.594 37.9622C114.185 38.3132 113.801 38.5013 113.443 38.5263C112.974 38.5591 112.772 38.3314 112.838 37.8432C112.905 37.2061 113 36.4369 113.123 35.5355C113.246 34.6341 113.4 33.5631 113.586 32.3225C113.948 29.8792 114.192 28.0393 114.316 26.803C114.965 20.6569 114.34 17.6502 112.439 17.7831C110.687 17.9056 109.236 19.9415 108.086 23.8907C107.352 26.3352 106.815 29.0387 106.477 32.0012C106.459 32.1017 106.445 32.2576 106.435 32.4691C106.437 32.6674 106.427 32.8789 106.405 33.1036C106.396 33.3275 106.387 33.5451 106.377 33.7566C106.366 33.9558 106.358 34.1052 106.352 34.2047C106.284 34.6559 106.037 35.101 105.609 35.5401C105.167 35.9678 104.731 36.1967 104.299 36.2269C103.78 36.2632 103.593 35.5323 103.736 34.0343L103.916 32.3477C104.025 31.5961 104.097 31.0331 104.133 30.6586C105.03 22.2134 104.572 18.0542 102.758 18.1811C102.425 18.2044 101.933 18.617 101.282 19.4189C98.8581 22.5272 97.2382 27.9105 96.4221 35.5687C96.4095 35.7432 96.3942 35.9675 96.3761 36.2415C96.3573 36.5033 96.3352 36.8086 96.31 37.1576C96.2605 37.8678 96.2227 38.3913 96.1966 38.7279C96.1777 38.9896 96.0403 39.241 95.7844 39.4821C95.5433 39.7594 95.3056 39.9062 95.0712 39.9226C94.775 39.9433 94.5862 39.8139 94.5046 39.5344C94.3217 38.6916 94.3291 37.2899 94.5268 35.3293C95.344 27.5097 97.1397 21.8909 99.9138 18.473C101.329 16.7248 102.685 15.8054 103.98 15.7148C105.609 15.6009 106.563 17.543 106.843 21.541C107.914 19.2962 109.22 17.5866 110.762 16.4124C111.918 15.5627 112.946 15.1064 113.847 15.0434C116.747 14.8407 117.764 18.8367 116.899 27.0316ZM121.254 24.9415C121.189 25.4297 120.981 25.9092 120.629 26.3802C120.265 26.852 119.837 27.1052 119.343 27.1397C118.504 27.1984 118.121 26.8656 118.194 26.1412C118.252 25.7157 118.517 25.2631 118.992 24.7835C119.454 24.2924 119.901 24.0317 120.333 24.0015C121.011 23.9541 121.318 24.2674 121.254 24.9415ZM119.658 29.7775C119.654 29.7282 119.398 30.7629 118.889 32.8817C118.739 33.7478 118.495 35.0482 118.157 36.783C118.105 37.0967 117.879 37.4163 117.48 37.7418C117.068 38.0558 116.714 38.2231 116.418 38.2439C116.06 38.2689 115.92 37.7765 115.999 36.7666C116.084 36.0414 116.352 34.8199 116.803 33.102C117.296 31.2943 117.686 30.1324 117.972 29.6164C118.292 29.0484 118.681 28.7485 119.137 28.7165C119.569 28.6863 119.743 29.04 119.658 29.7775ZM126.264 31.4174C126.192 32.1664 126.047 32.9329 125.829 33.717C125.611 34.501 125.322 35.3211 124.96 36.1772C124.518 37.1257 123.914 37.6267 123.149 37.6802C122.693 37.7121 122.485 37.491 122.526 37.0169C122.573 36.6292 122.688 36.1438 122.871 35.5606C123.192 34.6578 123.35 34.1693 123.345 34.0953C123.422 33.7799 123.497 33.4337 123.57 33.0566C123.643 32.6795 123.707 32.2658 123.762 31.8155C123.806 31.2048 123.76 30.9042 123.625 30.9137C123.045 30.9543 122.343 31.8279 121.52 33.5347C120.831 35.0337 120.446 36.1704 120.364 36.945C120.344 37.1944 120.194 37.4405 119.913 37.6833C119.635 37.9631 119.379 38.1112 119.144 38.1276C118.971 38.1397 118.827 37.939 118.712 37.5255C118.585 37.1375 118.535 36.8559 118.559 36.6805C118.633 35.609 119.108 34.3296 119.984 32.8423C120.863 31.4045 121.77 30.2808 122.705 29.4714C123.584 28.7404 124.307 28.355 124.875 28.3153C125.406 28.2782 125.804 28.6595 126.071 29.4593C126.267 30.1276 126.331 30.7803 126.264 31.4174ZM132.555 30.8287C132.57 30.6912 132.51 30.5466 132.376 30.3948C132.253 30.2298 132.129 30.1516 132.006 30.1603C131.549 30.1922 130.997 30.6214 130.348 31.448C129.79 32.169 129.425 32.7959 129.251 33.3289C131.416 32.0119 132.517 31.1785 132.555 30.8287ZM135.48 34.3627C135.396 35.1126 134.533 35.8053 132.891 36.4409C131.622 36.9017 130.487 37.1671 129.488 37.237C127.427 37.3811 126.491 36.5847 126.679 34.8479C126.802 33.587 127.597 32.0992 129.064 30.3846C130.52 28.6832 131.877 27.7885 133.136 27.7004C133.679 27.6625 134.138 27.8412 134.513 28.2366C134.901 28.6434 135.059 29.1284 134.986 29.6914C134.843 31.1895 133.185 32.843 130.014 34.652C130.24 34.6981 130.495 34.7113 130.779 34.6915C131.31 34.6544 132.029 34.4862 132.938 34.187C133.97 33.8669 134.609 33.6982 134.856 33.681C135.325 33.6482 135.533 33.8754 135.48 34.3627ZM135.661 22.3159C135.654 22.3908 135.607 22.5181 135.52 22.6977C135.384 23.0544 134.821 23.689 133.831 24.6015C132.199 26.092 131.21 26.8493 130.865 26.8735C130.359 26.9088 130.144 26.6697 130.219 26.156C130.24 25.7453 131.082 24.7441 132.743 23.1523C133.789 22.1492 134.522 21.6329 134.942 21.6036C135.484 21.5656 135.724 21.803 135.661 22.3159ZM145.353 29.9337C145.316 30.2959 145.083 30.6842 144.653 31.0987C144.235 31.4999 143.847 31.7131 143.489 31.7381C143.23 31.7562 142.891 31.4327 142.473 30.7676C142.053 30.0901 141.572 29.7703 141.029 29.8083C140.067 29.8756 139.361 30.5078 138.911 31.7048C138.775 32.2475 138.64 32.7902 138.504 33.3329C138.368 33.8632 138.232 34.4121 138.098 34.9794C137.72 36.1343 137.093 36.7423 136.217 36.8036C135.785 36.8338 135.597 36.6176 135.651 36.155C135.69 35.8298 135.804 35.1523 135.993 34.1223C136.193 33.0915 136.491 31.6756 136.886 29.8748C137.201 28.3524 137.673 27.5692 138.303 27.5251C138.549 27.5079 138.736 27.9598 138.862 28.881C140.1 27.7777 141.311 27.1846 142.495 27.1018C143.322 27.044 144.028 27.2922 144.612 27.8466C145.196 28.4009 145.443 29.0966 145.353 29.9337ZM151.473 32.4818C151.199 32.6497 150.958 32.741 150.748 32.7557C150.637 32.7635 150.357 32.659 149.908 32.4424C149.458 32.2135 149.06 32.1111 148.714 32.1353C148.332 32.162 148.13 32.2939 148.11 32.531C148.045 33.2051 148.531 33.5059 149.568 33.4334C150.518 33.367 151.153 33.0498 151.473 32.4818ZM154.339 30.3842C154.181 31.846 153.483 33.1224 152.245 34.2134C151.006 35.292 149.64 35.8836 148.147 35.988C147.752 36.0156 147.384 35.9855 147.043 35.8978C146.703 35.8223 146.409 35.6941 146.161 35.5131C145.911 35.3197 145.727 35.0784 145.608 34.7891C145.488 34.4999 145.452 34.1552 145.498 33.7552C145.611 32.7057 146.146 31.7569 147.103 30.9087C148.061 30.0606 149.064 29.5998 150.113 29.5265C150.249 29.517 150.391 29.5194 150.541 29.5337C150.703 29.5349 150.87 29.5417 151.045 29.5543C150.585 29.1897 150.072 29.0272 149.504 29.0669C149.196 29.0884 148.804 29.246 148.328 29.5397C147.815 29.8236 147.478 29.9711 147.318 29.9824C146.861 30.0143 146.665 29.7862 146.73 29.298C146.779 28.749 147.344 28.1453 148.427 27.4868C149.438 26.8829 150.246 26.5598 150.851 26.5175C151.925 26.4424 152.798 26.7905 153.472 27.5618C154.159 28.3322 154.448 29.273 154.339 30.3842ZM159.612 14.7076C159.319 17.4313 158.665 22.1643 157.648 28.9066C157.584 29.4071 157.513 29.908 157.437 30.4094C157.359 30.8984 157.289 31.3931 157.224 31.8936C157.031 33.3827 156.841 34.3074 156.656 34.6676C156.361 35.2461 155.98 35.5518 155.511 35.5846C155.067 35.6157 154.901 35.0258 155.015 33.8151C155.185 32.34 155.435 30.3323 155.766 27.792C155.971 26.2897 156.144 25.0438 156.286 24.0543C156.426 23.0524 156.528 22.2827 156.589 21.7452C156.738 20.5072 156.89 19.2132 157.043 17.8633C157.196 16.501 157.36 15.0325 157.535 13.4579C157.552 13.1715 157.764 12.8343 158.171 12.4462C158.566 12.0714 158.918 11.8732 159.227 11.8516C159.375 11.8412 159.489 11.8828 159.57 11.9764C159.65 12.0576 159.698 12.2092 159.714 12.4313C159.742 12.6526 159.744 12.95 159.72 13.3237C159.696 13.685 159.66 14.1463 159.612 14.7076Z" fill="white"/>
<path d="M98.4356 89.5691L98.4151 89.3356L98.4356 89.5691ZM117.393 73.4218C117.198 75.6739 116.247 77.5739 114.539 79.1219C112.857 80.6546 110.874 81.5208 108.591 81.7205C106.178 81.9316 104.379 81.5335 103.193 80.5263C103.024 80.3843 102.954 80.1878 102.984 79.9368C103.002 79.5431 103.24 79.1171 103.696 78.6589C104.153 78.2007 104.582 77.954 104.984 77.9189C105.01 77.9166 105.136 77.9382 105.362 77.9838C107.228 78.6963 108.778 78.9986 110.01 78.8908C112.799 78.6468 114.302 77.2997 114.519 74.8496C114.681 72.9664 114.175 71.2919 113.001 69.8261C111.757 68.3141 110.215 67.6387 108.373 67.7998C104.482 68.1403 102.102 73.2891 101.235 83.2464C101.149 84.208 101.07 85.0188 100.997 85.6787C100.924 86.3386 100.851 86.8547 100.779 87.227C100.375 89.3275 99.7642 90.4135 98.947 90.485C98.6098 90.5145 98.4393 90.2092 98.4356 89.5691L98.6552 87.3736C98.6703 87.0978 98.6921 86.7495 98.7206 86.3288C98.7492 85.908 98.7845 85.4148 98.8265 84.8491C98.8792 84.2563 98.9204 83.756 98.95 83.3482C98.9786 82.9275 99.0069 82.5786 99.0349 82.3017C99.2519 79.8516 99.5481 77.8586 99.9234 76.3226C100.629 73.4769 101.724 71.061 103.211 69.0749C105.046 66.6009 107.19 65.2566 109.641 65.0421C111.911 64.8435 113.821 65.6109 115.372 67.3444C116.923 69.0908 117.597 71.1166 117.393 73.4218ZM121.172 74.9341C121.113 75.4491 120.902 75.9576 120.541 76.4598C120.167 76.963 119.72 77.2374 119.202 77.2828C118.32 77.3599 117.91 77.0167 117.974 76.253C118.027 75.804 118.298 75.3228 118.789 74.8093C119.266 74.284 119.731 74.0015 120.185 73.9617C120.899 73.8993 121.228 74.2234 121.172 74.9341ZM119.581 80.0532C119.577 80.0013 119.326 81.095 118.829 83.3344C118.687 84.2487 118.454 85.6218 118.131 87.4539C118.081 87.785 117.85 88.1254 117.436 88.4753C117.008 88.8134 116.638 88.996 116.327 89.0233C115.951 89.0562 115.795 88.5405 115.859 87.4762C115.935 86.7114 116.195 85.4208 116.637 83.6045C117.124 81.6929 117.513 80.4629 117.805 79.9145C118.131 79.3109 118.534 78.9881 119.014 78.9461C119.468 78.9064 119.657 79.2754 119.581 80.0532ZM128.678 79.375C128.662 79.6378 128.495 79.9007 128.178 80.1637C127.861 80.4267 127.573 80.5695 127.314 80.5922C127.184 80.6036 127.028 80.6172 126.847 80.6331C126.677 80.6349 126.468 80.6401 126.221 80.6487C125.75 80.6506 125.392 80.6623 125.146 80.6839C124.458 80.7441 123.827 80.9299 123.253 81.2416C123.612 81.4585 123.978 81.6749 124.349 81.8907C124.72 82.0936 125.097 82.2958 125.481 82.4975C126.235 83.0459 126.573 83.7809 126.497 84.7025C126.4 85.8351 125.75 86.7677 124.546 87.5004C123.526 88.0864 122.412 88.4321 121.206 88.5376C120.972 88.5581 120.504 88.5076 119.8 88.3861C119.112 88.2895 118.773 88.1492 118.783 87.9653C118.793 87.6247 118.983 87.2552 119.353 86.8568C119.723 86.4584 120.08 86.1985 120.422 86.0771C120.691 86.0143 121.013 85.9665 121.39 85.9336L122.518 85.8349C122.648 85.8235 122.839 85.846 123.093 85.9022C123.346 85.9585 123.537 85.981 123.667 85.9696C123.758 85.9617 123.815 85.9436 123.839 85.9154C123.877 85.3107 123.275 84.7034 122.032 84.0932C120.776 83.4712 120.177 82.9028 120.236 82.3878C120.317 81.5181 121.133 80.6102 122.684 79.6641C124.103 78.8472 125.279 78.398 126.213 78.3163C126.524 78.289 127.009 78.3773 127.667 78.5811C128.355 78.8216 128.692 79.0862 128.678 79.375ZM136.052 80.2983C136.014 80.6153 135.863 80.9749 135.597 81.3772C135.33 81.7535 135.053 81.9542 134.768 81.9791C134.508 82.0018 134.187 81.6901 133.804 81.044C133.42 80.3978 132.898 80.1037 132.236 80.1616C130.887 80.2796 130.163 80.9573 130.062 82.1948C129.979 82.8948 130.153 83.5331 130.582 84.1098C131.012 84.6866 131.551 84.9466 132.199 84.8898C132.601 84.8547 133.046 84.6328 133.533 84.2242C134.032 83.8015 134.411 83.5788 134.67 83.5561C135.215 83.5084 135.459 83.7551 135.402 84.296C135.384 84.5458 135.222 84.8541 134.914 85.2209C133.649 86.7432 132.283 87.5685 130.817 87.6967C129.702 87.7943 128.807 87.4217 128.132 86.5789C127.52 85.7174 127.271 84.7328 127.383 83.6251C127.516 82.3064 128.136 81.0235 129.242 79.7765C130.362 78.5284 131.576 77.847 132.887 77.7324C133.795 77.6529 134.548 77.8288 135.148 78.2599C135.808 78.7773 136.109 79.4568 136.052 80.2983ZM140.746 73.2216C140.687 73.7366 140.476 74.2451 140.115 74.7473C139.741 75.2506 139.294 75.5249 138.775 75.5703C137.893 75.6475 137.484 75.3042 137.548 74.5405C137.6 74.0916 137.872 73.6103 138.363 73.0968C138.84 72.5715 139.305 72.289 139.759 72.2493C140.472 72.1868 140.801 72.511 140.746 73.2216ZM139.155 78.3407C139.15 78.2888 138.9 79.3826 138.403 81.6219C138.261 82.5362 138.028 83.9094 137.705 85.7414C137.655 86.0725 137.423 86.413 137.01 86.7629C136.582 87.1009 136.212 87.2836 135.901 87.3108C135.525 87.3437 135.368 86.828 135.432 85.7637C135.509 84.9989 135.769 83.7084 136.211 81.8921C136.697 79.9804 137.086 78.7504 137.378 78.2021C137.704 77.5984 138.108 77.2756 138.587 77.2336C139.041 77.1939 139.231 77.5629 139.155 78.3407ZM146.138 79.9453C146.076 80.7349 145.938 81.5443 145.723 82.3735C145.508 83.2027 145.218 84.0711 144.853 84.9788C144.405 85.9852 143.779 86.5235 142.975 86.5939C142.495 86.6359 142.272 86.407 142.307 85.9073C142.349 85.4984 142.461 84.9854 142.643 84.3683C142.964 83.4121 143.122 82.8951 143.115 82.8173C143.19 82.484 143.263 82.1182 143.332 81.72C143.402 81.3217 143.462 80.8852 143.512 80.4103C143.547 79.7667 143.493 79.4512 143.351 79.4637C142.741 79.517 142.019 80.4494 141.184 82.2608C140.487 83.8511 140.102 85.0546 140.029 85.8713C140.013 86.1341 139.86 86.3959 139.569 86.6566C139.281 86.9562 139.014 87.1168 138.768 87.1384C138.586 87.1543 138.431 86.9457 138.301 86.5126C138.161 86.1066 138.103 85.8111 138.126 85.6261C138.184 84.497 138.66 83.1417 139.554 81.5604C140.453 80.0309 141.387 78.8316 142.357 77.9626C143.268 77.177 144.022 76.7581 144.619 76.7059C145.177 76.6571 145.603 77.0511 145.899 77.8879C146.117 78.5877 146.197 79.2735 146.138 79.9453ZM151.553 79.3147C151.566 79.1697 151.501 79.0186 151.356 78.8613C151.223 78.6899 151.092 78.6099 150.963 78.6213C150.483 78.6633 149.909 79.1252 149.241 80.0071C148.668 80.7761 148.295 81.4427 148.122 82.0068C150.376 80.5809 151.519 79.6836 151.553 79.3147ZM154.697 82.9804C154.622 83.7712 153.726 84.5161 152.01 85.2152C150.682 85.7235 149.493 86.0236 148.442 86.1156C146.276 86.3051 145.276 85.4842 145.443 83.6528C145.548 82.3234 146.358 80.7429 147.871 78.9114C149.372 77.094 150.784 76.1274 152.107 76.0116C152.677 75.9617 153.164 76.1414 153.565 76.5506C153.981 76.9717 154.156 77.4792 154.091 78.0731C153.967 79.6524 152.253 81.4231 148.948 83.3853C149.187 83.4297 149.456 83.4389 149.754 83.4128C150.312 83.364 151.067 83.1738 152.018 82.8422C153.098 82.4863 153.768 82.297 154.027 82.2743C154.52 82.2312 154.743 82.4666 154.697 82.9804Z" fill="white"/>
<path d="M39.625 126.029C39.4792 126.862 39.2708 127.894 39 129.123C38.7292 130.352 38.3958 131.81 38 133.498C37.6042 135.144 37.2708 136.581 37 137.81C36.7292 139.039 36.5208 140.071 36.375 140.904C36.2917 141.237 36.2188 141.529 36.1562 141.779C36.0938 142.008 36.0208 142.196 35.9375 142.342C35.6875 142.925 35.1979 143.519 34.4688 144.123C33.7396 144.664 33.0729 144.935 32.4688 144.935C31.6771 144.935 31.3646 144.529 31.5312 143.717C31.7188 142.654 31.9688 141.373 32.2812 139.873C32.5938 138.373 32.9792 136.592 33.4375 134.529C34.3333 130.467 34.9583 127.404 35.3125 125.342C37.125 115.092 36.4271 109.967 33.2188 109.967C30.2604 109.967 27.5833 113.217 25.1875 119.717C23.6667 123.737 22.4479 128.217 21.5312 133.154C21.4896 133.321 21.4479 133.581 21.4062 133.935C21.3854 134.269 21.3438 134.623 21.2812 134.998C21.2396 135.373 21.1979 135.737 21.1562 136.092C21.1146 136.425 21.0833 136.675 21.0625 136.842C20.8958 137.592 20.4271 138.31 19.6562 138.998C18.8646 139.664 18.1042 139.998 17.375 139.998C16.5 139.998 16.2708 138.748 16.6875 136.248L17.1875 133.435C17.4583 132.185 17.6458 131.248 17.75 130.623C20.25 116.539 19.9688 109.498 16.9062 109.498C16.3438 109.498 15.4688 110.133 14.2812 111.404C9.84375 116.342 6.48958 125.196 4.21875 137.967C4.17708 138.258 4.125 138.633 4.0625 139.092C4 139.529 3.92708 140.039 3.84375 140.623C3.67708 141.81 3.55208 142.685 3.46875 143.248C3.40625 143.685 3.14583 144.092 2.6875 144.467C2.25 144.904 1.83333 145.123 1.4375 145.123C0.9375 145.123 0.635417 144.883 0.53125 144.404C0.322917 142.967 0.5 140.612 1.0625 137.342C3.35417 124.3 7.03125 115.071 12.0938 109.654C14.6771 106.883 17.0625 105.498 19.25 105.498C22 105.498 23.375 108.873 23.375 115.623C25.4375 111.977 27.8333 109.258 30.5625 107.467C32.6042 106.175 34.3854 105.529 35.9062 105.529C40.8021 105.529 42.0417 112.362 39.625 126.029ZM49.1075 123.029C48.9408 123.842 48.5346 124.623 47.8887 125.373C47.2221 126.123 46.4721 126.498 45.6387 126.498C44.2221 126.498 43.6179 125.894 43.8262 124.685C43.9721 123.977 44.4721 123.248 45.3262 122.498C46.1596 121.727 46.9408 121.342 47.67 121.342C48.8158 121.342 49.295 121.904 49.1075 123.029ZM45.8575 130.967C45.8575 130.883 45.3054 132.592 44.2012 136.092C43.8471 137.529 43.2846 139.685 42.5137 142.56C42.3887 143.081 41.9721 143.592 41.2637 144.092C40.5346 144.571 39.92 144.81 39.42 144.81C38.8158 144.81 38.6387 143.967 38.8887 142.279C39.1179 141.071 39.7117 139.05 40.67 136.217C41.7117 133.237 42.5033 131.331 43.045 130.498C43.6492 129.581 44.3367 129.123 45.1075 129.123C45.8367 129.123 46.0867 129.737 45.8575 130.967ZM58.6838 134.498C58.4754 135.748 58.1421 137.019 57.6838 138.31C57.2254 139.602 56.6421 140.946 55.9338 142.342C55.0796 143.883 54.0067 144.654 52.715 144.654C51.9442 144.654 51.6213 144.258 51.7463 143.467C51.8713 142.821 52.1213 142.019 52.4963 141.06C53.1421 139.581 53.465 138.779 53.465 138.654C53.6317 138.133 53.7983 137.56 53.965 136.935C54.1317 136.31 54.2879 135.623 54.4338 134.873C54.5796 133.852 54.5379 133.342 54.3088 133.342C53.3296 133.342 52.0483 134.727 50.465 137.498C49.1317 139.935 48.3504 141.8 48.1213 143.092C48.0588 143.508 47.7775 143.904 47.2775 144.279C46.7775 144.717 46.3296 144.935 45.9338 144.935C45.6421 144.935 45.4233 144.581 45.2775 143.873C45.1108 143.206 45.0588 142.727 45.1213 142.435C45.3713 140.644 46.3192 138.55 47.965 136.154C49.6108 133.842 51.2671 132.06 52.9338 130.81C54.4963 129.685 55.7567 129.123 56.715 129.123C57.6108 129.123 58.2358 129.81 58.59 131.185C58.84 132.331 58.8713 133.435 58.6838 134.498ZM69.3225 134.248C69.3642 134.019 69.2808 133.769 69.0725 133.498C68.885 133.206 68.6871 133.06 68.4787 133.06C67.7079 133.06 66.7287 133.717 65.5412 135.029C64.5204 136.175 63.8329 137.185 63.4787 138.06C67.2704 136.102 69.2183 134.831 69.3225 134.248ZM73.8225 140.529C73.5933 141.779 72.0621 142.842 69.2287 143.717C67.0412 144.342 65.1037 144.654 63.4162 144.654C59.9371 144.654 58.4579 143.206 58.9787 140.31C59.3329 138.206 60.8433 135.8 63.51 133.092C66.1558 130.404 68.5412 129.06 70.6662 129.06C71.5829 129.06 72.3329 129.414 72.9162 130.123C73.5204 130.852 73.7287 131.685 73.5412 132.623C73.1246 135.123 70.1454 137.706 64.6037 140.373C64.9787 140.477 65.4058 140.529 65.885 140.529C66.7808 140.529 68.01 140.331 69.5725 139.935C71.3433 139.519 72.4371 139.31 72.8537 139.31C73.6454 139.31 73.9683 139.717 73.8225 140.529ZM75.5412 120.31C75.5204 120.435 75.4267 120.644 75.26 120.935C74.9892 121.519 73.9683 122.519 72.1975 123.935C69.2808 126.248 67.5308 127.404 66.9475 127.404C66.0933 127.404 65.76 126.977 65.9475 126.123C66.0308 125.435 67.5621 123.852 70.5412 121.373C72.4162 119.81 73.7079 119.029 74.4162 119.029C75.3329 119.029 75.7079 119.456 75.5412 120.31ZM90.93 134.248C90.8258 134.852 90.3883 135.477 89.6175 136.123C88.8675 136.748 88.1904 137.06 87.5863 137.06C87.1488 137.06 86.6175 136.477 85.9925 135.31C85.3675 134.123 84.5967 133.529 83.68 133.529C82.055 133.529 80.7946 134.508 79.8988 136.467C79.6071 137.362 79.3154 138.258 79.0238 139.154C78.7321 140.029 78.4404 140.935 78.1488 141.873C77.3779 143.769 76.2529 144.717 74.7738 144.717C74.0446 144.717 73.7529 144.331 73.8988 143.56C74.0029 143.019 74.2738 141.894 74.7113 140.185C75.1696 138.477 75.8363 136.133 76.7113 133.154C77.4196 130.633 78.305 129.373 79.3675 129.373C79.7842 129.373 80.0446 130.154 80.1488 131.717C82.3571 130.008 84.4613 129.154 86.4613 129.154C87.8571 129.154 89.0133 129.654 89.93 130.654C90.8467 131.654 91.18 132.852 90.93 134.248ZM100.912 139.248C100.433 139.498 100.017 139.623 99.6625 139.623C99.475 139.623 99.0167 139.414 98.2875 138.998C97.5583 138.56 96.9021 138.342 96.3187 138.342C95.6729 138.342 95.3187 138.539 95.2562 138.935C95.0687 140.06 95.85 140.623 97.6 140.623C99.2042 140.623 100.308 140.164 100.912 139.248ZM105.975 136.06C105.537 138.498 104.215 140.56 102.006 142.248C99.7979 143.914 97.4333 144.748 94.9125 144.748C94.2458 144.748 93.6312 144.654 93.0687 144.467C92.5062 144.3 92.0271 144.05 91.6312 143.717C91.2354 143.362 90.9542 142.935 90.7875 142.435C90.6208 141.935 90.6 141.352 90.725 140.685C91.0375 138.935 92.0479 137.404 93.7562 136.092C95.4646 134.779 97.2042 134.123 98.975 134.123C99.2042 134.123 99.4437 134.144 99.6937 134.185C99.9646 134.206 100.246 134.237 100.537 134.279C99.8083 133.612 98.9646 133.279 98.0062 133.279C97.4854 133.279 96.8083 133.498 95.975 133.935C95.0792 134.352 94.4958 134.56 94.225 134.56C93.4542 134.56 93.1521 134.154 93.3187 133.342C93.4646 132.425 94.4854 131.477 96.3812 130.498C98.1521 129.602 99.5479 129.154 100.569 129.154C102.381 129.154 103.808 129.842 104.85 131.217C105.912 132.592 106.287 134.206 105.975 136.06ZM116.676 110.342C115.864 114.883 114.207 122.758 111.707 133.967C111.541 134.8 111.364 135.633 111.176 136.467C110.989 137.279 110.812 138.102 110.645 138.935C110.145 141.414 109.718 142.946 109.364 143.529C108.801 144.467 108.124 144.935 107.332 144.935C106.582 144.935 106.374 143.925 106.707 141.904C107.166 139.446 107.822 136.102 108.676 131.873C109.197 129.373 109.635 127.3 109.989 125.654C110.343 123.987 110.603 122.706 110.77 121.81C111.166 119.748 111.572 117.592 111.989 115.342C112.405 113.071 112.853 110.623 113.332 107.998C113.395 107.519 113.791 106.977 114.52 106.373C115.228 105.789 115.843 105.498 116.364 105.498C116.614 105.498 116.801 105.581 116.926 105.748C117.051 105.894 117.114 106.154 117.114 106.529C117.135 106.904 117.103 107.404 117.02 108.029C116.937 108.633 116.822 109.404 116.676 110.342Z" fill="url(#paint0_linear_1074_287)"/>
<path d="M137.016 143.185V142.81V143.185ZM169.485 120.092C168.86 123.654 167.079 126.55 164.141 128.779C161.245 130.987 157.964 132.092 154.298 132.092C150.423 132.092 147.61 131.206 145.86 129.435C145.61 129.185 145.527 128.862 145.61 128.467C145.693 127.842 146.131 127.196 146.923 126.529C147.714 125.862 148.433 125.529 149.079 125.529C149.12 125.529 149.318 125.581 149.673 125.685C152.548 127.081 154.975 127.779 156.954 127.779C161.433 127.779 164.016 125.842 164.704 121.967C165.225 118.987 164.652 116.248 162.985 113.748C161.214 111.164 158.85 109.873 155.891 109.873C149.641 109.873 145.131 117.748 142.36 133.498C142.089 135.019 141.85 136.3 141.641 137.342C141.433 138.383 141.245 139.196 141.079 139.779C140.141 143.071 139.016 144.717 137.704 144.717C137.162 144.717 136.933 144.206 137.016 143.185L137.673 139.717C137.735 139.279 137.818 138.727 137.923 138.06C138.027 137.394 138.152 136.612 138.298 135.717C138.464 134.779 138.6 133.987 138.704 133.342C138.808 132.675 138.902 132.123 138.985 131.685C139.673 127.81 140.423 124.675 141.235 122.279C142.756 117.842 144.839 114.144 147.485 111.185C150.756 107.498 154.36 105.654 158.298 105.654C161.943 105.654 164.881 107.144 167.11 110.123C169.339 113.123 170.131 116.446 169.485 120.092ZM177.217 123.029C177.051 123.842 176.645 124.623 175.999 125.373C175.332 126.123 174.582 126.498 173.749 126.498C172.332 126.498 171.728 125.894 171.936 124.685C172.082 123.977 172.582 123.248 173.436 122.498C174.27 121.727 175.051 121.342 175.78 121.342C176.926 121.342 177.405 121.904 177.217 123.029ZM173.967 130.967C173.967 130.883 173.415 132.592 172.311 136.092C171.957 137.529 171.395 139.685 170.624 142.56C170.499 143.081 170.082 143.592 169.374 144.092C168.645 144.571 168.03 144.81 167.53 144.81C166.926 144.81 166.749 143.967 166.999 142.279C167.228 141.071 167.822 139.05 168.78 136.217C169.822 133.237 170.613 131.331 171.155 130.498C171.759 129.581 172.447 129.123 173.217 129.123C173.947 129.123 174.197 129.737 173.967 130.967ZM190.481 131.154C190.419 131.571 190.117 131.967 189.575 132.342C189.033 132.717 188.554 132.904 188.137 132.904C187.929 132.904 187.679 132.904 187.387 132.904C187.117 132.883 186.783 132.862 186.387 132.842C185.637 132.779 185.065 132.748 184.669 132.748C183.565 132.748 182.533 132.956 181.575 133.373C182.117 133.769 182.669 134.164 183.231 134.56C183.794 134.935 184.367 135.31 184.95 135.685C186.075 136.664 186.512 137.883 186.262 139.342C185.95 141.133 184.783 142.529 182.762 143.529C181.054 144.321 179.231 144.717 177.294 144.717C176.919 144.717 176.179 144.571 175.075 144.279C173.992 144.029 173.471 143.758 173.512 143.467C173.575 142.925 173.929 142.362 174.575 141.779C175.221 141.196 175.825 140.831 176.387 140.685C176.825 140.623 177.346 140.592 177.95 140.592H179.762C179.971 140.592 180.273 140.654 180.669 140.779C181.065 140.904 181.367 140.967 181.575 140.967C181.721 140.967 181.815 140.946 181.856 140.904C182.002 139.946 181.127 138.894 179.231 137.748C177.315 136.581 176.44 135.592 176.606 134.779C176.856 133.404 178.283 132.071 180.887 130.779C183.262 129.675 185.2 129.123 186.7 129.123C187.2 129.123 187.96 129.331 188.981 129.748C190.044 130.227 190.544 130.696 190.481 131.154ZM204.026 133.654C203.922 134.154 203.63 134.706 203.151 135.31C202.672 135.873 202.203 136.154 201.745 136.154C201.328 136.154 200.86 135.612 200.339 134.529C199.818 133.446 199.026 132.904 197.964 132.904C195.797 132.904 194.547 133.883 194.214 135.842C193.985 136.946 194.172 137.987 194.776 138.967C195.38 139.946 196.203 140.435 197.245 140.435C197.891 140.435 198.63 140.144 199.464 139.56C200.318 138.956 200.953 138.654 201.37 138.654C202.245 138.654 202.599 139.081 202.432 139.935C202.37 140.331 202.068 140.8 201.526 141.342C199.297 143.592 197.005 144.717 194.651 144.717C192.86 144.717 191.485 143.998 190.526 142.56C189.672 141.102 189.412 139.498 189.745 137.748C190.141 135.664 191.307 133.706 193.245 131.873C195.203 130.039 197.235 129.123 199.339 129.123C200.797 129.123 201.974 129.508 202.87 130.279C203.849 131.196 204.235 132.321 204.026 133.654ZM214.415 123.029C214.248 123.842 213.842 124.623 213.196 125.373C212.53 126.123 211.78 126.498 210.946 126.498C209.53 126.498 208.925 125.894 209.134 124.685C209.28 123.977 209.78 123.248 210.634 122.498C211.467 121.727 212.248 121.342 212.977 121.342C214.123 121.342 214.602 121.904 214.415 123.029ZM211.165 130.967C211.165 130.883 210.613 132.592 209.509 136.092C209.155 137.529 208.592 139.685 207.821 142.56C207.696 143.081 207.28 143.592 206.571 144.092C205.842 144.571 205.227 144.81 204.727 144.81C204.123 144.81 203.946 143.967 204.196 142.279C204.425 141.071 205.019 139.05 205.977 136.217C207.019 133.237 207.811 131.331 208.352 130.498C208.957 129.581 209.644 129.123 210.415 129.123C211.144 129.123 211.394 129.737 211.165 130.967ZM223.991 134.498C223.783 135.748 223.45 137.019 222.991 138.31C222.533 139.602 221.95 140.946 221.241 142.342C220.387 143.883 219.314 144.654 218.023 144.654C217.252 144.654 216.929 144.258 217.054 143.467C217.179 142.821 217.429 142.019 217.804 141.06C218.45 139.581 218.773 138.779 218.773 138.654C218.939 138.133 219.106 137.56 219.273 136.935C219.439 136.31 219.595 135.623 219.741 134.873C219.887 133.852 219.845 133.342 219.616 133.342C218.637 133.342 217.356 134.727 215.773 137.498C214.439 139.935 213.658 141.8 213.429 143.092C213.366 143.508 213.085 143.904 212.585 144.279C212.085 144.717 211.637 144.935 211.241 144.935C210.95 144.935 210.731 144.581 210.585 143.873C210.418 143.206 210.366 142.727 210.429 142.435C210.679 140.644 211.627 138.55 213.273 136.154C214.918 133.842 216.575 132.06 218.241 130.81C219.804 129.685 221.064 129.123 222.023 129.123C222.918 129.123 223.543 129.81 223.898 131.185C224.148 132.331 224.179 133.435 223.991 134.498ZM234.63 134.248C234.672 134.019 234.588 133.769 234.38 133.498C234.193 133.206 233.995 133.06 233.786 133.06C233.015 133.06 232.036 133.717 230.849 135.029C229.828 136.175 229.14 137.185 228.786 138.06C232.578 136.102 234.526 134.831 234.63 134.248ZM239.13 140.529C238.901 141.779 237.37 142.842 234.536 143.717C232.349 144.342 230.411 144.654 228.724 144.654C225.245 144.654 223.765 143.206 224.286 140.31C224.64 138.206 226.151 135.8 228.818 133.092C231.463 130.404 233.849 129.06 235.974 129.06C236.89 129.06 237.64 129.414 238.224 130.123C238.828 130.852 239.036 131.685 238.849 132.623C238.432 135.123 235.453 137.706 229.911 140.373C230.286 140.477 230.713 140.529 231.193 140.529C232.088 140.529 233.318 140.331 234.88 139.935C236.651 139.519 237.745 139.31 238.161 139.31C238.953 139.31 239.276 139.717 239.13 140.529Z" fill="url(#paint1_linear_1074_287)"/>
<defs>
<linearGradient id="paint0_linear_1074_287" x1="7" y1="130.154" x2="268.5" y2="130.154" gradientUnits="userSpaceOnUse">
<stop offset="0.463542" stop-color="#A4C754"/>
<stop offset="0.578125" stop-color="#38BDF8"/>
<stop offset="1" stop-color="#89CEE9"/>
</linearGradient>
<linearGradient id="paint1_linear_1074_287" x1="7" y1="130.154" x2="268.5" y2="130.154" gradientUnits="userSpaceOnUse">
<stop offset="0.578125" stop-color="#38BDF8"/>
</linearGradient>
</defs>
</svg>
