<svg width="258" height="155" viewBox="0 0 258 155" fill="none" xmlns="http://www.w3.org/2000/svg">
<path fill-rule="evenodd" clip-rule="evenodd" d="M129.476 0.196655C151.87 0.196655 170.754 14.1451 176.604 33.1958L176.669 33.1963C176.684 33.2329 176.699 33.2696 176.714 33.3063C177.439 35.0569 178.197 37.549 178.987 40.7827C177.483 39.8747 175.948 39.5391 174.383 39.776C170.052 40.4312 164.889 44.6393 162.576 44.5778C158.479 44.4689 154.602 42.3051 151.279 42.3051C151.112 42.3051 150.134 42.6155 149.983 42.6326C149.043 42.7391 147.471 43.6497 145.91 44.6369L145.327 45.0093C143.585 46.1287 141.958 47.2302 141.362 47.278C139.652 47.4152 138.574 46.6779 137.118 46.23C136.758 46.1191 136.393 46.0052 136.027 45.8914L135.295 45.6651C133.101 44.9926 130.941 44.4026 129.476 44.5778C125.165 45.0933 119.979 50.2907 117.84 50.4624C117.143 50.5183 116.773 50.5408 116.596 50.544L116.518 50.5439C116.396 50.5403 116.475 50.5169 116.58 50.4922L116.644 50.4775C116.828 50.4362 116.988 50.4016 116.288 50.4624C116.15 50.3794 114.507 49.7211 112.851 49.0664L112.3 48.8491C110.842 48.2742 109.504 47.7528 109.334 47.6917C108.438 47.3695 107.256 47.3031 106.604 47.278C106.481 47.2733 106.381 47.2686 106.297 47.2643L106.088 47.2532C105.858 47.241 105.783 47.2414 105.435 47.278C104.226 47.4053 103.04 48.19 102.026 49.1639C100.865 50.2772 97.8978 52.6998 95.7508 52.9233C91.8165 53.3329 87.9156 49.3012 85.1223 49.5397C81.7277 49.8296 80.9371 50.6634 79.7835 51.1967C79.4208 51.3643 79.1656 51.5018 79.0178 51.6091L79.0127 51.6124L79.0553 51.254C80.0906 42.686 81.1781 36.6664 82.3178 33.1954L82.3487 33.1947L82.528 32.6268C88.5759 13.868 107.307 0.196655 129.476 0.196655Z" fill="#FBC900"/>
<path fill-rule="evenodd" clip-rule="evenodd" d="M128.436 101.803C106.042 101.803 87.1576 87.8549 81.3081 68.8042L81.2433 68.8037C81.2281 68.7671 81.2129 68.7304 81.1977 68.6937C80.4728 66.9431 79.5951 64.1181 78.5645 60.2184C80.7617 58.9811 82.6432 58.244 84.2089 58.0071C88.5392 57.352 92.0237 60.7166 94.3367 60.7781C98.4332 60.887 103.704 55.3231 107.027 55.3231C110.35 55.3231 112.288 56.6384 112.42 56.6807C114.731 57.4222 116.56 58.1029 117.753 58.0071C118.199 57.9713 119.514 57.7958 120.271 57.4222C122.413 56.3643 123.751 55.9202 125.756 54.722C127.76 53.5237 130.01 52.8033 130.977 52.8033C131.944 52.8033 132.688 52.9666 133.633 53.5237C135.717 54.7528 138.957 56.0978 140.072 55.9883C141.171 55.8803 144.037 53.8754 144.627 53.5237C147.598 51.7521 149.663 50.2775 151.308 50.1344C151.438 50.2119 154.138 50.4065 156.558 51.0474C159.319 51.7786 161.891 52.9554 162.976 52.8361C166.392 52.4603 171.698 49.0278 173.273 48.2115C174.573 47.5377 176.628 48.1786 179.436 50.1344C178.564 58.7606 177.283 64.947 175.592 68.6937L175.544 68.8033L175.563 68.8032C169.714 87.8544 150.829 101.803 128.436 101.803Z" fill="#89CDE9"/>
<path d="M112.335 28.9502C112.081 31.3488 110.725 33.5888 108.266 35.6703C105.924 37.6445 103.544 38.7161 101.125 38.8852C99.2745 39.0147 97.7832 38.5238 96.6515 37.4125C95.5304 36.2757 95.0717 34.7702 95.2754 32.8959C95.3319 32.2844 95.4593 31.6245 95.6578 30.9162C95.8563 30.2079 96.1253 29.4451 96.465 28.6277C96.7762 27.9364 97.0875 27.245 97.3987 26.5536C97.71 25.8623 98.0208 25.1647 98.3312 24.461C98.5019 24.0647 98.6664 23.6688 98.8247 23.2733C98.9831 22.8778 99.1348 22.4766 99.28 22.0697C99.782 21.0922 100.379 20.5793 101.07 20.5309C101.576 20.4956 101.797 20.7343 101.733 21.2471C101.643 21.8983 101.272 22.9782 100.621 24.4869C100.374 25.0374 100.127 25.5878 99.8807 26.1383C99.6331 26.6764 99.3868 27.233 99.1419 27.8081C98.5581 29.213 98.2108 30.4525 98.0999 31.5266C97.9434 33.0131 98.2916 34.1792 99.1443 35.0248C99.9962 35.858 101.162 36.2228 102.643 36.1193C104.198 36.0106 105.668 35.3994 107.053 34.2857C108.545 33.1026 109.381 31.7484 109.559 30.2231C109.71 28.8361 109.178 27.6954 107.962 26.8008C106.918 26.0554 105.671 25.6032 104.222 25.4441C104.023 25.4456 103.788 25.4435 103.515 25.4378C103.24 25.4197 102.923 25.3986 102.561 25.3742C102.188 25.3507 102.013 25.1522 102.036 24.7786C102.109 24.0419 102.627 23.3918 103.592 22.8283L106.566 21.4672C108.052 20.7309 108.829 20.1371 108.897 19.686C108.968 18.9247 108.495 18.3749 107.48 18.0367C106.767 17.7765 105.942 17.6792 105.004 17.7448C103.499 17.8501 101.944 18.3184 100.341 19.1497C98.5211 20.083 97.2768 21.1744 96.6078 22.4239C96.1579 23.2614 95.598 23.7656 94.9279 23.9364L94.5663 23.5525C94.6589 22.926 94.9053 22.2826 95.3055 21.6222C96.3639 19.9114 98.0529 18.4417 100.373 17.2131C102.474 16.0494 104.524 15.3976 106.523 15.2578C107.744 15.1724 108.857 15.3922 109.861 15.9172C111.081 16.5139 111.631 17.3806 111.512 18.5173C111.375 19.9281 110.043 21.4411 107.514 23.0563C111.038 23.9755 112.645 25.9401 112.335 28.9502ZM120.867 31.2738C120.831 31.6359 120.597 32.0242 120.167 32.4387C119.749 32.8399 119.361 33.0531 119.003 33.0781C118.744 33.0962 118.405 32.7727 117.987 32.1076C117.567 31.4301 117.086 31.1104 116.543 31.1483C115.581 31.2156 114.875 31.8478 114.425 33.0448C114.29 33.5875 114.154 34.1302 114.018 34.6729C113.882 35.2032 113.747 35.7521 113.613 36.3194C113.235 37.4743 112.607 38.0823 111.731 38.1436C111.299 38.1738 111.111 37.9576 111.165 37.495C111.204 37.1698 111.318 36.4923 111.507 35.4623C111.707 34.4315 112.005 33.0157 112.4 31.2148C112.715 29.6924 113.187 28.9092 113.817 28.8652C114.064 28.8479 114.25 29.2999 114.377 30.221C115.614 29.1177 116.825 28.5246 118.009 28.4418C118.836 28.384 119.542 28.6322 120.126 29.1866C120.71 29.7409 120.957 30.4366 120.867 31.2738ZM126.019 24.2361C125.954 24.7243 125.746 25.2038 125.394 25.6748C125.03 26.1466 124.602 26.3998 124.108 26.4343C123.269 26.493 122.886 26.1602 122.96 25.4358C123.017 25.0103 123.283 24.5577 123.757 24.0781C124.219 23.587 124.666 23.3263 125.098 23.2961C125.776 23.2487 126.084 23.562 126.019 24.2361ZM124.423 29.0721C124.419 29.0228 124.163 30.0575 123.654 32.1763C123.504 33.0424 123.26 34.3428 122.922 36.0776C122.87 36.3913 122.644 36.7109 122.246 37.0364C121.833 37.3504 121.479 37.5177 121.183 37.5385C120.825 37.5635 120.686 37.0711 120.764 36.0612C120.849 35.336 121.117 34.1145 121.568 32.3966C122.061 30.5889 122.451 29.427 122.738 28.911C123.057 28.343 123.446 28.0431 123.902 28.0111C124.334 27.9809 124.508 28.3346 124.423 29.0721ZM129.463 16.4437C129.17 19.1674 128.515 23.9004 127.498 30.6427C127.434 31.1432 127.364 31.6441 127.287 32.1454C127.21 32.6344 127.139 33.1292 127.075 33.6297C126.881 35.1188 126.692 36.0435 126.506 36.4036C126.212 36.9822 125.83 37.2879 125.361 37.3207C124.917 37.3518 124.752 36.7619 124.865 35.5512C125.035 34.0761 125.285 32.0684 125.616 29.5281C125.821 28.0258 125.994 26.7798 126.136 25.7903C126.277 24.7885 126.378 24.0188 126.439 23.4813C126.588 22.2433 126.74 20.9493 126.893 19.5994C127.046 18.2371 127.21 16.7686 127.385 15.194C127.402 14.9076 127.614 14.5704 128.021 14.1823C128.417 13.8075 128.769 13.6092 129.077 13.5877C129.225 13.5773 129.34 13.6189 129.421 13.7125C129.501 13.7937 129.548 13.9453 129.564 14.1674C129.592 14.3887 129.594 14.6861 129.571 15.0598C129.546 15.4211 129.51 15.8824 129.463 16.4437ZM133.117 16.1882C132.824 18.9119 132.169 23.6448 131.153 30.3871C131.089 30.8876 131.018 31.3885 130.942 31.8899C130.864 32.3789 130.793 32.8736 130.729 33.3741C130.536 34.8633 130.346 35.7879 130.161 36.1481C129.866 36.7267 129.485 37.0324 129.016 37.0652C128.571 37.0962 128.406 36.5064 128.52 35.2956C128.69 33.8206 128.94 31.8129 129.271 29.2725C129.476 27.7702 129.649 26.5243 129.79 25.5348C129.931 24.5329 130.032 23.7633 130.094 23.2258C130.243 21.9877 130.394 20.6938 130.548 19.3438C130.701 17.9815 130.865 16.5131 131.04 14.9384C131.057 14.652 131.269 14.3148 131.676 13.9268C132.071 13.5519 132.423 13.3537 132.732 13.3321C132.88 13.3218 132.994 13.3634 133.075 13.4569C133.155 13.5381 133.203 13.6898 133.218 13.9119C133.246 14.1331 133.249 14.4306 133.225 14.8042C133.201 15.1655 133.165 15.6268 133.117 16.1882ZM138.358 33.0267C138.084 33.1946 137.843 33.2859 137.633 33.3006C137.522 33.3084 137.242 33.2039 136.793 32.9873C136.343 32.7584 135.945 32.656 135.599 32.6802C135.217 32.7069 135.015 32.8388 134.995 33.0759C134.93 33.75 135.416 34.0508 136.453 33.9783C137.403 33.9119 138.038 33.5947 138.358 33.0267ZM141.224 30.9291C141.066 32.3909 140.368 33.6673 139.13 34.7583C137.891 35.837 136.525 36.4285 135.032 36.5329C134.637 36.5605 134.269 36.5304 133.928 36.4427C133.588 36.3672 133.294 36.239 133.045 36.058C132.796 35.8646 132.612 35.6233 132.493 35.334C132.373 35.0448 132.337 34.7001 132.383 34.3001C132.496 33.2506 133.031 32.3018 133.988 31.4536C134.946 30.6055 135.949 30.1447 136.998 30.0714C137.134 30.0619 137.276 30.0643 137.426 30.0786C137.587 30.0798 137.755 30.0866 137.93 30.0992C137.47 29.7346 136.957 29.5721 136.389 29.6118C136.081 29.6333 135.689 29.7909 135.213 30.0846C134.7 30.3685 134.363 30.516 134.203 30.5273C133.746 30.5592 133.55 30.3311 133.615 29.8429C133.664 29.2939 134.229 28.6902 135.311 28.0317C136.323 27.4278 137.131 27.1047 137.736 27.0624C138.81 26.9873 139.683 27.3354 140.357 28.1067C141.044 28.8771 141.333 29.8179 141.224 30.9291ZM149.201 29.4413C149.129 30.1903 148.984 30.9568 148.766 31.7409C148.548 32.5249 148.259 33.345 147.897 34.2011C147.455 35.1496 146.851 35.6506 146.086 35.7041C145.63 35.736 145.422 35.5149 145.463 35.0408C145.51 34.6531 145.625 34.1677 145.808 33.5845C146.129 32.6817 146.287 32.1932 146.282 32.1192C146.359 31.8038 146.434 31.4576 146.507 31.0805C146.58 30.7034 146.644 30.2897 146.699 29.8394C146.743 29.2287 146.697 28.9281 146.562 28.9376C145.982 28.9782 145.28 29.8518 144.457 31.5586C143.768 33.0576 143.383 34.1943 143.3 34.9689C143.281 35.2183 143.131 35.4644 142.85 35.7072C142.572 35.987 142.316 36.1351 142.081 36.1515C141.908 36.1636 141.764 35.9629 141.648 35.5494C141.522 35.1614 141.471 34.8798 141.496 34.7044C141.57 33.6329 142.045 32.3535 142.921 30.8662C143.8 29.4284 144.707 28.3047 145.642 27.4953C146.521 26.7643 147.244 26.3789 147.812 26.3392C148.343 26.3021 148.741 26.6834 149.008 27.4832C149.204 28.1515 149.268 28.8042 149.201 29.4413ZM158.188 28.3106C158.147 28.6111 157.997 28.9502 157.738 29.3279C157.478 29.6809 157.212 29.8669 156.94 29.8859C156.694 29.9031 156.394 29.6017 156.04 28.9816C155.687 28.3615 155.196 28.0735 154.566 28.1175C153.283 28.2072 152.583 28.839 152.467 30.0127C152.377 30.6762 152.531 31.2854 152.929 31.8404C153.328 32.3953 153.835 32.6512 154.452 32.6081C154.835 32.5813 155.261 32.3779 155.73 31.9979C156.211 31.6047 156.575 31.3994 156.822 31.3822C157.34 31.3459 157.568 31.5842 157.504 32.097C157.484 32.3341 157.324 32.6242 157.026 32.9675C155.799 34.3925 154.488 35.1538 153.093 35.2513C152.032 35.3255 151.188 34.9567 150.561 34.145C149.995 33.3166 149.774 32.3772 149.899 31.3269C150.047 30.0765 150.657 28.8683 151.729 27.7021C152.813 26.5351 153.978 25.908 155.224 25.8209C156.088 25.7605 156.801 25.94 157.363 26.3595C157.981 26.8619 158.256 27.5123 158.188 28.3106ZM164.551 28.2191C164.566 28.0816 164.507 27.937 164.372 27.7852C164.249 27.6202 164.126 27.542 164.002 27.5507C163.546 27.5826 162.993 28.0119 162.344 28.8384C161.787 29.5594 161.421 30.1863 161.248 30.7193C163.412 29.4023 164.514 28.5689 164.551 28.2191ZM167.477 31.7531C167.393 32.503 166.53 33.1957 164.888 33.8313C163.618 34.2921 162.483 34.5575 161.484 34.6274C159.423 34.7715 158.487 33.9751 158.676 32.2383C158.798 30.9774 159.593 29.4896 161.06 27.775C162.516 26.0736 163.873 25.1789 165.132 25.0909C165.675 25.0529 166.134 25.2316 166.509 25.627C166.897 26.0339 167.055 26.5188 166.983 27.0819C166.839 28.5799 165.182 30.2334 162.01 32.0424C162.236 32.0886 162.491 32.1017 162.775 32.0819C163.306 32.0448 164.026 31.8766 164.935 31.5775C165.966 31.2573 166.606 31.0886 166.852 31.0714C167.321 31.0386 167.529 31.2658 167.477 31.7531Z" fill="white"/>
<path d="M102.924 89.1969L102.904 88.9634L102.924 89.1969ZM121.882 73.0496C121.687 75.3017 120.736 77.2018 119.028 78.7497C117.345 80.2824 115.363 81.1486 113.08 81.3483C110.667 81.5594 108.868 81.1613 107.682 80.1541C107.512 80.0121 107.443 79.8156 107.473 79.5646C107.491 79.1709 107.728 78.7449 108.185 78.2867C108.641 77.8285 109.071 77.5818 109.473 77.5467C109.499 77.5444 109.625 77.566 109.851 77.6116C111.717 78.3241 113.266 78.6264 114.499 78.5186C117.287 78.2746 118.79 76.9276 119.007 74.4774C119.169 72.5942 118.663 70.9197 117.49 69.4539C116.246 67.9419 114.704 67.2665 112.862 67.4276C108.97 67.7681 106.591 72.9169 105.724 82.8742C105.638 83.8358 105.559 84.6466 105.486 85.3065C105.413 85.9664 105.34 86.4825 105.268 86.8548C104.864 88.9553 104.253 90.0413 103.436 90.1128C103.099 90.1423 102.928 89.837 102.924 89.1969L103.144 87.0014C103.159 86.7256 103.181 86.3774 103.209 85.9566C103.238 85.5358 103.273 85.0426 103.315 84.4769C103.368 83.8841 103.409 83.3838 103.439 82.976C103.467 82.5553 103.496 82.2064 103.524 81.9295C103.741 79.4794 104.037 77.4864 104.412 75.9504C105.117 73.1047 106.213 70.6888 107.699 68.7027C109.535 66.2287 111.679 64.8844 114.13 64.6699C116.4 64.4713 118.31 65.2387 119.86 66.9722C121.412 68.7186 122.086 70.7444 121.882 73.0496ZM125.661 74.5619C125.602 75.0769 125.391 75.5854 125.03 76.0876C124.656 76.5909 124.209 76.8652 123.69 76.9106C122.808 76.9878 122.399 76.6445 122.463 75.8808C122.515 75.4318 122.787 74.9506 123.278 74.4371C123.755 73.9118 124.22 73.6293 124.674 73.5895C125.388 73.5271 125.717 73.8512 125.661 74.5619ZM124.07 79.681C124.065 79.6291 123.815 80.7228 123.318 82.9622C123.176 83.8765 122.943 85.2496 122.62 87.0817C122.57 87.4128 122.339 87.7533 121.925 88.1031C121.497 88.4412 121.127 88.6239 120.816 88.6511C120.44 88.684 120.284 88.1683 120.347 87.104C120.424 86.3392 120.684 85.0486 121.126 83.2323C121.612 81.3207 122.001 80.0907 122.293 79.5424C122.62 78.9387 123.023 78.6159 123.503 78.5739C123.957 78.5342 124.146 78.9032 124.07 79.681ZM133.167 79.0028C133.15 79.2656 132.984 79.5285 132.667 79.7915C132.35 80.0545 132.062 80.1974 131.803 80.22C131.673 80.2314 131.517 80.245 131.336 80.2609C131.166 80.2627 130.957 80.2679 130.71 80.2765C130.239 80.2784 129.881 80.2902 129.634 80.3117C128.947 80.3719 128.316 80.5578 127.742 80.8694C128.101 81.0863 128.466 81.3027 128.838 81.5185C129.209 81.7214 129.586 81.9236 129.97 82.1253C130.723 82.6737 131.062 83.4087 130.986 84.3303C130.889 85.4629 130.239 86.3955 129.035 87.1282C128.014 87.7142 126.901 88.0599 125.695 88.1655C125.461 88.1859 124.993 88.1354 124.289 88.0139C123.601 87.9173 123.262 87.777 123.272 87.5931C123.282 87.2525 123.471 86.883 123.842 86.4846C124.212 86.0862 124.568 85.8263 124.911 85.7049C125.18 85.6421 125.502 85.5943 125.878 85.5614L127.007 85.4627C127.137 85.4513 127.328 85.4738 127.581 85.53C127.835 85.5863 128.026 85.6088 128.156 85.5974C128.247 85.5895 128.304 85.5714 128.328 85.5432C128.366 84.9386 127.764 84.3312 126.521 83.721C125.264 83.099 124.666 82.5306 124.725 82.0156C124.806 81.1459 125.622 80.238 127.173 79.2919C128.591 78.4751 129.768 78.0258 130.702 77.9441C131.013 77.9168 131.498 78.0051 132.156 78.2089C132.844 78.4494 133.181 78.714 133.167 79.0028ZM140.541 79.9261C140.503 80.2431 140.352 80.6027 140.086 81.005C139.818 81.3813 139.542 81.582 139.257 81.6069C138.997 81.6296 138.676 81.3179 138.292 80.6718C137.909 80.0256 137.387 79.7315 136.725 79.7894C135.376 79.9074 134.651 80.5851 134.55 81.8226C134.468 82.5226 134.641 83.1609 135.071 83.7377C135.5 84.3144 136.039 84.5744 136.688 84.5176C137.09 84.4825 137.535 84.2606 138.022 83.852C138.521 83.4293 138.9 83.2066 139.159 83.1839C139.704 83.1362 139.948 83.3829 139.891 83.9238C139.873 84.1736 139.711 84.4819 139.403 84.8487C138.138 86.371 136.772 87.1963 135.306 87.3245C134.191 87.4221 133.295 87.0495 132.62 86.2067C132.009 85.3452 131.76 84.3606 131.872 83.2529C132.005 81.9342 132.625 80.6514 133.731 79.4043C134.85 78.1562 136.065 77.4748 137.375 77.3602C138.283 77.2808 139.037 77.4566 139.637 77.8877C140.297 78.4051 140.598 79.0846 140.541 79.9261ZM145.235 72.8494C145.175 73.3644 144.965 73.8729 144.604 74.3751C144.229 74.8784 143.783 75.1527 143.264 75.1981C142.382 75.2753 141.973 74.932 142.037 74.1683C142.089 73.7194 142.361 73.2381 142.852 72.7246C143.328 72.1993 143.794 71.9168 144.248 71.8771C144.961 71.8147 145.29 72.1388 145.235 72.8494ZM143.644 77.9685C143.639 77.9166 143.388 79.0104 142.892 81.2497C142.749 82.164 142.517 83.5372 142.193 85.3692C142.144 85.7003 141.912 86.0408 141.498 86.3907C141.071 86.7287 140.701 86.9114 140.39 86.9386C140.013 86.9715 139.857 86.4558 139.921 85.3915C139.998 84.6267 140.257 83.3362 140.7 81.5199C141.186 79.6082 141.575 78.3782 141.867 77.8299C142.193 77.2262 142.596 76.9034 143.076 76.8614C143.53 76.8217 143.719 77.1907 143.644 77.9685ZM150.626 79.5731C150.565 80.3627 150.427 81.1721 150.212 82.0013C149.997 82.8305 149.707 83.6989 149.342 84.6066C148.894 85.613 148.268 86.1513 147.463 86.2217C146.983 86.2637 146.761 86.0348 146.796 85.5351C146.838 85.1262 146.95 84.6132 147.131 83.9961C147.453 83.0399 147.61 82.523 147.604 82.4451C147.679 82.1118 147.752 81.746 147.821 81.3478C147.891 80.9495 147.951 80.513 148.001 80.0381C148.036 79.3945 147.982 79.079 147.84 79.0915C147.23 79.1448 146.508 80.0772 145.673 81.8886C144.975 83.4789 144.59 84.6824 144.518 85.4991C144.502 85.7619 144.348 86.0237 144.057 86.2844C143.77 86.5841 143.503 86.7447 143.257 86.7662C143.075 86.7821 142.92 86.5735 142.79 86.1404C142.65 85.7344 142.592 85.4389 142.615 85.2539C142.673 84.1248 143.149 82.7695 144.043 81.1882C144.942 79.6587 145.876 78.4594 146.846 77.5904C147.757 76.8048 148.511 76.3859 149.108 76.3337C149.666 76.2849 150.092 76.6789 150.388 77.5157C150.606 78.2156 150.685 78.9013 150.626 79.5731ZM156.041 78.9425C156.055 78.7975 155.989 78.6464 155.845 78.4891C155.712 78.3178 155.581 78.2377 155.451 78.2491C154.971 78.2911 154.397 78.753 153.73 79.6349C153.156 80.4039 152.783 81.0705 152.611 81.6346C154.865 80.2087 156.008 79.3114 156.041 78.9425ZM159.185 82.6082C159.111 83.399 158.215 84.1439 156.499 84.843C155.171 85.3513 153.981 85.6515 152.931 85.7434C150.765 85.9329 149.765 85.112 149.931 83.2806C150.037 81.9512 150.847 80.3707 152.359 78.5392C153.86 76.7218 155.272 75.7552 156.595 75.6394C157.166 75.5895 157.652 75.7692 158.054 76.1784C158.47 76.5995 158.645 77.107 158.579 77.7009C158.456 79.2802 156.742 81.0509 153.437 83.0131C153.676 83.0575 153.945 83.0667 154.243 83.0406C154.801 82.9918 155.556 82.8016 156.507 82.47C157.587 82.1141 158.256 81.9249 158.516 81.9022C159.009 81.859 159.232 82.0944 159.185 82.6082Z" fill="white"/>
<path d="M31.6875 129.188C30.9792 133.188 28.4375 136.792 24.0625 140C19.8958 143.042 15.7708 144.562 11.6875 144.562C8.5625 144.562 6.11458 143.562 4.34375 141.562C2.59375 139.521 2 136.938 2.5625 133.812C2.72917 132.792 3.02083 131.698 3.4375 130.531C3.85417 129.365 4.39583 128.115 5.0625 126.781C5.66667 125.656 6.27083 124.531 6.875 123.406C7.47917 122.281 8.08333 121.146 8.6875 120C9.02083 119.354 9.34375 118.708 9.65625 118.062C9.96875 117.417 10.2708 116.76 10.5625 116.094C11.5208 114.51 12.5833 113.719 13.75 113.719C14.6042 113.719 14.9479 114.146 14.7812 115C14.5521 116.083 13.8021 117.854 12.5312 120.312C12.0521 121.208 11.5729 122.104 11.0938 123C10.6146 123.875 10.1354 124.781 9.65625 125.719C8.51042 128.01 7.78125 130.052 7.46875 131.844C7.03125 134.323 7.47917 136.323 8.8125 137.844C10.1458 139.344 12.0625 140.094 14.5625 140.094C17.1875 140.094 19.7292 139.24 22.1875 137.531C24.8333 135.719 26.3958 133.542 26.875 131C27.2917 128.688 26.5312 126.708 24.5938 125.062C22.9271 123.688 20.8854 122.781 18.4688 122.344C18.1354 122.323 17.7396 122.292 17.2812 122.25C16.8229 122.188 16.2917 122.115 15.6875 122.031C15.0625 121.948 14.7917 121.594 14.875 120.969C15.0833 119.74 16.0312 118.708 17.7188 117.875L22.875 115.938C25.4583 114.875 26.8333 113.969 27 113.219C27.2083 111.948 26.4792 110.969 24.8125 110.281C23.6458 109.76 22.2708 109.5 20.6875 109.5C18.1458 109.5 15.4792 110.104 12.6875 111.312C9.52083 112.667 7.30208 114.354 6.03125 116.375C5.17708 117.729 4.17708 118.51 3.03125 118.719L2.46875 118.031C2.69792 116.99 3.1875 115.938 3.9375 114.875C5.91667 112.125 8.92708 109.854 12.9688 108.062C16.6354 106.354 20.1562 105.5 23.5312 105.5C25.5938 105.5 27.4375 106 29.0625 107C31.0417 108.146 31.8646 109.667 31.5312 111.562C31.1354 113.917 28.7188 116.302 24.2812 118.719C30.0938 120.677 32.5625 124.167 31.6875 129.188ZM47.67 134.094C47.5658 134.698 47.1283 135.323 46.3575 135.969C45.6075 136.594 44.9304 136.906 44.3263 136.906C43.8888 136.906 43.3575 136.323 42.7325 135.156C42.1075 133.969 41.3367 133.375 40.42 133.375C38.795 133.375 37.5346 134.354 36.6388 136.312C36.3471 137.208 36.0554 138.104 35.7638 139C35.4721 139.875 35.1804 140.781 34.8888 141.719C34.1179 143.615 32.9929 144.562 31.5138 144.562C30.7846 144.562 30.4929 144.177 30.6388 143.406C30.7429 142.865 31.0138 141.74 31.4513 140.031C31.9096 138.323 32.5763 135.979 33.4513 133C34.1596 130.479 35.045 129.219 36.1075 129.219C36.5242 129.219 36.7846 130 36.8888 131.562C39.0971 129.854 41.2013 129 43.2013 129C44.5971 129 45.7533 129.5 46.67 130.5C47.5867 131.5 47.92 132.698 47.67 134.094ZM57.1525 122.875C56.9858 123.688 56.5796 124.469 55.9338 125.219C55.2671 125.969 54.5171 126.344 53.6838 126.344C52.2671 126.344 51.6629 125.74 51.8713 124.531C52.0171 123.823 52.5171 123.094 53.3713 122.344C54.2046 121.573 54.9858 121.188 55.715 121.188C56.8608 121.188 57.34 121.75 57.1525 122.875ZM53.9025 130.812C53.9025 130.729 53.3504 132.438 52.2463 135.938C51.8921 137.375 51.3296 139.531 50.5588 142.406C50.4338 142.927 50.0171 143.438 49.3088 143.938C48.5796 144.417 47.965 144.656 47.465 144.656C46.8608 144.656 46.6838 143.812 46.9338 142.125C47.1629 140.917 47.7567 138.896 48.715 136.062C49.7567 133.083 50.5483 131.177 51.09 130.344C51.6942 129.427 52.3817 128.969 53.1525 128.969C53.8817 128.969 54.1317 129.583 53.9025 130.812ZM63.8537 110.188C63.0412 114.729 61.385 122.604 58.885 133.812C58.7183 134.646 58.5412 135.479 58.3537 136.312C58.1662 137.125 57.9892 137.948 57.8225 138.781C57.3225 141.26 56.8954 142.792 56.5412 143.375C55.9787 144.312 55.3017 144.781 54.51 144.781C53.76 144.781 53.5517 143.771 53.885 141.75C54.3433 139.292 54.9996 135.948 55.8537 131.719C56.3746 129.219 56.8121 127.146 57.1662 125.5C57.5204 123.833 57.7808 122.552 57.9475 121.656C58.3433 119.594 58.7496 117.438 59.1662 115.188C59.5829 112.917 60.0308 110.469 60.51 107.844C60.5725 107.365 60.9683 106.823 61.6975 106.219C62.4058 105.635 63.0204 105.344 63.5412 105.344C63.7912 105.344 63.9787 105.427 64.1037 105.594C64.2287 105.74 64.2912 106 64.2912 106.375C64.3121 106.75 64.2808 107.25 64.1975 107.875C64.1142 108.479 63.9996 109.25 63.8537 110.188ZM70.0238 110.188C69.2113 114.729 67.555 122.604 65.055 133.812C64.8883 134.646 64.7113 135.479 64.5238 136.312C64.3363 137.125 64.1592 137.948 63.9925 138.781C63.4925 141.26 63.0654 142.792 62.7113 143.375C62.1488 144.312 61.4717 144.781 60.68 144.781C59.93 144.781 59.7217 143.771 60.055 141.75C60.5133 139.292 61.1696 135.948 62.0238 131.719C62.5446 129.219 62.9821 127.146 63.3363 125.5C63.6904 123.833 63.9508 122.552 64.1175 121.656C64.5133 119.594 64.9196 117.438 65.3363 115.188C65.7529 112.917 66.2008 110.469 66.68 107.844C66.7425 107.365 67.1383 106.823 67.8675 106.219C68.5758 105.635 69.1904 105.344 69.7113 105.344C69.9613 105.344 70.1488 105.427 70.2738 105.594C70.3988 105.74 70.4613 106 70.4613 106.375C70.4821 106.75 70.4508 107.25 70.3675 107.875C70.2842 108.479 70.1696 109.25 70.0238 110.188ZM76.85 139.094C76.3708 139.344 75.9542 139.469 75.6 139.469C75.4125 139.469 74.9542 139.26 74.225 138.844C73.4958 138.406 72.8396 138.188 72.2562 138.188C71.6104 138.188 71.2562 138.385 71.1937 138.781C71.0062 139.906 71.7875 140.469 73.5375 140.469C75.1417 140.469 76.2458 140.01 76.85 139.094ZM81.9125 135.906C81.475 138.344 80.1521 140.406 77.9437 142.094C75.7354 143.76 73.3708 144.594 70.85 144.594C70.1833 144.594 69.5687 144.5 69.0062 144.312C68.4437 144.146 67.9646 143.896 67.5687 143.562C67.1729 143.208 66.8917 142.781 66.725 142.281C66.5583 141.781 66.5375 141.198 66.6625 140.531C66.975 138.781 67.9854 137.25 69.6937 135.938C71.4021 134.625 73.1417 133.969 74.9125 133.969C75.1417 133.969 75.3812 133.99 75.6312 134.031C75.9021 134.052 76.1833 134.083 76.475 134.125C75.7458 133.458 74.9021 133.125 73.9437 133.125C73.4229 133.125 72.7458 133.344 71.9125 133.781C71.0167 134.198 70.4333 134.406 70.1625 134.406C69.3917 134.406 69.0896 134 69.2562 133.188C69.4021 132.271 70.4229 131.323 72.3187 130.344C74.0896 129.448 75.4854 129 76.5062 129C78.3187 129 79.7458 129.688 80.7875 131.062C81.85 132.438 82.225 134.052 81.9125 135.906ZM95.4887 134.344C95.2804 135.594 94.9471 136.865 94.4887 138.156C94.0304 139.448 93.4471 140.792 92.7387 142.188C91.8846 143.729 90.8117 144.5 89.52 144.5C88.7492 144.5 88.4262 144.104 88.5512 143.312C88.6762 142.667 88.9262 141.865 89.3012 140.906C89.9471 139.427 90.27 138.625 90.27 138.5C90.4367 137.979 90.6033 137.406 90.77 136.781C90.9367 136.156 91.0929 135.469 91.2387 134.719C91.3846 133.698 91.3429 133.188 91.1137 133.188C90.1346 133.188 88.8533 134.573 87.27 137.344C85.9367 139.781 85.1554 141.646 84.9262 142.938C84.8637 143.354 84.5825 143.75 84.0825 144.125C83.5825 144.562 83.1346 144.781 82.7387 144.781C82.4471 144.781 82.2283 144.427 82.0825 143.719C81.9158 143.052 81.8637 142.573 81.9262 142.281C82.1762 140.49 83.1242 138.396 84.77 136C86.4158 133.688 88.0721 131.906 89.7387 130.656C91.3012 129.531 92.5617 128.969 93.52 128.969C94.4158 128.969 95.0408 129.656 95.395 131.031C95.645 132.177 95.6762 133.281 95.4887 134.344ZM110.721 133.5C110.617 134 110.325 134.552 109.846 135.156C109.367 135.719 108.898 136 108.44 136C108.023 136 107.555 135.458 107.034 134.375C106.513 133.292 105.721 132.75 104.659 132.75C102.492 132.75 101.242 133.729 100.909 135.688C100.68 136.792 100.867 137.833 101.471 138.812C102.075 139.792 102.898 140.281 103.94 140.281C104.586 140.281 105.325 139.99 106.159 139.406C107.013 138.802 107.648 138.5 108.065 138.5C108.94 138.5 109.294 138.927 109.128 139.781C109.065 140.177 108.763 140.646 108.221 141.188C105.992 143.438 103.7 144.562 101.346 144.562C99.5546 144.562 98.1796 143.844 97.2213 142.406C96.3671 140.948 96.1067 139.344 96.44 137.594C96.8358 135.51 98.0025 133.552 99.94 131.719C101.898 129.885 103.93 128.969 106.034 128.969C107.492 128.969 108.669 129.354 109.565 130.125C110.544 131.042 110.93 132.167 110.721 133.5ZM121.423 134.094C121.464 133.865 121.381 133.615 121.173 133.344C120.985 133.052 120.787 132.906 120.579 132.906C119.808 132.906 118.829 133.562 117.641 134.875C116.62 136.021 115.933 137.031 115.579 137.906C119.37 135.948 121.318 134.677 121.423 134.094ZM125.923 140.375C125.693 141.625 124.162 142.688 121.329 143.562C119.141 144.188 117.204 144.5 115.516 144.5C112.037 144.5 110.558 143.052 111.079 140.156C111.433 138.052 112.943 135.646 115.61 132.938C118.256 130.25 120.641 128.906 122.766 128.906C123.683 128.906 124.433 129.26 125.016 129.969C125.62 130.698 125.829 131.531 125.641 132.469C125.225 134.969 122.245 137.552 116.704 140.219C117.079 140.323 117.506 140.375 117.985 140.375C118.881 140.375 120.11 140.177 121.673 139.781C123.443 139.365 124.537 139.156 124.954 139.156C125.745 139.156 126.068 139.562 125.923 140.375Z" fill="url(#paint0_linear_1072_285)"/>
<path d="M150.856 143.031V142.656V143.031ZM183.325 119.938C182.7 123.5 180.919 126.396 177.981 128.625C175.085 130.833 171.804 131.938 168.137 131.938C164.262 131.938 161.45 131.052 159.7 129.281C159.45 129.031 159.367 128.708 159.45 128.312C159.533 127.688 159.971 127.042 160.762 126.375C161.554 125.708 162.273 125.375 162.919 125.375C162.96 125.375 163.158 125.427 163.512 125.531C166.387 126.927 168.815 127.625 170.794 127.625C175.273 127.625 177.856 125.688 178.544 121.812C179.065 118.833 178.492 116.094 176.825 113.594C175.054 111.01 172.69 109.719 169.731 109.719C163.481 109.719 158.971 117.594 156.2 133.344C155.929 134.865 155.69 136.146 155.481 137.188C155.273 138.229 155.085 139.042 154.919 139.625C153.981 142.917 152.856 144.562 151.544 144.562C151.002 144.562 150.773 144.052 150.856 143.031L151.512 139.562C151.575 139.125 151.658 138.573 151.762 137.906C151.867 137.24 151.992 136.458 152.137 135.562C152.304 134.625 152.44 133.833 152.544 133.188C152.648 132.521 152.742 131.969 152.825 131.531C153.512 127.656 154.262 124.521 155.075 122.125C156.596 117.688 158.679 113.99 161.325 111.031C164.596 107.344 168.2 105.5 172.137 105.5C175.783 105.5 178.721 106.99 180.95 109.969C183.179 112.969 183.971 116.292 183.325 119.938ZM191.057 122.875C190.891 123.688 190.485 124.469 189.839 125.219C189.172 125.969 188.422 126.344 187.589 126.344C186.172 126.344 185.568 125.74 185.776 124.531C185.922 123.823 186.422 123.094 187.276 122.344C188.11 121.573 188.891 121.188 189.62 121.188C190.766 121.188 191.245 121.75 191.057 122.875ZM187.807 130.812C187.807 130.729 187.255 132.438 186.151 135.938C185.797 137.375 185.235 139.531 184.464 142.406C184.339 142.927 183.922 143.438 183.214 143.938C182.485 144.417 181.87 144.656 181.37 144.656C180.766 144.656 180.589 143.812 180.839 142.125C181.068 140.917 181.662 138.896 182.62 136.062C183.662 133.083 184.453 131.177 184.995 130.344C185.599 129.427 186.287 128.969 187.057 128.969C187.787 128.969 188.037 129.583 187.807 130.812ZM204.321 131C204.259 131.417 203.957 131.812 203.415 132.188C202.873 132.562 202.394 132.75 201.977 132.75C201.769 132.75 201.519 132.75 201.227 132.75C200.957 132.729 200.623 132.708 200.227 132.688C199.477 132.625 198.905 132.594 198.509 132.594C197.405 132.594 196.373 132.802 195.415 133.219C195.957 133.615 196.509 134.01 197.071 134.406C197.634 134.781 198.207 135.156 198.79 135.531C199.915 136.51 200.352 137.729 200.102 139.188C199.79 140.979 198.623 142.375 196.602 143.375C194.894 144.167 193.071 144.562 191.134 144.562C190.759 144.562 190.019 144.417 188.915 144.125C187.832 143.875 187.311 143.604 187.352 143.312C187.415 142.771 187.769 142.208 188.415 141.625C189.061 141.042 189.665 140.677 190.227 140.531C190.665 140.469 191.186 140.438 191.79 140.438H193.602C193.811 140.438 194.113 140.5 194.509 140.625C194.905 140.75 195.207 140.812 195.415 140.812C195.561 140.812 195.655 140.792 195.696 140.75C195.842 139.792 194.967 138.74 193.071 137.594C191.155 136.427 190.28 135.438 190.446 134.625C190.696 133.25 192.123 131.917 194.727 130.625C197.102 129.521 199.04 128.969 200.54 128.969C201.04 128.969 201.8 129.177 202.821 129.594C203.884 130.073 204.384 130.542 204.321 131ZM217.866 133.5C217.762 134 217.47 134.552 216.991 135.156C216.512 135.719 216.043 136 215.585 136C215.168 136 214.7 135.458 214.179 134.375C213.658 133.292 212.866 132.75 211.804 132.75C209.637 132.75 208.387 133.729 208.054 135.688C207.825 136.792 208.012 137.833 208.616 138.812C209.22 139.792 210.043 140.281 211.085 140.281C211.731 140.281 212.47 139.99 213.304 139.406C214.158 138.802 214.793 138.5 215.21 138.5C216.085 138.5 216.439 138.927 216.273 139.781C216.21 140.177 215.908 140.646 215.366 141.188C213.137 143.438 210.845 144.562 208.491 144.562C206.7 144.562 205.325 143.844 204.366 142.406C203.512 140.948 203.252 139.344 203.585 137.594C203.981 135.51 205.148 133.552 207.085 131.719C209.043 129.885 211.075 128.969 213.179 128.969C214.637 128.969 215.814 129.354 216.71 130.125C217.689 131.042 218.075 132.167 217.866 133.5ZM228.255 122.875C228.088 123.688 227.682 124.469 227.036 125.219C226.37 125.969 225.62 126.344 224.786 126.344C223.37 126.344 222.765 125.74 222.974 124.531C223.12 123.823 223.62 123.094 224.474 122.344C225.307 121.573 226.088 121.188 226.818 121.188C227.963 121.188 228.443 121.75 228.255 122.875ZM225.005 130.812C225.005 130.729 224.453 132.438 223.349 135.938C222.995 137.375 222.432 139.531 221.661 142.406C221.536 142.927 221.12 143.438 220.411 143.938C219.682 144.417 219.068 144.656 218.568 144.656C217.963 144.656 217.786 143.812 218.036 142.125C218.265 140.917 218.859 138.896 219.818 136.062C220.859 133.083 221.651 131.177 222.193 130.344C222.797 129.427 223.484 128.969 224.255 128.969C224.984 128.969 225.234 129.583 225.005 130.812ZM237.831 134.344C237.623 135.594 237.29 136.865 236.831 138.156C236.373 139.448 235.79 140.792 235.081 142.188C234.227 143.729 233.154 144.5 231.863 144.5C231.092 144.5 230.769 144.104 230.894 143.312C231.019 142.667 231.269 141.865 231.644 140.906C232.29 139.427 232.613 138.625 232.613 138.5C232.779 137.979 232.946 137.406 233.113 136.781C233.279 136.156 233.435 135.469 233.581 134.719C233.727 133.698 233.685 133.188 233.456 133.188C232.477 133.188 231.196 134.573 229.613 137.344C228.279 139.781 227.498 141.646 227.269 142.938C227.206 143.354 226.925 143.75 226.425 144.125C225.925 144.562 225.477 144.781 225.081 144.781C224.79 144.781 224.571 144.427 224.425 143.719C224.258 143.052 224.206 142.573 224.269 142.281C224.519 140.49 225.467 138.396 227.113 136C228.758 133.688 230.415 131.906 232.081 130.656C233.644 129.531 234.904 128.969 235.863 128.969C236.758 128.969 237.383 129.656 237.738 131.031C237.988 132.177 238.019 133.281 237.831 134.344ZM248.47 134.094C248.512 133.865 248.428 133.615 248.22 133.344C248.033 133.052 247.835 132.906 247.626 132.906C246.855 132.906 245.876 133.562 244.689 134.875C243.668 136.021 242.98 137.031 242.626 137.906C246.418 135.948 248.366 134.677 248.47 134.094ZM252.97 140.375C252.741 141.625 251.21 142.688 248.376 143.562C246.189 144.188 244.251 144.5 242.564 144.5C239.085 144.5 237.605 143.052 238.126 140.156C238.48 138.052 239.991 135.646 242.658 132.938C245.303 130.25 247.689 128.906 249.814 128.906C250.73 128.906 251.48 129.26 252.064 129.969C252.668 130.698 252.876 131.531 252.689 132.469C252.272 134.969 249.293 137.552 243.751 140.219C244.126 140.323 244.553 140.375 245.033 140.375C245.928 140.375 247.158 140.177 248.72 139.781C250.491 139.365 251.585 139.156 252.001 139.156C252.793 139.156 253.116 139.562 252.97 140.375Z" fill="url(#paint1_linear_1072_285)"/>
<defs>
<linearGradient id="paint0_linear_1072_285" x1="7" y1="130" x2="268.5" y2="130" gradientUnits="userSpaceOnUse">
<stop offset="0.463542" stop-color="#FBC900"/>
<stop offset="0.578125" stop-color="#38BDF8"/>
<stop offset="1" stop-color="#89CEE9"/>
</linearGradient>
<linearGradient id="paint1_linear_1072_285" x1="7" y1="130" x2="268.5" y2="130" gradientUnits="userSpaceOnUse">
<stop offset="0.463542" stop-color="#F20089"/>
<stop offset="0.578125" stop-color="#38BDF8"/>
</linearGradient>
</defs>
</svg>
