<svg width="349" height="102" viewBox="0 0 349 102" fill="none" xmlns="http://www.w3.org/2000/svg">
<path d="M246.514 71.0312V70.6562V71.0312ZM278.983 47.9375C278.358 51.5 276.576 54.3958 273.639 56.625C270.743 58.8333 267.462 59.9375 263.795 59.9375C259.92 59.9375 257.108 59.0521 255.358 57.2812C255.108 57.0312 255.024 56.7083 255.108 56.3125C255.191 55.6875 255.628 55.0417 256.42 54.375C257.212 53.7083 257.93 53.375 258.576 53.375C258.618 53.375 258.816 53.4271 259.17 53.5312C262.045 54.9271 264.472 55.625 266.451 55.625C270.93 55.625 273.514 53.6875 274.201 49.8125C274.722 46.8333 274.149 44.0938 272.483 41.5938C270.712 39.0104 268.347 37.7188 265.389 37.7188C259.139 37.7188 254.628 45.5938 251.858 61.3438C251.587 62.8646 251.347 64.1458 251.139 65.1875C250.93 66.2292 250.743 67.0417 250.576 67.625C249.639 70.9167 248.514 72.5625 247.201 72.5625C246.66 72.5625 246.43 72.0521 246.514 71.0312L247.17 67.5625C247.233 67.125 247.316 66.5729 247.42 65.9062C247.524 65.2396 247.649 64.4583 247.795 63.5625C247.962 62.625 248.097 61.8333 248.201 61.1875C248.305 60.5208 248.399 59.9688 248.483 59.5312C249.17 55.6562 249.92 52.5208 250.733 50.125C252.253 45.6875 254.337 41.9896 256.983 39.0312C260.253 35.3438 263.858 33.5 267.795 33.5C271.441 33.5 274.378 34.9896 276.608 37.9688C278.837 40.9688 279.628 44.2917 278.983 47.9375ZM286.715 50.875C286.548 51.6875 286.142 52.4688 285.496 53.2188C284.83 53.9688 284.08 54.3438 283.246 54.3438C281.83 54.3438 281.225 53.7396 281.434 52.5312C281.58 51.8229 282.08 51.0938 282.934 50.3438C283.767 49.5729 284.548 49.1875 285.278 49.1875C286.423 49.1875 286.903 49.75 286.715 50.875ZM283.465 58.8125C283.465 58.7292 282.913 60.4375 281.809 63.9375C281.455 65.375 280.892 67.5312 280.121 70.4062C279.996 70.9271 279.58 71.4375 278.871 71.9375C278.142 72.4167 277.528 72.6562 277.028 72.6562C276.423 72.6562 276.246 71.8125 276.496 70.125C276.725 68.9167 277.319 66.8958 278.278 64.0625C279.319 61.0833 280.111 59.1771 280.653 58.3438C281.257 57.4271 281.944 56.9688 282.715 56.9688C283.444 56.9688 283.694 57.5833 283.465 58.8125ZM299.979 59C299.916 59.4167 299.614 59.8125 299.072 60.1875C298.531 60.5625 298.052 60.75 297.635 60.75C297.427 60.75 297.177 60.75 296.885 60.75C296.614 60.7292 296.281 60.7083 295.885 60.6875C295.135 60.625 294.562 60.5938 294.166 60.5938C293.062 60.5938 292.031 60.8021 291.072 61.2188C291.614 61.6146 292.166 62.0104 292.729 62.4062C293.291 62.7812 293.864 63.1562 294.447 63.5312C295.572 64.5104 296.01 65.7292 295.76 67.1875C295.447 68.9792 294.281 70.375 292.26 71.375C290.552 72.1667 288.729 72.5625 286.791 72.5625C286.416 72.5625 285.677 72.4167 284.572 72.125C283.489 71.875 282.968 71.6042 283.01 71.3125C283.072 70.7708 283.427 70.2083 284.072 69.625C284.718 69.0417 285.322 68.6771 285.885 68.5312C286.322 68.4688 286.843 68.4375 287.447 68.4375H289.26C289.468 68.4375 289.77 68.5 290.166 68.625C290.562 68.75 290.864 68.8125 291.072 68.8125C291.218 68.8125 291.312 68.7917 291.354 68.75C291.5 67.7917 290.625 66.7396 288.729 65.5938C286.812 64.4271 285.937 63.4375 286.104 62.625C286.354 61.25 287.781 59.9167 290.385 58.625C292.76 57.5208 294.697 56.9688 296.197 56.9688C296.697 56.9688 297.458 57.1771 298.479 57.5938C299.541 58.0729 300.041 58.5417 299.979 59ZM313.524 61.5C313.42 62 313.128 62.5521 312.649 63.1562C312.17 63.7188 311.701 64 311.243 64C310.826 64 310.357 63.4583 309.836 62.375C309.315 61.2917 308.524 60.75 307.461 60.75C305.295 60.75 304.045 61.7292 303.711 63.6875C303.482 64.7917 303.67 65.8333 304.274 66.8125C304.878 67.7917 305.701 68.2812 306.743 68.2812C307.388 68.2812 308.128 67.9896 308.961 67.4062C309.815 66.8021 310.451 66.5 310.868 66.5C311.743 66.5 312.097 66.9271 311.93 67.7812C311.868 68.1771 311.565 68.6458 311.024 69.1875C308.795 71.4375 306.503 72.5625 304.149 72.5625C302.357 72.5625 300.982 71.8438 300.024 70.4062C299.17 68.9479 298.909 67.3438 299.243 65.5938C299.638 63.5104 300.805 61.5521 302.743 59.7188C304.701 57.8854 306.732 56.9688 308.836 56.9688C310.295 56.9688 311.472 57.3542 312.368 58.125C313.347 59.0417 313.732 60.1667 313.524 61.5ZM323.912 50.875C323.746 51.6875 323.34 52.4688 322.694 53.2188C322.027 53.9688 321.277 54.3438 320.444 54.3438C319.027 54.3438 318.423 53.7396 318.631 52.5312C318.777 51.8229 319.277 51.0938 320.131 50.3438C320.965 49.5729 321.746 49.1875 322.475 49.1875C323.621 49.1875 324.1 49.75 323.912 50.875ZM320.662 58.8125C320.662 58.7292 320.11 60.4375 319.006 63.9375C318.652 65.375 318.09 67.5312 317.319 70.4062C317.194 70.9271 316.777 71.4375 316.069 71.9375C315.34 72.4167 314.725 72.6562 314.225 72.6562C313.621 72.6562 313.444 71.8125 313.694 70.125C313.923 68.9167 314.517 66.8958 315.475 64.0625C316.517 61.0833 317.308 59.1771 317.85 58.3438C318.454 57.4271 319.142 56.9688 319.912 56.9688C320.642 56.9688 320.892 57.5833 320.662 58.8125ZM333.489 62.3438C333.28 63.5938 332.947 64.8646 332.489 66.1562C332.03 67.4479 331.447 68.7917 330.739 70.1875C329.885 71.7292 328.812 72.5 327.52 72.5C326.749 72.5 326.426 72.1042 326.551 71.3125C326.676 70.6667 326.926 69.8646 327.301 68.9062C327.947 67.4271 328.27 66.625 328.27 66.5C328.437 65.9792 328.603 65.4062 328.77 64.7812C328.937 64.1562 329.093 63.4688 329.239 62.7188C329.385 61.6979 329.343 61.1875 329.114 61.1875C328.135 61.1875 326.853 62.5729 325.27 65.3438C323.937 67.7812 323.155 69.6458 322.926 70.9375C322.864 71.3542 322.582 71.75 322.082 72.125C321.582 72.5625 321.135 72.7812 320.739 72.7812C320.447 72.7812 320.228 72.4271 320.082 71.7188C319.916 71.0521 319.864 70.5729 319.926 70.2812C320.176 68.4896 321.124 66.3958 322.77 64C324.416 61.6875 326.072 59.9062 327.739 58.6562C329.301 57.5312 330.562 56.9688 331.52 56.9688C332.416 56.9688 333.041 57.6562 333.395 59.0312C333.645 60.1771 333.676 61.2812 333.489 62.3438ZM344.128 62.0938C344.169 61.8646 344.086 61.6146 343.878 61.3438C343.69 61.0521 343.492 60.9062 343.284 60.9062C342.513 60.9062 341.534 61.5625 340.346 62.875C339.325 64.0208 338.638 65.0312 338.284 65.9062C342.075 63.9479 344.023 62.6771 344.128 62.0938ZM348.628 68.375C348.398 69.625 346.867 70.6875 344.034 71.5625C341.846 72.1875 339.909 72.5 338.221 72.5C334.742 72.5 333.263 71.0521 333.784 68.1562C334.138 66.0521 335.648 63.6458 338.315 60.9375C340.961 58.25 343.346 56.9062 345.471 56.9062C346.388 56.9062 347.138 57.2604 347.721 57.9688C348.325 58.6979 348.534 59.5312 348.346 60.4688C347.93 62.9688 344.95 65.5521 339.409 68.2188C339.784 68.3229 340.211 68.375 340.69 68.375C341.586 68.375 342.815 68.1771 344.378 67.7812C346.148 67.3646 347.242 67.1562 347.659 67.1562C348.45 67.1562 348.773 67.5625 348.628 68.375Z" fill="#38BDF8"/>
<path d="M145.688 57.1875C144.979 61.1875 142.438 64.7917 138.062 68C133.896 71.0417 129.771 72.5625 125.688 72.5625C122.562 72.5625 120.115 71.5625 118.344 69.5625C116.594 67.5208 116 64.9375 116.562 61.8125C116.729 60.7917 117.021 59.6979 117.438 58.5312C117.854 57.3646 118.396 56.1146 119.062 54.7812C119.667 53.6562 120.271 52.5312 120.875 51.4062C121.479 50.2812 122.083 49.1458 122.688 48C123.021 47.3542 123.344 46.7083 123.656 46.0625C123.969 45.4167 124.271 44.7604 124.562 44.0938C125.521 42.5104 126.583 41.7188 127.75 41.7188C128.604 41.7188 128.948 42.1458 128.781 43C128.552 44.0833 127.802 45.8542 126.531 48.3125C126.052 49.2083 125.573 50.1042 125.094 51C124.615 51.875 124.135 52.7812 123.656 53.7188C122.51 56.0104 121.781 58.0521 121.469 59.8438C121.031 62.3229 121.479 64.3229 122.812 65.8438C124.146 67.3438 126.062 68.0938 128.562 68.0938C131.188 68.0938 133.729 67.2396 136.188 65.5312C138.833 63.7188 140.396 61.5417 140.875 59C141.292 56.6875 140.531 54.7083 138.594 53.0625C136.927 51.6875 134.885 50.7812 132.469 50.3438C132.135 50.3229 131.74 50.2917 131.281 50.25C130.823 50.1875 130.292 50.1146 129.688 50.0312C129.062 49.9479 128.792 49.5938 128.875 48.9688C129.083 47.7396 130.031 46.7083 131.719 45.875L136.875 43.9375C139.458 42.875 140.833 41.9688 141 41.2188C141.208 39.9479 140.479 38.9688 138.812 38.2812C137.646 37.7604 136.271 37.5 134.688 37.5C132.146 37.5 129.479 38.1042 126.688 39.3125C123.521 40.6667 121.302 42.3542 120.031 44.375C119.177 45.7292 118.177 46.5104 117.031 46.7188L116.469 46.0312C116.698 44.9896 117.188 43.9375 117.938 42.875C119.917 40.125 122.927 37.8542 126.969 36.0625C130.635 34.3542 134.156 33.5 137.531 33.5C139.594 33.5 141.438 34 143.062 35C145.042 36.1458 145.865 37.6667 145.531 39.5625C145.135 41.9167 142.719 44.3021 138.281 46.7188C144.094 48.6771 146.562 52.1667 145.688 57.1875ZM161.67 62.0938C161.566 62.6979 161.128 63.3229 160.358 63.9688C159.608 64.5938 158.93 64.9062 158.326 64.9062C157.889 64.9062 157.358 64.3229 156.733 63.1562C156.108 61.9688 155.337 61.375 154.42 61.375C152.795 61.375 151.535 62.3542 150.639 64.3125C150.347 65.2083 150.055 66.1042 149.764 67C149.472 67.875 149.18 68.7812 148.889 69.7188C148.118 71.6146 146.993 72.5625 145.514 72.5625C144.785 72.5625 144.493 72.1771 144.639 71.4062C144.743 70.8646 145.014 69.7396 145.451 68.0312C145.91 66.3229 146.576 63.9792 147.451 61C148.16 58.4792 149.045 57.2188 150.108 57.2188C150.524 57.2188 150.785 58 150.889 59.5625C153.097 57.8542 155.201 57 157.201 57C158.597 57 159.753 57.5 160.67 58.5C161.587 59.5 161.92 60.6979 161.67 62.0938ZM171.153 50.875C170.986 51.6875 170.58 52.4688 169.934 53.2188C169.267 53.9688 168.517 54.3438 167.684 54.3438C166.267 54.3438 165.663 53.7396 165.871 52.5312C166.017 51.8229 166.517 51.0938 167.371 50.3438C168.205 49.5729 168.986 49.1875 169.715 49.1875C170.861 49.1875 171.34 49.75 171.153 50.875ZM167.903 58.8125C167.903 58.7292 167.35 60.4375 166.246 63.9375C165.892 65.375 165.33 67.5312 164.559 70.4062C164.434 70.9271 164.017 71.4375 163.309 71.9375C162.58 72.4167 161.965 72.6562 161.465 72.6562C160.861 72.6562 160.684 71.8125 160.934 70.125C161.163 68.9167 161.757 66.8958 162.715 64.0625C163.757 61.0833 164.548 59.1771 165.09 58.3438C165.694 57.4271 166.382 56.9688 167.153 56.9688C167.882 56.9688 168.132 57.5833 167.903 58.8125ZM177.854 38.1875C177.041 42.7292 175.385 50.6042 172.885 61.8125C172.718 62.6458 172.541 63.4792 172.354 64.3125C172.166 65.125 171.989 65.9479 171.822 66.7812C171.322 69.2604 170.895 70.7917 170.541 71.375C169.979 72.3125 169.302 72.7812 168.51 72.7812C167.76 72.7812 167.552 71.7708 167.885 69.75C168.343 67.2917 169 63.9479 169.854 59.7188C170.375 57.2188 170.812 55.1458 171.166 53.5C171.52 51.8333 171.781 50.5521 171.947 49.6562C172.343 47.5938 172.75 45.4375 173.166 43.1875C173.583 40.9167 174.031 38.4688 174.51 35.8438C174.572 35.3646 174.968 34.8229 175.697 34.2188C176.406 33.6354 177.02 33.3438 177.541 33.3438C177.791 33.3438 177.979 33.4271 178.104 33.5938C178.229 33.7396 178.291 34 178.291 34.375C178.312 34.75 178.281 35.25 178.197 35.875C178.114 36.4792 178 37.25 177.854 38.1875ZM184.024 38.1875C183.211 42.7292 181.555 50.6042 179.055 61.8125C178.888 62.6458 178.711 63.4792 178.524 64.3125C178.336 65.125 178.159 65.9479 177.993 66.7812C177.493 69.2604 177.065 70.7917 176.711 71.375C176.149 72.3125 175.472 72.7812 174.68 72.7812C173.93 72.7812 173.722 71.7708 174.055 69.75C174.513 67.2917 175.17 63.9479 176.024 59.7188C176.545 57.2188 176.982 55.1458 177.336 53.5C177.69 51.8333 177.951 50.5521 178.118 49.6562C178.513 47.5938 178.92 45.4375 179.336 43.1875C179.753 40.9167 180.201 38.4688 180.68 35.8438C180.743 35.3646 181.138 34.8229 181.868 34.2188C182.576 33.6354 183.19 33.3438 183.711 33.3438C183.961 33.3438 184.149 33.4271 184.274 33.5938C184.399 33.7396 184.461 34 184.461 34.375C184.482 34.75 184.451 35.25 184.368 35.875C184.284 36.4792 184.17 37.25 184.024 38.1875ZM190.85 67.0938C190.371 67.3438 189.954 67.4688 189.6 67.4688C189.412 67.4688 188.954 67.2604 188.225 66.8438C187.496 66.4062 186.84 66.1875 186.256 66.1875C185.61 66.1875 185.256 66.3854 185.194 66.7812C185.006 67.9062 185.787 68.4688 187.537 68.4688C189.142 68.4688 190.246 68.0104 190.85 67.0938ZM195.912 63.9062C195.475 66.3438 194.152 68.4062 191.944 70.0938C189.735 71.7604 187.371 72.5938 184.85 72.5938C184.183 72.5938 183.569 72.5 183.006 72.3125C182.444 72.1458 181.965 71.8958 181.569 71.5625C181.173 71.2083 180.892 70.7812 180.725 70.2812C180.558 69.7812 180.537 69.1979 180.662 68.5312C180.975 66.7812 181.985 65.25 183.694 63.9375C185.402 62.625 187.142 61.9688 188.912 61.9688C189.142 61.9688 189.381 61.9896 189.631 62.0312C189.902 62.0521 190.183 62.0833 190.475 62.125C189.746 61.4583 188.902 61.125 187.944 61.125C187.423 61.125 186.746 61.3438 185.912 61.7812C185.017 62.1979 184.433 62.4062 184.162 62.4062C183.392 62.4062 183.09 62 183.256 61.1875C183.402 60.2708 184.423 59.3229 186.319 58.3438C188.09 57.4479 189.485 57 190.506 57C192.319 57 193.746 57.6875 194.787 59.0625C195.85 60.4375 196.225 62.0521 195.912 63.9062ZM209.489 62.3438C209.28 63.5938 208.947 64.8646 208.489 66.1562C208.03 67.4479 207.447 68.7917 206.739 70.1875C205.885 71.7292 204.812 72.5 203.52 72.5C202.749 72.5 202.426 72.1042 202.551 71.3125C202.676 70.6667 202.926 69.8646 203.301 68.9062C203.947 67.4271 204.27 66.625 204.27 66.5C204.437 65.9792 204.603 65.4062 204.77 64.7812C204.937 64.1562 205.093 63.4688 205.239 62.7188C205.385 61.6979 205.343 61.1875 205.114 61.1875C204.135 61.1875 202.853 62.5729 201.27 65.3438C199.937 67.7812 199.155 69.6458 198.926 70.9375C198.864 71.3542 198.582 71.75 198.082 72.125C197.582 72.5625 197.135 72.7812 196.739 72.7812C196.447 72.7812 196.228 72.4271 196.082 71.7188C195.916 71.0521 195.864 70.5729 195.926 70.2812C196.176 68.4896 197.124 66.3958 198.77 64C200.416 61.6875 202.072 59.9062 203.739 58.6562C205.301 57.5312 206.562 56.9688 207.52 56.9688C208.416 56.9688 209.041 57.6562 209.395 59.0312C209.645 60.1771 209.676 61.2812 209.489 62.3438ZM224.721 61.5C224.617 62 224.325 62.5521 223.846 63.1562C223.367 63.7188 222.898 64 222.44 64C222.023 64 221.555 63.4583 221.034 62.375C220.513 61.2917 219.721 60.75 218.659 60.75C216.492 60.75 215.242 61.7292 214.909 63.6875C214.68 64.7917 214.867 65.8333 215.471 66.8125C216.075 67.7917 216.898 68.2812 217.94 68.2812C218.586 68.2812 219.325 67.9896 220.159 67.4062C221.013 66.8021 221.648 66.5 222.065 66.5C222.94 66.5 223.294 66.9271 223.128 67.7812C223.065 68.1771 222.763 68.6458 222.221 69.1875C219.992 71.4375 217.7 72.5625 215.346 72.5625C213.555 72.5625 212.18 71.8438 211.221 70.4062C210.367 68.9479 210.107 67.3438 210.44 65.5938C210.836 63.5104 212.003 61.5521 213.94 59.7188C215.898 57.8854 217.93 56.9688 220.034 56.9688C221.492 56.9688 222.669 57.3542 223.565 58.125C224.544 59.0417 224.93 60.1667 224.721 61.5ZM235.423 62.0938C235.464 61.8646 235.381 61.6146 235.173 61.3438C234.985 61.0521 234.787 60.9062 234.579 60.9062C233.808 60.9062 232.829 61.5625 231.641 62.875C230.62 64.0208 229.933 65.0312 229.579 65.9062C233.37 63.9479 235.318 62.6771 235.423 62.0938ZM239.923 68.375C239.693 69.625 238.162 70.6875 235.329 71.5625C233.141 72.1875 231.204 72.5 229.516 72.5C226.037 72.5 224.558 71.0521 225.079 68.1562C225.433 66.0521 226.943 63.6458 229.61 60.9375C232.256 58.25 234.641 56.9062 236.766 56.9062C237.683 56.9062 238.433 57.2604 239.016 57.9688C239.62 58.6979 239.829 59.5312 239.641 60.4688C239.225 62.9688 236.245 65.5521 230.704 68.2188C231.079 68.3229 231.506 68.375 231.985 68.375C232.881 68.375 234.11 68.1771 235.673 67.7812C237.443 67.3646 238.537 67.1562 238.954 67.1562C239.745 67.1562 240.068 67.5625 239.923 68.375Z" fill="#FBC900"/>
<path fill-rule="evenodd" clip-rule="evenodd" d="M51.4764 0.196655C73.8696 0.196655 92.7543 14.1451 98.6039 33.1958L98.6687 33.1963C98.6839 33.2329 98.6991 33.2696 98.7143 33.3063C99.4392 35.0569 100.197 37.549 100.987 40.7827C99.4833 39.8747 97.9483 39.5391 96.3826 39.776C92.0524 40.4312 86.8888 44.6393 84.5759 44.5778C80.4794 44.4689 76.602 42.3051 73.279 42.3051C73.112 42.3051 72.1341 42.6155 71.983 42.6326C71.0431 42.7391 69.4713 43.6497 67.9102 44.6369L67.3266 45.0093C65.5847 46.1287 63.958 47.2302 63.3616 47.278C61.6519 47.4152 60.5736 46.6779 59.1183 46.23C58.7578 46.1191 58.3932 46.0052 58.0274 45.8914L57.2955 45.6651C55.1008 44.9926 52.941 44.4026 51.4761 44.5778C47.1649 45.0933 41.9794 50.2907 39.8401 50.4624C39.1431 50.5183 38.773 50.5408 38.5958 50.544L38.5175 50.5439C38.3959 50.5403 38.4748 50.5169 38.5799 50.4922L38.6443 50.4775C38.8277 50.4362 38.9876 50.4016 38.2884 50.4624C38.1497 50.3794 36.5067 49.7211 34.8506 49.0664L34.3002 48.8491C32.8418 48.2742 31.504 47.7528 31.3339 47.6917C30.4384 47.3695 29.2564 47.3031 28.604 47.278C28.4808 47.2733 28.3807 47.2686 28.297 47.2643L28.0883 47.2532C27.8578 47.241 27.7828 47.2414 27.4353 47.278C26.2264 47.4053 25.0404 48.19 24.0255 49.1639C22.8653 50.2772 19.8978 52.6998 17.7508 52.9233C13.8165 53.3329 9.91561 49.3012 7.12235 49.5397C3.7277 49.8296 2.93708 50.6634 1.78354 51.1967C1.42081 51.3643 1.16558 51.5018 1.01785 51.6091L1.0127 51.6124L1.05532 51.254C2.09063 42.686 3.17813 36.6664 4.31783 33.1954L4.3487 33.1947L4.52804 32.6268C10.5759 13.868 29.3068 0.196655 51.4764 0.196655Z" fill="#FBC900"/>
<path fill-rule="evenodd" clip-rule="evenodd" d="M50.4355 101.803C28.0424 101.803 9.15763 87.8549 3.30808 68.8042L3.24326 68.8037C3.22806 68.7671 3.21286 68.7304 3.19765 68.6937C2.4728 66.9431 1.59508 64.1181 0.564499 60.2184C2.76175 58.9811 4.64323 58.244 6.20894 58.0071C10.5392 57.352 14.0237 60.7166 16.3367 60.7781C20.4332 60.887 25.7044 55.3231 29.0274 55.3231C32.3503 55.3231 34.2882 56.6384 34.42 56.6807C36.7307 57.4222 38.5603 58.1029 39.7531 58.0071C40.1992 57.9713 41.5144 57.7958 42.2709 57.4222C44.4133 56.3643 45.751 55.9202 47.7556 54.722C49.7603 53.5237 52.0103 52.8033 52.9773 52.8033C53.9444 52.8033 54.6879 52.9666 55.6326 53.5237C57.7165 54.7528 60.9573 56.0978 62.0718 55.9883C63.1713 55.8803 66.0369 53.8754 66.6268 53.5237C69.5982 51.7521 71.6628 50.2775 73.308 50.1344C73.4376 50.2119 76.1384 50.4065 78.5582 51.0474C81.3186 51.7786 83.8911 52.9554 84.9756 52.8361C88.3924 52.4603 93.6981 49.0278 95.2732 48.2115C96.5734 47.5377 98.6276 48.1786 101.436 50.1344C100.564 58.7606 99.283 64.947 97.5921 68.6937L97.5435 68.8033L97.5633 68.8032C91.7141 87.8544 72.8291 101.803 50.4355 101.803Z" fill="#89CDE9"/>
<path d="M34.3347 28.9502C34.0808 31.3488 32.7247 33.5888 30.2662 35.6703C27.9243 37.6445 25.544 38.7161 23.1254 38.8852C21.2745 39.0147 19.7832 38.5238 18.6515 37.4125C17.5304 36.2757 17.0717 34.7702 17.2754 32.8959C17.3319 32.2844 17.4593 31.6245 17.6578 30.9162C17.8563 30.2079 18.1253 29.4451 18.465 28.6277C18.7762 27.9364 19.0875 27.245 19.3987 26.5536C19.71 25.8623 20.0208 25.1647 20.3312 24.461C20.5019 24.0647 20.6664 23.6688 20.8247 23.2733C20.9831 22.8778 21.1348 22.4766 21.28 22.0697C21.782 21.0922 22.3786 20.5793 23.0696 20.5309C23.5755 20.4956 23.7968 20.7343 23.7335 21.2471C23.6426 21.8983 23.2717 22.9782 22.6208 24.4869C22.3741 25.0374 22.1274 25.5878 21.8807 26.1383C21.6331 26.6764 21.3868 27.233 21.1419 27.8081C20.5581 29.213 20.2108 30.4525 20.0999 31.5266C19.9434 33.0131 20.2916 34.1792 21.1443 35.0248C21.9962 35.858 23.1625 36.2228 24.6432 36.1193C26.198 36.0106 27.6681 35.3994 29.0534 34.2857C30.5455 33.1026 31.3808 31.7484 31.5593 30.2231C31.7103 28.8361 31.178 27.6954 29.9622 26.8008C28.9181 26.0554 27.6713 25.6032 26.2217 25.4441C26.0234 25.4456 25.7877 25.4435 25.5145 25.4378C25.2404 25.4197 24.9228 25.3986 24.5615 25.3742C24.1878 25.3507 24.0127 25.1522 24.0362 24.7786C24.1087 24.0419 24.6274 23.3918 25.5924 22.8283L28.5663 21.4672C30.0524 20.7309 30.8292 20.1371 30.8969 19.686C30.9677 18.9247 30.4952 18.3749 29.4796 18.0367C28.767 17.7765 27.9418 17.6792 27.004 17.7448C25.4985 17.8501 23.9441 18.3184 22.3406 19.1497C20.5211 20.083 19.2768 21.1744 18.6078 22.4239C18.1579 23.2614 17.598 23.7656 16.9279 23.9364L16.5663 23.5525C16.6589 22.926 16.9053 22.2826 17.3055 21.6222C18.3639 19.9114 20.0529 18.4417 22.3726 17.2131C24.4736 16.0494 26.5236 15.3976 28.5227 15.2578C29.7443 15.1724 30.857 15.3922 31.861 15.9172C33.0807 16.5139 33.6311 17.3806 33.5122 18.5173C33.3752 19.9281 32.0426 21.4411 29.5144 23.0563C33.0382 23.9755 34.645 25.9401 34.3347 28.9502ZM42.8672 31.2738C42.8305 31.6359 42.5973 32.0242 42.1675 32.4387C41.7491 32.8399 41.361 33.0531 41.0032 33.0781C40.744 33.0962 40.4052 32.7727 39.9867 32.1076C39.5673 31.4301 39.0862 31.1104 38.5432 31.1483C37.5807 31.2156 36.8747 31.8478 36.4252 33.0448C36.2896 33.5875 36.1539 34.1302 36.0183 34.6729C35.8818 35.2032 35.7465 35.7521 35.6126 36.3194C35.2346 37.4743 34.6075 38.0823 33.7314 38.1436C33.2995 38.1738 33.1108 37.9576 33.1652 37.495C33.2045 37.1698 33.3183 36.4923 33.5067 35.4623C33.7074 34.4315 34.0052 33.0157 34.4001 31.2148C34.7152 29.6924 35.1874 28.9092 35.8168 28.8652C36.0636 28.8479 36.2502 29.2999 36.3766 30.221C37.6138 29.1177 38.8248 28.5246 40.0094 28.4418C40.8361 28.384 41.5417 28.6322 42.126 29.1866C42.7104 29.7409 42.9575 30.4366 42.8672 31.2738ZM48.0191 24.2361C47.954 24.7243 47.7457 25.2038 47.3943 25.6748C47.0305 26.1466 46.6018 26.3998 46.1082 26.4343C45.2691 26.493 44.8862 26.1602 44.9595 25.4358C45.0166 25.0103 45.2825 24.5577 45.7574 24.0781C46.2191 23.587 46.6658 23.3263 47.0977 23.2961C47.7764 23.2487 48.0835 23.562 48.0191 24.2361ZM46.4228 29.0721C46.4194 29.0228 46.1631 30.0575 45.6541 32.1763C45.5038 33.0424 45.26 34.3428 44.9225 36.0776C44.87 36.3913 44.6444 36.7109 44.2455 37.0364C43.8335 37.3504 43.4794 37.5177 43.1832 37.5385C42.8254 37.5635 42.6856 37.0711 42.7637 36.0612C42.8494 35.336 43.1174 34.1145 43.5677 32.3966C44.0613 30.5889 44.4512 29.427 44.7376 28.911C45.0574 28.343 45.4457 28.0431 45.9022 28.0111C46.3341 27.9809 46.5076 28.3346 46.4228 29.0721ZM51.4627 16.4437C51.1696 19.1674 50.5148 23.9004 49.4982 30.6427C49.434 31.1432 49.3637 31.6441 49.2871 32.1454C49.2097 32.6344 49.1389 33.1292 49.0747 33.6297C48.8812 35.1188 48.6917 36.0435 48.5061 36.4036C48.2117 36.9822 47.8301 37.2879 47.3612 37.3207C46.917 37.3518 46.7517 36.7619 46.8655 35.5512C47.0351 34.0761 47.2853 32.0684 47.6161 29.5281C47.821 28.0258 47.9943 26.7798 48.1359 25.7903C48.2767 24.7885 48.3778 24.0188 48.4395 23.4813C48.5885 22.2433 48.7398 20.9493 48.8934 19.5994C49.0461 18.2371 49.2101 16.7686 49.3852 15.194C49.4023 14.9076 49.6143 14.5704 50.0212 14.1823C50.4166 13.8075 50.7685 13.6092 51.077 13.5877C51.2251 13.5773 51.3396 13.6189 51.4206 13.7125C51.5006 13.7937 51.5484 13.9453 51.564 14.1674C51.5918 14.3887 51.594 14.6861 51.5706 15.0598C51.5462 15.4211 51.5103 15.8824 51.4627 16.4437ZM55.1173 16.1882C54.8241 18.9119 54.1693 23.6448 53.1527 30.3871C53.0885 30.8876 53.0182 31.3885 52.9416 31.8899C52.8642 32.3789 52.7934 32.8736 52.7292 33.3741C52.5357 34.8633 52.3462 35.7879 52.1606 36.1481C51.8662 36.7267 51.4846 37.0324 51.0157 37.0652C50.5715 37.0962 50.4062 36.5064 50.52 35.2956C50.6896 33.8206 50.9398 31.8129 51.2706 29.2725C51.4755 27.7702 51.6488 26.5243 51.7904 25.5348C51.9312 24.5329 52.0324 23.7633 52.094 23.2258C52.243 21.9877 52.3943 20.6938 52.5479 19.3438C52.7007 17.9815 52.8646 16.5131 53.0397 14.9384C53.0568 14.652 53.2689 14.3148 53.6757 13.9268C54.0711 13.5519 54.423 13.3537 54.7315 13.3321C54.8796 13.3218 54.9941 13.3634 55.0751 13.4569C55.1551 13.5381 55.2029 13.6898 55.2185 13.9119C55.2463 14.1331 55.2485 14.4306 55.2251 14.8042C55.2007 15.1655 55.1648 15.6268 55.1173 16.1882ZM60.3577 33.0267C60.0842 33.1946 59.8426 33.2859 59.6329 33.3006C59.5218 33.3084 59.2417 33.2039 58.7926 32.9873C58.3425 32.7584 57.9448 32.656 57.5993 32.6802C57.2167 32.7069 57.0152 32.8388 56.9945 33.0759C56.9301 33.75 57.4161 34.0508 58.4526 33.9783C59.4028 33.9119 60.0378 33.5947 60.3577 33.0267ZM63.2242 30.9291C63.066 32.3909 62.3679 33.6673 61.1298 34.7583C59.8908 35.837 58.5248 36.4285 57.0317 36.5329C56.6368 36.5605 56.2689 36.5304 55.928 36.4427C55.5879 36.3672 55.2937 36.239 55.0455 36.058C54.7963 35.8646 54.6121 35.6233 54.4926 35.334C54.3732 35.0448 54.3367 34.7001 54.3831 34.3001C54.4958 33.2506 55.0308 32.3018 55.9883 31.4536C56.9458 30.6055 57.949 30.1447 58.9978 30.0714C59.1336 30.0619 59.2764 30.0643 59.4262 30.0786C59.5874 30.0798 59.7553 30.0866 59.9298 30.0992C59.4703 29.7346 58.9567 29.5721 58.3891 29.6118C58.0806 29.6333 57.6886 29.7909 57.2132 30.0846C56.6998 30.3685 56.3629 30.516 56.2025 30.5273C55.746 30.5592 55.5502 30.3311 55.6153 29.8429C55.6637 29.2939 56.2291 28.6902 57.3114 28.0317C58.3232 27.4278 59.1314 27.1047 59.736 27.0624C60.8096 26.9873 61.6833 27.3354 62.3573 28.1067C63.0435 28.8771 63.3325 29.8179 63.2242 30.9291ZM71.2008 29.4413C71.1291 30.1903 70.9843 30.9568 70.7664 31.7409C70.5484 32.5249 70.2585 33.345 69.8968 34.2011C69.4547 35.1496 68.8512 35.6506 68.0861 35.7041C67.6295 35.736 67.4219 35.5149 67.4631 35.0408C67.5104 34.6531 67.6253 34.1677 67.8077 33.5845C68.129 32.6817 68.287 32.1932 68.2818 32.1192C68.359 31.8038 68.434 31.4576 68.5068 31.0805C68.5796 30.7034 68.6437 30.2897 68.699 29.8394C68.7431 29.2287 68.6973 28.9281 68.5615 28.9376C67.9816 28.9782 67.2801 29.8518 66.457 31.5586C65.7682 33.0576 65.3827 34.1943 65.3005 34.9689C65.2807 35.2183 65.1305 35.4644 64.8499 35.7072C64.5719 35.987 64.3156 36.1351 64.0812 36.1515C63.9084 36.1636 63.7642 35.9629 63.6485 35.5494C63.5222 35.1614 63.4715 34.8798 63.4964 34.7044C63.5703 33.6329 64.045 32.3535 64.9206 30.8662C65.7997 29.4284 66.7069 28.3047 67.6423 27.4953C68.5212 26.7643 69.2444 26.3789 69.812 26.3392C70.3427 26.3021 70.7413 26.6834 71.008 27.4832C71.2036 28.1515 71.2678 28.8042 71.2008 29.4413ZM80.1881 28.3106C80.1471 28.6111 79.9972 28.9502 79.7384 29.3279C79.4779 29.6809 79.2119 29.8669 78.9404 29.8859C78.6936 29.9031 78.3936 29.6017 78.0402 28.9816C77.6868 28.3615 77.1955 28.0735 76.5662 28.1175C75.2829 28.2072 74.583 28.839 74.4667 30.0127C74.3767 30.6762 74.5309 31.2854 74.9293 31.8404C75.3277 32.3953 75.8354 32.6512 76.4524 32.6081C76.8349 32.5813 77.2609 32.3779 77.7303 31.9979C78.2112 31.6047 78.5751 31.3994 78.8219 31.3822C79.3401 31.3459 79.5676 31.5842 79.5043 32.097C79.4836 32.3341 79.3241 32.6242 79.0257 32.9675C77.7986 34.3925 76.4878 35.1538 75.0934 35.2513C74.0322 35.3255 73.188 34.9567 72.5609 34.145C71.9945 33.3166 71.7739 32.3772 71.8988 31.3269C72.047 30.0765 72.6569 28.8683 73.7285 27.7021C74.8125 26.5351 75.9777 25.908 77.224 25.8209C78.0878 25.7605 78.8009 25.94 79.3634 26.3595C79.9814 26.8619 80.2563 27.5123 80.1881 28.3106ZM86.5511 28.2191C86.5663 28.0816 86.5065 27.937 86.3719 27.7852C86.2488 27.6202 86.1255 27.542 86.0021 27.5507C85.5456 27.5826 84.9928 28.0119 84.3438 28.8384C83.7866 29.5594 83.4212 30.1863 83.2477 30.7193C85.4124 29.4023 86.5135 28.5689 86.5511 28.2191ZM89.4766 31.7531C89.3926 32.503 88.5297 33.1957 86.8877 33.8313C85.6179 34.2921 84.4833 34.5575 83.4838 34.6274C81.4231 34.7715 80.487 33.9751 80.6755 32.2383C80.7981 30.9774 81.5931 29.4896 83.0604 27.775C84.5162 26.0736 85.8735 25.1789 87.1321 25.0909C87.6751 25.0529 88.134 25.2316 88.5088 25.627C88.8969 26.0339 89.0548 26.5188 88.9825 27.0819C88.8393 28.5799 87.1817 30.2334 84.0098 32.0424C84.2363 32.0886 84.4914 32.1017 84.7752 32.0819C85.3058 32.0448 86.0256 31.8766 86.9347 31.5775C87.9663 31.2573 88.6055 31.0886 88.8523 31.0714C89.3212 31.0386 89.5293 31.2658 89.4766 31.7531Z" fill="white"/>
<path d="M24.9243 89.1969L24.9039 88.9634L24.9243 89.1969ZM43.8821 73.0496C43.687 75.3017 42.7357 77.2018 41.0282 78.7497C39.3455 80.2824 37.3627 81.1486 35.0797 81.3483C32.6671 81.5594 30.8677 81.1613 29.6817 80.1541C29.5124 80.0121 29.4429 79.8156 29.4732 79.5646C29.4911 79.1709 29.7283 78.7449 30.1849 78.2867C30.6415 77.8285 31.0708 77.5818 31.4729 77.5467C31.4989 77.5444 31.6249 77.566 31.8511 77.6116C33.7172 78.3241 35.2664 78.6264 36.4986 78.5186C39.2875 78.2746 40.7904 76.9276 41.0073 74.4774C41.1693 72.5942 40.6634 70.9197 39.4895 69.4539C38.2462 67.9419 36.7036 67.2665 34.8617 67.4276C30.9703 67.7681 28.591 72.9169 27.7238 82.8742C27.638 83.8358 27.5586 84.6466 27.4856 85.3065C27.4127 85.9664 27.3402 86.4825 27.2682 86.8548C26.8638 88.9553 26.253 90.0413 25.4358 90.1128C25.0985 90.1423 24.9281 89.837 24.9243 89.1969L25.144 87.0014C25.1591 86.7256 25.1809 86.3774 25.2094 85.9566C25.238 85.5358 25.2732 85.0426 25.3152 84.4769C25.3679 83.8841 25.4091 83.3838 25.4388 82.976C25.4673 82.5553 25.4956 82.2064 25.5237 81.9295C25.7407 79.4794 26.0368 77.4864 26.4122 75.9504C27.1174 73.1047 28.2131 70.6888 29.6993 68.7027C31.5349 66.2287 33.6785 64.8844 36.1301 64.6699C38.4001 64.4713 40.3102 65.2387 41.8604 66.9722C43.4117 68.7186 44.0856 70.7444 43.8821 73.0496ZM47.6611 74.5619C47.6016 75.0769 47.3912 75.5854 47.03 76.0876C46.6557 76.5909 46.2092 76.8652 45.6903 76.9106C44.8083 76.9878 44.3992 76.6445 44.4631 75.8808C44.5153 75.4318 44.7869 74.9506 45.2779 74.4371C45.7548 73.9118 46.2202 73.6293 46.6742 73.5895C47.3876 73.5271 47.7166 73.8512 47.6611 74.5619ZM46.07 79.681C46.0654 79.6291 45.8147 80.7228 45.3179 82.9622C45.1757 83.8765 44.9429 85.2496 44.6196 87.0817C44.5702 87.4128 44.3385 87.7533 43.9248 88.1031C43.4969 88.4412 43.1273 88.6239 42.8159 88.6511C42.4398 88.684 42.2836 88.1683 42.3473 87.104C42.4242 86.3392 42.6838 85.0486 43.1261 83.2323C43.6124 81.3207 44.0015 80.0907 44.2933 79.5424C44.6195 78.9387 45.0226 78.6159 45.5026 78.5739C45.9566 78.5342 46.1457 78.9032 46.07 79.681ZM55.1666 79.0028C55.1504 79.2656 54.9838 79.5285 54.667 79.7915C54.3502 80.0545 54.0621 80.1974 53.8026 80.22C53.6729 80.2314 53.5173 80.245 53.3357 80.2609C53.1659 80.2627 52.9572 80.2679 52.7096 80.2765C52.2393 80.2784 51.8809 80.2902 51.6344 80.3117C50.9469 80.3719 50.3162 80.5578 49.7422 80.8694C50.101 81.0863 50.4663 81.3027 50.8381 81.5185C51.2088 81.7214 51.5859 81.9236 51.9695 82.1253C52.7233 82.6737 53.0621 83.4087 52.9859 84.3303C52.8889 85.4629 52.2385 86.3955 51.0348 87.1282C50.0143 87.7142 48.9009 88.0599 47.6945 88.1655C47.461 88.1859 46.9926 88.1354 46.2893 88.0139C45.6011 87.9173 45.2621 87.777 45.2721 87.5931C45.2816 87.2525 45.4714 86.883 45.8418 86.4846C46.2121 86.0862 46.5684 85.8263 46.9107 85.7049C47.1797 85.6421 47.5023 85.5943 47.8784 85.5614L49.0069 85.4627C49.1366 85.4513 49.3281 85.4738 49.5814 85.53C49.8347 85.5863 50.0261 85.6088 50.1559 85.5974C50.2467 85.5895 50.3039 85.5714 50.3276 85.5432C50.3662 84.9386 49.7641 84.3312 48.5213 83.721C47.2643 83.099 46.6656 82.5306 46.7252 82.0156C46.8059 81.1459 47.6218 80.238 49.1729 79.2919C50.5914 78.4751 51.7677 78.0258 52.7016 77.9441C53.0129 77.9168 53.4977 78.0051 54.156 78.2089C54.8437 78.4494 55.1805 78.714 55.1666 79.0028ZM62.5407 79.9261C62.5031 80.2431 62.3516 80.6027 62.0862 81.005C61.8185 81.3813 61.5419 81.582 61.2566 81.6069C60.9971 81.6296 60.6758 81.3179 60.2925 80.6718C59.9092 80.0256 59.3868 79.7315 58.7252 79.7894C57.3762 79.9074 56.6513 80.5851 56.5504 81.8226C56.4679 82.5226 56.6414 83.1609 57.0709 83.7377C57.5004 84.3144 58.0394 84.5744 58.688 84.5176C59.0901 84.4825 59.5347 84.2606 60.0217 83.852C60.5207 83.4293 60.8998 83.2066 61.1593 83.1839C61.704 83.1362 61.9478 83.3829 61.8906 83.9238C61.8732 84.1736 61.7107 84.4819 61.4029 84.8487C60.1376 86.371 58.772 87.1963 57.3062 87.3245C56.1907 87.4221 55.2955 87.0495 54.6205 86.2067C54.0092 85.3452 53.7597 84.3606 53.8719 83.2529C54.0049 81.9342 54.6246 80.6514 55.7311 79.4043C56.8505 78.1562 58.0653 77.4748 59.3754 77.3602C60.2834 77.2808 61.0372 77.4566 61.637 77.8877C62.2966 78.4051 62.5978 79.0846 62.5407 79.9261ZM67.2348 72.8494C67.1753 73.3644 66.9649 73.8729 66.6036 74.3751C66.2294 74.8784 65.7829 75.1527 65.264 75.1981C64.382 75.2753 63.9729 74.932 64.0368 74.1683C64.089 73.7194 64.3606 73.2381 64.8516 72.7246C65.3284 72.1993 65.7939 71.9168 66.2478 71.8771C66.9613 71.8147 67.2902 72.1388 67.2348 72.8494ZM65.6436 77.9685C65.6391 77.9166 65.3884 79.0104 64.8916 81.2497C64.7494 82.164 64.5166 83.5372 64.1933 85.3692C64.1438 85.7003 63.9122 86.0408 63.4984 86.3907C63.0705 86.7287 62.7009 86.9114 62.3896 86.9386C62.0134 86.9715 61.8572 86.4558 61.921 85.3915C61.9978 84.6267 62.2574 83.3362 62.6998 81.5199C63.1861 79.6082 63.5751 78.3782 63.867 77.8299C64.1932 77.2262 64.5963 76.9034 65.0762 76.8614C65.5302 76.8217 65.7194 77.1907 65.6436 77.9685ZM72.6265 79.5731C72.5648 80.3627 72.4265 81.1721 72.2115 82.0013C71.9965 82.8305 71.7065 83.6989 71.3415 84.6066C70.8937 85.613 70.2676 86.1513 69.4634 86.2217C68.9835 86.2637 68.7609 86.0348 68.7956 85.5351C68.8382 85.1262 68.9502 84.6132 69.1315 83.9961C69.453 83.0399 69.6104 82.523 69.6036 82.4451C69.679 82.1118 69.7515 81.746 69.8212 81.3478C69.891 80.9495 69.9508 80.513 70.0007 80.0381C70.0359 79.3945 69.9822 79.079 69.8395 79.0915C69.2299 79.1448 68.5076 80.0772 67.6727 81.8886C66.9753 83.4789 66.5905 84.6824 66.5181 85.4991C66.5019 85.7619 66.3484 86.0237 66.0575 86.2844C65.77 86.5841 65.503 86.7447 65.2566 86.7662C65.075 86.7821 64.9195 86.5735 64.7901 86.1404C64.65 85.7344 64.5915 85.4389 64.6145 85.2539C64.6726 84.1248 65.1487 82.7695 66.043 81.1882C66.9417 79.6587 67.8759 78.4594 68.8455 77.5904C69.7571 76.8048 70.5112 76.3859 71.1079 76.3337C71.6657 76.2849 72.0922 76.6789 72.3877 77.5157C72.6057 78.2156 72.6853 78.9013 72.6265 79.5731ZM78.0413 78.9425C78.0548 78.7975 77.9893 78.6464 77.8448 78.4891C77.7122 78.3178 77.581 78.2377 77.4513 78.2491C76.9714 78.2911 76.3975 78.753 75.7296 79.6349C75.1564 80.4039 74.7834 81.0705 74.6106 81.6346C76.8647 80.2087 78.0082 79.3114 78.0413 78.9425ZM81.1853 82.6082C81.1107 83.399 80.2152 84.1439 78.4987 84.843C77.1708 85.3513 75.9815 85.6515 74.9308 85.7434C72.7646 85.9329 71.7648 85.112 71.9313 83.2806C72.0372 81.9512 72.8466 80.3707 74.3594 78.5392C75.8603 76.7218 77.2723 75.7552 78.5954 75.6394C79.1661 75.5895 79.6524 75.7692 80.0542 76.1784C80.4701 76.5995 80.6452 77.107 80.5795 77.7009C80.4563 79.2802 78.7421 81.0509 75.437 83.0131C75.6761 83.0575 75.9449 83.0667 76.2432 83.0406C76.801 82.9918 77.5555 82.8016 78.5068 82.47C79.5867 82.1141 80.2563 81.9249 80.5157 81.9022C81.0086 81.859 81.2318 82.0944 81.1853 82.6082Z" fill="white"/>
</svg>
