<svg width="336" height="102" viewBox="0 0 336 102" fill="none" xmlns="http://www.w3.org/2000/svg">
<path d="M233.514 71.0312V70.6562V71.0312ZM265.983 47.9375C265.358 51.5 263.576 54.3958 260.639 56.625C257.743 58.8333 254.462 59.9375 250.795 59.9375C246.92 59.9375 244.108 59.0521 242.358 57.2812C242.108 57.0312 242.024 56.7083 242.108 56.3125C242.191 55.6875 242.628 55.0417 243.42 54.375C244.212 53.7083 244.93 53.375 245.576 53.375C245.618 53.375 245.816 53.4271 246.17 53.5312C249.045 54.9271 251.472 55.625 253.451 55.625C257.93 55.625 260.514 53.6875 261.201 49.8125C261.722 46.8333 261.149 44.0938 259.483 41.5938C257.712 39.0104 255.347 37.7188 252.389 37.7188C246.139 37.7188 241.628 45.5938 238.858 61.3438C238.587 62.8646 238.347 64.1458 238.139 65.1875C237.93 66.2292 237.743 67.0417 237.576 67.625C236.639 70.9167 235.514 72.5625 234.201 72.5625C233.66 72.5625 233.43 72.0521 233.514 71.0312L234.17 67.5625C234.233 67.125 234.316 66.5729 234.42 65.9062C234.524 65.2396 234.649 64.4583 234.795 63.5625C234.962 62.625 235.097 61.8333 235.201 61.1875C235.305 60.5208 235.399 59.9688 235.483 59.5312C236.17 55.6562 236.92 52.5208 237.733 50.125C239.253 45.6875 241.337 41.9896 243.983 39.0312C247.253 35.3438 250.858 33.5 254.795 33.5C258.441 33.5 261.378 34.9896 263.608 37.9688C265.837 40.9688 266.628 44.2917 265.983 47.9375ZM273.715 50.875C273.548 51.6875 273.142 52.4688 272.496 53.2188C271.83 53.9688 271.08 54.3438 270.246 54.3438C268.83 54.3438 268.225 53.7396 268.434 52.5312C268.58 51.8229 269.08 51.0938 269.934 50.3438C270.767 49.5729 271.548 49.1875 272.278 49.1875C273.423 49.1875 273.903 49.75 273.715 50.875ZM270.465 58.8125C270.465 58.7292 269.913 60.4375 268.809 63.9375C268.455 65.375 267.892 67.5312 267.121 70.4062C266.996 70.9271 266.58 71.4375 265.871 71.9375C265.142 72.4167 264.528 72.6562 264.028 72.6562C263.423 72.6562 263.246 71.8125 263.496 70.125C263.725 68.9167 264.319 66.8958 265.278 64.0625C266.319 61.0833 267.111 59.1771 267.653 58.3438C268.257 57.4271 268.944 56.9688 269.715 56.9688C270.444 56.9688 270.694 57.5833 270.465 58.8125ZM286.979 59C286.916 59.4167 286.614 59.8125 286.072 60.1875C285.531 60.5625 285.052 60.75 284.635 60.75C284.427 60.75 284.177 60.75 283.885 60.75C283.614 60.7292 283.281 60.7083 282.885 60.6875C282.135 60.625 281.562 60.5938 281.166 60.5938C280.062 60.5938 279.031 60.8021 278.072 61.2188C278.614 61.6146 279.166 62.0104 279.729 62.4062C280.291 62.7812 280.864 63.1562 281.447 63.5312C282.572 64.5104 283.01 65.7292 282.76 67.1875C282.447 68.9792 281.281 70.375 279.26 71.375C277.552 72.1667 275.729 72.5625 273.791 72.5625C273.416 72.5625 272.677 72.4167 271.572 72.125C270.489 71.875 269.968 71.6042 270.01 71.3125C270.072 70.7708 270.427 70.2083 271.072 69.625C271.718 69.0417 272.322 68.6771 272.885 68.5312C273.322 68.4688 273.843 68.4375 274.447 68.4375H276.26C276.468 68.4375 276.77 68.5 277.166 68.625C277.562 68.75 277.864 68.8125 278.072 68.8125C278.218 68.8125 278.312 68.7917 278.354 68.75C278.5 67.7917 277.625 66.7396 275.729 65.5938C273.812 64.4271 272.937 63.4375 273.104 62.625C273.354 61.25 274.781 59.9167 277.385 58.625C279.76 57.5208 281.697 56.9688 283.197 56.9688C283.697 56.9688 284.458 57.1771 285.479 57.5938C286.541 58.0729 287.041 58.5417 286.979 59ZM300.524 61.5C300.42 62 300.128 62.5521 299.649 63.1562C299.17 63.7188 298.701 64 298.243 64C297.826 64 297.357 63.4583 296.836 62.375C296.315 61.2917 295.524 60.75 294.461 60.75C292.295 60.75 291.045 61.7292 290.711 63.6875C290.482 64.7917 290.67 65.8333 291.274 66.8125C291.878 67.7917 292.701 68.2812 293.743 68.2812C294.388 68.2812 295.128 67.9896 295.961 67.4062C296.815 66.8021 297.451 66.5 297.868 66.5C298.743 66.5 299.097 66.9271 298.93 67.7812C298.868 68.1771 298.565 68.6458 298.024 69.1875C295.795 71.4375 293.503 72.5625 291.149 72.5625C289.357 72.5625 287.982 71.8438 287.024 70.4062C286.17 68.9479 285.909 67.3438 286.243 65.5938C286.638 63.5104 287.805 61.5521 289.743 59.7188C291.701 57.8854 293.732 56.9688 295.836 56.9688C297.295 56.9688 298.472 57.3542 299.368 58.125C300.347 59.0417 300.732 60.1667 300.524 61.5ZM310.912 50.875C310.746 51.6875 310.34 52.4688 309.694 53.2188C309.027 53.9688 308.277 54.3438 307.444 54.3438C306.027 54.3438 305.423 53.7396 305.631 52.5312C305.777 51.8229 306.277 51.0938 307.131 50.3438C307.965 49.5729 308.746 49.1875 309.475 49.1875C310.621 49.1875 311.1 49.75 310.912 50.875ZM307.662 58.8125C307.662 58.7292 307.11 60.4375 306.006 63.9375C305.652 65.375 305.09 67.5312 304.319 70.4062C304.194 70.9271 303.777 71.4375 303.069 71.9375C302.34 72.4167 301.725 72.6562 301.225 72.6562C300.621 72.6562 300.444 71.8125 300.694 70.125C300.923 68.9167 301.517 66.8958 302.475 64.0625C303.517 61.0833 304.308 59.1771 304.85 58.3438C305.454 57.4271 306.142 56.9688 306.912 56.9688C307.642 56.9688 307.892 57.5833 307.662 58.8125ZM320.489 62.3438C320.28 63.5938 319.947 64.8646 319.489 66.1562C319.03 67.4479 318.447 68.7917 317.739 70.1875C316.885 71.7292 315.812 72.5 314.52 72.5C313.749 72.5 313.426 72.1042 313.551 71.3125C313.676 70.6667 313.926 69.8646 314.301 68.9062C314.947 67.4271 315.27 66.625 315.27 66.5C315.437 65.9792 315.603 65.4062 315.77 64.7812C315.937 64.1562 316.093 63.4688 316.239 62.7188C316.385 61.6979 316.343 61.1875 316.114 61.1875C315.135 61.1875 313.853 62.5729 312.27 65.3438C310.937 67.7812 310.155 69.6458 309.926 70.9375C309.864 71.3542 309.582 71.75 309.082 72.125C308.582 72.5625 308.135 72.7812 307.739 72.7812C307.447 72.7812 307.228 72.4271 307.082 71.7188C306.916 71.0521 306.864 70.5729 306.926 70.2812C307.176 68.4896 308.124 66.3958 309.77 64C311.416 61.6875 313.072 59.9062 314.739 58.6562C316.301 57.5312 317.562 56.9688 318.52 56.9688C319.416 56.9688 320.041 57.6562 320.395 59.0312C320.645 60.1771 320.676 61.2812 320.489 62.3438ZM331.128 62.0938C331.169 61.8646 331.086 61.6146 330.878 61.3438C330.69 61.0521 330.492 60.9062 330.284 60.9062C329.513 60.9062 328.534 61.5625 327.346 62.875C326.325 64.0208 325.638 65.0312 325.284 65.9062C329.075 63.9479 331.023 62.6771 331.128 62.0938ZM335.628 68.375C335.398 69.625 333.867 70.6875 331.034 71.5625C328.846 72.1875 326.909 72.5 325.221 72.5C321.742 72.5 320.263 71.0521 320.784 68.1562C321.138 66.0521 322.648 63.6458 325.315 60.9375C327.961 58.25 330.346 56.9062 332.471 56.9062C333.388 56.9062 334.138 57.2604 334.721 57.9688C335.325 58.6979 335.534 59.5312 335.346 60.4688C334.93 62.9688 331.95 65.5521 326.409 68.2188C326.784 68.3229 327.211 68.375 327.69 68.375C328.586 68.375 329.815 68.1771 331.378 67.7812C333.148 67.3646 334.242 67.1562 334.659 67.1562C335.45 67.1562 335.773 67.5625 335.628 68.375Z" fill="#38BDF8"/>
<path d="M153.625 53.875C153.479 54.7083 153.271 55.7396 153 56.9688C152.729 58.1979 152.396 59.6562 152 61.3438C151.604 62.9896 151.271 64.4271 151 65.6562C150.729 66.8854 150.521 67.9167 150.375 68.75C150.292 69.0833 150.219 69.375 150.156 69.625C150.094 69.8542 150.021 70.0417 149.938 70.1875C149.688 70.7708 149.198 71.3646 148.469 71.9688C147.74 72.5104 147.073 72.7812 146.469 72.7812C145.677 72.7812 145.365 72.375 145.531 71.5625C145.719 70.5 145.969 69.2188 146.281 67.7188C146.594 66.2188 146.979 64.4375 147.438 62.375C148.333 58.3125 148.958 55.25 149.312 53.1875C151.125 42.9375 150.427 37.8125 147.219 37.8125C144.26 37.8125 141.583 41.0625 139.188 47.5625C137.667 51.5833 136.448 56.0625 135.531 61C135.49 61.1667 135.448 61.4271 135.406 61.7812C135.385 62.1146 135.344 62.4688 135.281 62.8438C135.24 63.2188 135.198 63.5833 135.156 63.9375C135.115 64.2708 135.083 64.5208 135.062 64.6875C134.896 65.4375 134.427 66.1562 133.656 66.8438C132.865 67.5104 132.104 67.8438 131.375 67.8438C130.5 67.8438 130.271 66.5938 130.688 64.0938L131.188 61.2812C131.458 60.0312 131.646 59.0938 131.75 58.4688C134.25 44.3854 133.969 37.3438 130.906 37.3438C130.344 37.3438 129.469 37.9792 128.281 39.25C123.844 44.1875 120.49 53.0417 118.219 65.8125C118.177 66.1042 118.125 66.4792 118.062 66.9375C118 67.375 117.927 67.8854 117.844 68.4688C117.677 69.6562 117.552 70.5312 117.469 71.0938C117.406 71.5312 117.146 71.9375 116.688 72.3125C116.25 72.75 115.833 72.9688 115.438 72.9688C114.938 72.9688 114.635 72.7292 114.531 72.25C114.323 70.8125 114.5 68.4583 115.062 65.1875C117.354 52.1458 121.031 42.9167 126.094 37.5C128.677 34.7292 131.062 33.3438 133.25 33.3438C136 33.3438 137.375 36.7188 137.375 43.4688C139.438 39.8229 141.833 37.1042 144.562 35.3125C146.604 34.0208 148.385 33.375 149.906 33.375C154.802 33.375 156.042 40.2083 153.625 53.875ZM163.107 50.875C162.941 51.6875 162.535 52.4688 161.889 53.2188C161.222 53.9688 160.472 54.3438 159.639 54.3438C158.222 54.3438 157.618 53.7396 157.826 52.5312C157.972 51.8229 158.472 51.0938 159.326 50.3438C160.16 49.5729 160.941 49.1875 161.67 49.1875C162.816 49.1875 163.295 49.75 163.107 50.875ZM159.857 58.8125C159.857 58.7292 159.305 60.4375 158.201 63.9375C157.847 65.375 157.285 67.5312 156.514 70.4062C156.389 70.9271 155.972 71.4375 155.264 71.9375C154.535 72.4167 153.92 72.6562 153.42 72.6562C152.816 72.6562 152.639 71.8125 152.889 70.125C153.118 68.9167 153.712 66.8958 154.67 64.0625C155.712 61.0833 156.503 59.1771 157.045 58.3438C157.649 57.4271 158.337 56.9688 159.107 56.9688C159.837 56.9688 160.087 57.5833 159.857 58.8125ZM172.684 62.3438C172.475 63.5938 172.142 64.8646 171.684 66.1562C171.225 67.4479 170.642 68.7917 169.934 70.1875C169.08 71.7292 168.007 72.5 166.715 72.5C165.944 72.5 165.621 72.1042 165.746 71.3125C165.871 70.6667 166.121 69.8646 166.496 68.9062C167.142 67.4271 167.465 66.625 167.465 66.5C167.632 65.9792 167.798 65.4062 167.965 64.7812C168.132 64.1562 168.288 63.4688 168.434 62.7188C168.58 61.6979 168.538 61.1875 168.309 61.1875C167.33 61.1875 166.048 62.5729 164.465 65.3438C163.132 67.7812 162.35 69.6458 162.121 70.9375C162.059 71.3542 161.778 71.75 161.278 72.125C160.778 72.5625 160.33 72.7812 159.934 72.7812C159.642 72.7812 159.423 72.4271 159.278 71.7188C159.111 71.0521 159.059 70.5729 159.121 70.2812C159.371 68.4896 160.319 66.3958 161.965 64C163.611 61.6875 165.267 59.9062 166.934 58.6562C168.496 57.5312 169.757 56.9688 170.715 56.9688C171.611 56.9688 172.236 57.6562 172.59 59.0312C172.84 60.1771 172.871 61.2812 172.684 62.3438ZM183.322 62.0938C183.364 61.8646 183.281 61.6146 183.072 61.3438C182.885 61.0521 182.687 60.9062 182.479 60.9062C181.708 60.9062 180.729 61.5625 179.541 62.875C178.52 64.0208 177.833 65.0312 177.479 65.9062C181.27 63.9479 183.218 62.6771 183.322 62.0938ZM187.822 68.375C187.593 69.625 186.062 70.6875 183.229 71.5625C181.041 72.1875 179.104 72.5 177.416 72.5C173.937 72.5 172.458 71.0521 172.979 68.1562C173.333 66.0521 174.843 63.6458 177.51 60.9375C180.156 58.25 182.541 56.9062 184.666 56.9062C185.583 56.9062 186.333 57.2604 186.916 57.9688C187.52 58.6979 187.729 59.5312 187.541 60.4688C187.125 62.9688 184.145 65.5521 178.604 68.2188C178.979 68.3229 179.406 68.375 179.885 68.375C180.781 68.375 182.01 68.1771 183.572 67.7812C185.343 67.3646 186.437 67.1562 186.854 67.1562C187.645 67.1562 187.968 67.5625 187.822 68.375ZM189.541 48.1562C189.52 48.2812 189.427 48.4896 189.26 48.7812C188.989 49.3646 187.968 50.3646 186.197 51.7812C183.281 54.0938 181.531 55.25 180.947 55.25C180.093 55.25 179.76 54.8229 179.947 53.9688C180.031 53.2812 181.562 51.6979 184.541 49.2188C186.416 47.6562 187.708 46.875 188.416 46.875C189.333 46.875 189.708 47.3021 189.541 48.1562ZM204.93 62.0938C204.826 62.6979 204.388 63.3229 203.618 63.9688C202.868 64.5938 202.19 64.9062 201.586 64.9062C201.149 64.9062 200.618 64.3229 199.993 63.1562C199.368 61.9688 198.597 61.375 197.68 61.375C196.055 61.375 194.795 62.3542 193.899 64.3125C193.607 65.2083 193.315 66.1042 193.024 67C192.732 67.875 192.44 68.7812 192.149 69.7188C191.378 71.6146 190.253 72.5625 188.774 72.5625C188.045 72.5625 187.753 72.1771 187.899 71.4062C188.003 70.8646 188.274 69.7396 188.711 68.0312C189.17 66.3229 189.836 63.9792 190.711 61C191.42 58.4792 192.305 57.2188 193.368 57.2188C193.784 57.2188 194.045 58 194.149 59.5625C196.357 57.8542 198.461 57 200.461 57C201.857 57 203.013 57.5 203.93 58.5C204.847 59.5 205.18 60.6979 204.93 62.0938ZM214.912 67.0938C214.433 67.3438 214.017 67.4688 213.662 67.4688C213.475 67.4688 213.017 67.2604 212.287 66.8438C211.558 66.4062 210.902 66.1875 210.319 66.1875C209.673 66.1875 209.319 66.3854 209.256 66.7812C209.069 67.9062 209.85 68.4688 211.6 68.4688C213.204 68.4688 214.308 68.0104 214.912 67.0938ZM219.975 63.9062C219.537 66.3438 218.215 68.4062 216.006 70.0938C213.798 71.7604 211.433 72.5938 208.912 72.5938C208.246 72.5938 207.631 72.5 207.069 72.3125C206.506 72.1458 206.027 71.8958 205.631 71.5625C205.235 71.2083 204.954 70.7812 204.787 70.2812C204.621 69.7812 204.6 69.1979 204.725 68.5312C205.037 66.7812 206.048 65.25 207.756 63.9375C209.465 62.625 211.204 61.9688 212.975 61.9688C213.204 61.9688 213.444 61.9896 213.694 62.0312C213.965 62.0521 214.246 62.0833 214.537 62.125C213.808 61.4583 212.965 61.125 212.006 61.125C211.485 61.125 210.808 61.3438 209.975 61.7812C209.079 62.1979 208.496 62.4062 208.225 62.4062C207.454 62.4062 207.152 62 207.319 61.1875C207.465 60.2708 208.485 59.3229 210.381 58.3438C212.152 57.4479 213.548 57 214.569 57C216.381 57 217.808 57.6875 218.85 59.0625C219.912 60.4375 220.287 62.0521 219.975 63.9062ZM230.676 38.1875C229.864 42.7292 228.207 50.6042 225.707 61.8125C225.541 62.6458 225.364 63.4792 225.176 64.3125C224.989 65.125 224.812 65.9479 224.645 66.7812C224.145 69.2604 223.718 70.7917 223.364 71.375C222.801 72.3125 222.124 72.7812 221.332 72.7812C220.582 72.7812 220.374 71.7708 220.707 69.75C221.166 67.2917 221.822 63.9479 222.676 59.7188C223.197 57.2188 223.635 55.1458 223.989 53.5C224.343 51.8333 224.603 50.5521 224.77 49.6562C225.166 47.5938 225.572 45.4375 225.989 43.1875C226.405 40.9167 226.853 38.4688 227.332 35.8438C227.395 35.3646 227.791 34.8229 228.52 34.2188C229.228 33.6354 229.843 33.3438 230.364 33.3438C230.614 33.3438 230.801 33.4271 230.926 33.5938C231.051 33.7396 231.114 34 231.114 34.375C231.135 34.75 231.103 35.25 231.02 35.875C230.937 36.4792 230.822 37.25 230.676 38.1875Z" fill="#A4C754"/>
<path fill-rule="evenodd" clip-rule="evenodd" d="M51.4764 0.196533C73.8696 0.196533 92.7543 14.145 98.6039 33.1957L98.6687 33.1962C98.6839 33.2328 98.6991 33.2695 98.7143 33.3062C99.4392 35.0567 100.197 37.5488 100.987 40.7825C99.4833 39.8746 97.9483 39.539 96.3826 39.7759C92.0524 40.431 86.8888 44.6392 84.5759 44.5777C80.4794 44.4688 76.602 42.305 73.279 42.305C73.112 42.305 72.1341 42.6154 71.983 42.6325C71.0431 42.739 69.4713 43.6495 67.9102 44.6368L67.3266 45.0092C65.5847 46.1286 63.958 47.23 63.3616 47.2779C61.6519 47.4151 60.5736 46.6778 59.1183 46.2299C58.7578 46.119 58.3932 46.005 58.0274 45.8913L57.2955 45.665C55.1008 44.9925 52.941 44.4025 51.4761 44.5777C47.1649 45.0931 41.9794 50.2906 39.8401 50.4623C39.1431 50.5182 38.773 50.5407 38.5958 50.5439L38.5175 50.5438C38.3959 50.5402 38.4748 50.5168 38.5799 50.4921L38.6443 50.4774C38.8277 50.436 38.9876 50.4014 38.2884 50.4623C38.1497 50.3793 36.5067 49.721 34.8506 49.0663L34.3002 48.849C32.8418 48.274 31.504 47.7527 31.3339 47.6915C30.4384 47.3694 29.2564 47.303 28.604 47.2779C28.4808 47.2732 28.3807 47.2685 28.297 47.2642L28.0883 47.2531C27.8578 47.2409 27.7828 47.2413 27.4353 47.2779C26.2264 47.4052 25.0404 48.1899 24.0255 49.1638C22.8653 50.2771 19.8978 52.6997 17.7508 52.9232C13.8165 53.3327 9.91561 49.3011 7.12235 49.5396C3.7277 49.8294 2.93708 50.6633 1.78354 51.1965C1.42081 51.3642 1.16558 51.5017 1.01785 51.609L1.0127 51.6123L1.05532 51.2539C2.09063 42.6859 3.17813 36.6663 4.31783 33.1953L4.3487 33.1945L4.52804 32.6267C10.5759 13.8679 29.3068 0.196533 51.4764 0.196533Z" fill="#A4C754"/>
<path fill-rule="evenodd" clip-rule="evenodd" d="M50.4355 101.803C28.0424 101.803 9.15763 87.855 3.30808 68.8043L3.24326 68.8038C3.22806 68.7672 3.21286 68.7305 3.19765 68.6938C2.4728 66.9433 1.59508 64.1182 0.564499 60.2185C2.76175 58.9812 4.64323 58.2441 6.20894 58.0073C10.5392 57.3521 14.0237 60.7167 16.3367 60.7782C20.4332 60.8871 25.7044 55.3232 29.0274 55.3232C32.3503 55.3232 34.2882 56.6385 34.42 56.6808C36.7307 57.4223 38.5603 58.103 39.7531 58.0073C40.1992 57.9715 41.5144 57.7959 42.2709 57.4223C44.4133 56.3644 45.751 55.9203 47.7556 54.7221C49.7603 53.5238 52.0103 52.8035 52.9773 52.8035C53.9444 52.8035 54.6879 52.9667 55.6326 53.5238C57.7165 54.7529 60.9573 56.098 62.0718 55.9884C63.1713 55.8804 66.0369 53.8755 66.6268 53.5238C69.5982 51.7523 71.6628 50.2776 73.308 50.1345C73.4376 50.212 76.1384 50.4066 78.5582 51.0476C81.3186 51.7787 83.8911 52.9555 84.9756 52.8362C88.3924 52.4604 93.6981 49.0279 95.2732 48.2117C96.5734 47.5378 98.6276 48.1787 101.436 50.1345C100.564 58.7607 99.283 64.9471 97.5921 68.6938L97.5435 68.8035L97.5633 68.8033C91.7141 87.8545 72.8291 101.803 50.4355 101.803Z" fill="#89CDE9"/>
<path d="M37.8989 27.1015C37.8471 27.6011 37.7664 28.2205 37.6569 28.9598C37.5474 29.699 37.4103 30.5766 37.2458 31.5925C37.0795 32.5838 36.9416 33.449 36.8321 34.1883C36.7226 34.9275 36.6419 35.547 36.59 36.0466C36.5545 36.2475 36.5234 36.4233 36.4967 36.5739C36.4692 36.7122 36.4338 36.8263 36.3904 36.9161C36.2665 37.272 36.0011 37.644 35.5943 38.032C35.1848 38.3831 34.8012 38.5711 34.4433 38.5961C33.9744 38.6289 33.7725 38.4012 33.8375 37.9131C33.9046 37.276 33.9996 36.5067 34.1226 35.6053C34.2455 34.7039 34.4001 33.6329 34.5861 32.3923C34.9484 29.949 35.1918 28.1092 35.3161 26.8729C35.9652 20.7267 35.3395 17.72 33.4392 17.8529C31.687 17.9754 30.2359 20.0113 29.0861 23.9605C28.3518 26.4051 27.8155 29.1086 27.477 32.071C27.4593 32.1715 27.4454 32.3274 27.4354 32.5389C27.4368 32.7372 27.4268 32.9487 27.4053 33.1734C27.3962 33.3973 27.3866 33.615 27.3766 33.8265C27.3657 34.0256 27.3576 34.175 27.3521 34.2746C27.2845 34.7257 27.0366 35.1708 26.6085 35.61C26.1672 36.0376 25.7306 36.2666 25.2987 36.2968C24.7805 36.333 24.593 35.6021 24.7362 34.1041L24.9159 32.4175C25.0245 31.6659 25.0967 31.1029 25.1325 30.7284C26.03 22.2832 25.5718 18.1241 23.7578 18.2509C23.4247 18.2742 22.9327 18.6868 22.282 19.4887C19.8581 22.597 18.2382 27.9803 17.4221 35.6385C17.4095 35.813 17.3942 36.0373 17.3761 36.3114C17.3573 36.5731 17.3352 36.8784 17.31 37.2274C17.2605 37.9376 17.2227 38.4611 17.1966 38.7977C17.1777 39.0594 17.0403 39.3108 16.7844 39.5519C16.5433 39.8292 16.3056 39.976 16.0712 39.9924C15.775 40.0131 15.5862 39.8837 15.5046 39.6042C15.3217 38.7614 15.3291 37.3597 15.5268 35.3991C16.344 27.5795 18.1397 21.9608 20.9138 18.5428C22.3292 16.7946 23.6847 15.8752 24.9804 15.7846C26.6092 15.6707 27.5634 17.6128 27.843 21.6108C28.9136 19.366 30.2201 17.6564 31.7624 16.4822C32.9181 15.6326 33.9464 15.1763 34.8472 15.1133C37.7471 14.9105 38.7643 18.9066 37.8989 27.1015ZM42.254 25.0113C42.1889 25.4995 41.9806 25.979 41.6292 26.45C41.2654 26.9219 40.8367 27.175 40.3431 27.2096C39.504 27.2682 39.1211 26.9354 39.1945 26.2111C39.2515 25.7855 39.5175 25.3329 39.9923 24.8533C40.454 24.3622 40.9008 24.1016 41.3326 24.0714C42.0113 24.0239 42.3184 24.3372 42.254 25.0113ZM40.6577 29.8473C40.6543 29.798 40.398 30.8327 39.889 32.9515C39.7388 33.8176 39.4949 35.1181 39.1574 36.8529C39.1049 37.1665 38.8793 37.4861 38.4805 37.8116C38.0684 38.1256 37.7143 38.293 37.4182 38.3137C37.0603 38.3387 36.9205 37.8463 36.9987 36.8364C37.0844 36.1112 37.3523 34.8897 37.8026 33.1718C38.2962 31.3641 38.6862 30.2022 38.9725 29.6862C39.2924 29.1182 39.6806 28.8183 40.1371 28.7864C40.569 28.7562 40.7426 29.1098 40.6577 29.8473ZM48.401 31.4077C48.3294 32.1567 48.1846 32.9232 47.9666 33.7073C47.7487 34.4913 47.4588 35.3114 47.0971 36.1675C46.655 37.116 46.0514 37.617 45.2864 37.6705C44.8298 37.7024 44.6221 37.4813 44.6634 37.0072C44.7107 36.6195 44.8255 36.1341 45.008 35.551C45.3292 34.6481 45.4873 34.1596 45.4821 34.0856C45.5592 33.7702 45.6342 33.424 45.7071 33.0469C45.7799 32.6698 45.844 32.2561 45.8993 31.8058C45.9434 31.1951 45.8975 30.8945 45.7618 30.904C45.1818 30.9446 44.4803 31.8182 43.6573 33.525C42.9685 35.024 42.583 36.1607 42.5008 36.9353C42.481 37.1847 42.3308 37.4308 42.0502 37.6736C41.7722 37.9534 41.5159 38.1015 41.2815 38.1179C41.1087 38.13 40.9645 37.9293 40.8488 37.5158C40.7224 37.1278 40.6717 36.8462 40.6967 36.6708C40.7705 35.5993 41.2453 34.3199 42.1209 32.8326C42.9999 31.3948 43.9072 30.2711 44.8426 29.4617C45.7214 28.7307 46.4447 28.3453 47.0123 28.3056C47.5429 28.2685 47.9416 28.6498 48.2083 29.4496C48.4038 30.1179 48.4681 30.7706 48.401 31.4077ZM54.692 30.819C54.7072 30.6815 54.6475 30.5369 54.5129 30.3851C54.3898 30.2201 54.2665 30.1419 54.1431 30.1506C53.6865 30.1825 53.1338 30.6117 52.4848 31.4383C51.9276 32.1593 51.5622 32.7862 51.3887 33.3192C53.5534 32.0022 54.6545 31.1688 54.692 30.819ZM57.6176 34.353C57.5336 35.1029 56.6706 35.7956 55.0287 36.4312C53.7589 36.892 52.6243 37.1574 51.6248 37.2273C49.564 37.3714 48.6279 36.575 48.8165 34.8382C48.9391 33.5773 49.7341 32.0895 51.2014 30.3749C52.6572 28.6735 54.0145 27.7788 55.2731 27.6907C55.816 27.6528 56.2749 27.8315 56.6498 28.2269C57.0378 28.6337 57.1957 29.1187 57.1235 29.6817C56.9803 31.1798 55.3227 32.8333 52.1508 34.6423C52.3772 34.6884 52.6323 34.7016 52.9162 34.6818C53.4468 34.6447 54.1666 34.4765 55.0757 34.1773C56.1073 33.8572 56.7465 33.6885 56.9933 33.6713C57.4622 33.6385 57.6703 33.8657 57.6176 34.353ZM57.7982 22.3062C57.791 22.3811 57.7441 22.5084 57.6575 22.688C57.5212 23.0447 56.958 23.6793 55.9678 24.5918C54.336 26.0823 53.3474 26.8396 53.0019 26.8638C52.4959 26.8991 52.2808 26.66 52.3565 26.1463C52.3774 25.7356 53.2188 24.7344 54.8807 23.1426C55.9265 22.1395 56.6592 21.6232 57.0788 21.5939C57.6217 21.5559 57.8615 21.7933 57.7982 22.3062ZM67.4902 29.924C67.4536 30.2862 67.2203 30.6745 66.7905 31.089C66.3722 31.4902 65.9841 31.7034 65.6262 31.7284C65.3671 31.7465 65.0283 31.423 64.6098 30.7579C64.1904 30.0804 63.7092 29.7606 63.1663 29.7986C62.2038 29.8659 61.4978 30.4981 61.0483 31.6951C60.9126 32.2378 60.777 32.7805 60.6413 33.3232C60.5048 33.8535 60.3696 34.4024 60.2357 34.9697C59.8576 36.1246 59.2305 36.7326 58.3544 36.7939C57.9225 36.8241 57.7338 36.6079 57.7883 36.1453C57.8275 35.8201 57.9414 35.1426 58.1297 34.1126C58.3305 33.0818 58.6283 31.6659 59.0231 29.8651C59.3383 28.3427 59.8105 27.5595 60.4398 27.5155C60.6866 27.4982 60.8732 27.9501 60.9996 28.8713C62.2369 27.768 63.4478 27.1749 64.6324 27.0921C65.4592 27.0343 66.1647 27.2825 66.7491 27.8369C67.3335 28.3912 67.5805 29.0869 67.4902 29.924ZM73.61 32.4721C73.3366 32.64 73.0949 32.7313 72.8852 32.746C72.7741 32.7538 72.494 32.6493 72.0449 32.4327C71.5949 32.2038 71.1971 32.1014 70.8516 32.1256C70.4691 32.1523 70.2675 32.2842 70.2468 32.5213C70.1824 33.1954 70.6684 33.4962 71.705 33.4237C72.6551 33.3573 73.2901 33.0401 73.61 32.4721ZM76.4765 30.3745C76.3184 31.8363 75.6202 33.1127 74.3821 34.2037C73.1431 35.2823 71.7771 35.8739 70.284 35.9783C69.8891 36.0059 69.5212 35.9758 69.1803 35.8881C68.8402 35.8126 68.546 35.6844 68.2978 35.5034C68.0487 35.31 67.8644 35.0687 67.745 34.7794C67.6255 34.4902 67.589 34.1455 67.6355 33.7455C67.7481 32.696 68.2831 31.7472 69.2406 30.899C70.1981 30.0509 71.2013 29.5901 72.2502 29.5168C72.3859 29.5073 72.5287 29.5097 72.6785 29.524C72.8397 29.5252 73.0076 29.532 73.1821 29.5446C72.7226 29.18 72.209 29.0175 71.6414 29.0572C71.3329 29.0787 70.9409 29.2363 70.4655 29.53C69.9521 29.8139 69.6152 29.9614 69.4548 29.9727C68.9983 30.0046 68.8025 29.7765 68.8676 29.2883C68.916 28.7393 69.4814 28.1356 70.5637 27.4771C71.5755 26.8732 72.3837 26.5501 72.9883 26.5078C74.0619 26.4327 74.9356 26.7808 75.6096 27.5521C76.2958 28.3225 76.5848 29.2633 76.4765 30.3745ZM81.7497 14.6979C81.4566 17.4216 80.8017 22.1546 79.7852 28.8969C79.721 29.3974 79.6506 29.8983 79.5741 30.3997C79.4967 30.8887 79.4259 31.3834 79.3617 31.8839C79.1682 33.373 78.9787 34.2977 78.793 34.6579C78.4987 35.2365 78.1171 35.5421 77.6482 35.5749C77.2039 35.606 77.0387 35.0161 77.1524 33.8054C77.3221 32.3303 77.5723 30.3226 77.9031 27.7823C78.108 26.28 78.2813 25.0341 78.4229 24.0446C78.5636 23.0427 78.6648 22.273 78.7264 21.7355C78.8754 20.4975 79.0268 19.2035 79.1804 17.8536C79.3331 16.4913 79.497 15.0228 79.6721 13.4482C79.6893 13.1618 79.9013 12.8246 80.3082 12.4365C80.7036 12.0617 81.0555 11.8635 81.364 11.8419C81.5121 11.8315 81.6266 11.8731 81.7075 11.9667C81.7876 12.0479 81.8354 12.1995 81.8509 12.4216C81.8788 12.6429 81.881 12.9403 81.8575 13.314C81.8332 13.6753 81.7972 14.1366 81.7497 14.6979Z" fill="white"/>
<path d="M19.9341 89.6388L19.9137 89.4053L19.9341 89.6388ZM38.8919 73.4915C38.6968 75.7436 37.7455 77.6436 36.038 79.1916C34.3553 80.7243 32.3724 81.5905 30.0895 81.7902C27.6768 82.0013 25.8775 81.6032 24.6914 80.596C24.5221 80.454 24.4527 80.2575 24.483 80.0065C24.5008 79.6128 24.7381 79.1868 25.1946 78.7286C25.6512 78.2704 26.0806 78.0237 26.4827 77.9886C26.5086 77.9863 26.6347 78.0079 26.8609 78.0535C28.727 78.766 30.2761 79.0683 31.5084 78.9605C34.2972 78.7165 35.8001 77.3694 36.0171 74.9193C36.1791 73.0361 35.6732 71.3616 34.4993 69.8958C33.256 68.3838 31.7134 67.7084 29.8715 67.8695C25.9801 68.21 23.6008 73.3588 22.7335 83.3161C22.6478 84.2777 22.5684 85.0885 22.4954 85.7484C22.4224 86.4083 22.35 86.9244 22.278 87.2967C21.8736 89.3972 21.2628 90.4832 20.4456 90.5547C20.1083 90.5842 19.9378 90.2789 19.9341 89.6388L20.1537 87.4433C20.1688 87.1675 20.1906 86.8192 20.2192 86.3985C20.2477 85.9777 20.283 85.4845 20.325 84.9188C20.3777 84.326 20.4189 83.8257 20.4486 83.4179C20.4771 82.9972 20.5054 82.6483 20.5335 82.3714C20.7504 79.9213 21.0466 77.9283 21.422 76.3923C22.1272 73.5466 23.2229 71.1307 24.7091 69.1446C26.5447 66.6706 28.6883 65.3263 31.1399 65.1118C33.4098 64.9132 35.3199 65.6806 36.8701 67.4141C38.4215 69.1605 39.0954 71.1863 38.8919 73.4915ZM42.6709 75.0038C42.6114 75.5188 42.401 76.0273 42.0397 76.5295C41.6655 77.0327 41.219 77.3071 40.7001 77.3525C39.8181 77.4296 39.409 77.0864 39.4729 76.3227C39.5251 75.8737 39.7967 75.3925 40.2877 74.879C40.7645 74.3537 41.2299 74.0712 41.6839 74.0314C42.3974 73.969 42.7263 74.2931 42.6709 75.0038ZM41.0797 80.1229C41.0752 80.071 40.8245 81.1647 40.3277 83.4041C40.1855 84.3184 39.9527 85.6915 39.6294 87.5236C39.5799 87.8547 39.3483 88.1951 38.9345 88.545C38.5066 88.8831 38.137 89.0657 37.8257 89.093C37.4495 89.1259 37.2933 88.6102 37.3571 87.5459C37.4339 86.7811 37.6935 85.4905 38.1359 83.6742C38.6221 81.7626 39.0112 80.5326 39.3031 79.9843C39.6293 79.3806 40.0324 79.0578 40.5123 79.0158C40.9663 78.9761 41.1555 79.3451 41.0797 80.1229ZM50.1763 79.4447C50.1601 79.7075 49.9936 79.9704 49.6768 80.2334C49.3599 80.4964 49.0718 80.6392 48.8124 80.6619C48.6827 80.6733 48.527 80.6869 48.3454 80.7028C48.1757 80.7046 47.967 80.7098 47.7194 80.7184C47.249 80.7203 46.8906 80.732 46.6442 80.7536C45.9567 80.8138 45.326 80.9996 44.752 81.3113C45.1108 81.5282 45.4761 81.7446 45.8479 81.9604C46.2185 82.1633 46.5957 82.3655 46.9793 82.5672C47.7331 83.1156 48.0719 83.8506 47.9956 84.7722C47.8987 85.9048 47.2483 86.8374 46.0446 87.5701C45.024 88.1561 43.9106 88.5018 42.7043 88.6073C42.4708 88.6278 42.0024 88.5773 41.299 88.4558C40.6109 88.3592 40.2719 88.2189 40.2819 88.035C40.2913 87.6944 40.4812 87.3249 40.8515 86.9265C41.2219 86.5281 41.5782 86.2682 41.9205 86.1468C42.1894 86.084 42.512 86.0362 42.8882 86.0033L44.0167 85.9046C44.1464 85.8932 44.3379 85.9157 44.5912 85.9719C44.8444 86.0282 45.0359 86.0507 45.1656 86.0393C45.2564 86.0314 45.3137 86.0133 45.3373 85.9851C45.3759 85.3804 44.7738 84.7731 43.531 84.1629C42.2741 83.5409 41.6754 82.9725 41.7349 82.4575C41.8157 81.5878 42.6316 80.6799 44.1826 79.7338C45.6012 78.9169 46.7775 78.4677 47.7114 78.386C48.0227 78.3587 48.5075 78.447 49.1658 78.6508C49.8534 78.8913 50.1903 79.1559 50.1763 79.4447ZM57.5505 80.368C57.5129 80.685 57.3613 81.0446 57.0959 81.4469C56.8282 81.8232 56.5517 82.0239 56.2663 82.0488C56.0069 82.0715 55.6855 81.7598 55.3022 81.1137C54.9189 80.4675 54.3965 80.1734 53.735 80.2313C52.386 80.3493 51.661 81.027 51.5602 82.2645C51.4776 82.9645 51.6511 83.6028 52.0806 84.1795C52.5101 84.7563 53.0492 85.0163 53.6977 84.9595C54.0998 84.9244 54.5444 84.7025 55.0315 84.2939C55.5304 83.8712 55.9096 83.6485 56.169 83.6258C56.7138 83.5781 56.9576 83.8248 56.9003 84.3657C56.883 84.6155 56.7204 84.9238 56.4127 85.2906C55.1473 86.8129 53.7818 87.6382 52.316 87.7664C51.2005 87.864 50.3052 87.4914 49.6302 86.6486C49.019 85.7871 48.7695 84.8025 48.8817 83.6948C49.0146 82.3761 49.6344 81.0932 50.7408 79.8462C51.8603 78.5981 53.075 77.9167 54.3851 77.8021C55.2931 77.7226 56.047 77.8985 56.6467 78.3296C57.3063 78.847 57.6076 79.5265 57.5505 80.368ZM62.2446 73.2913C62.185 73.8063 61.9747 74.3148 61.6134 74.817C61.2392 75.3203 60.7926 75.5946 60.2738 75.64C59.3917 75.7172 58.9827 75.3739 59.0466 74.6102C59.0988 74.1613 59.3704 73.68 59.8613 73.1665C60.3382 72.6412 60.8036 72.3587 61.2576 72.319C61.971 72.2565 62.3 72.5807 62.2446 73.2913ZM60.6534 78.4104C60.6489 78.3585 60.3982 79.4523 59.9014 81.6916C59.7592 82.6059 59.5264 83.9791 59.2031 85.8111C59.1536 86.1422 58.922 86.4827 58.5082 86.8326C58.0803 87.1706 57.7107 87.3533 57.3994 87.3805C57.0232 87.4134 56.867 86.8977 56.9307 85.8334C57.0076 85.0686 57.2672 83.7781 57.7095 81.9618C58.1958 80.0501 58.5849 78.8201 58.8767 78.2718C59.203 77.6681 59.6061 77.3453 60.086 77.3033C60.54 77.2636 60.7291 77.6326 60.6534 78.4104ZM67.6362 80.015C67.5746 80.8046 67.4363 81.614 67.2213 82.4432C67.0063 83.2724 66.7163 84.1408 66.3513 85.0485C65.9034 86.0549 65.2774 86.5932 64.4732 86.6636C63.9933 86.7056 63.7706 86.4767 63.8053 85.977C63.848 85.5681 63.96 85.0551 64.1412 84.438C64.4628 83.4818 64.6201 82.9648 64.6133 82.887C64.6887 82.5537 64.7613 82.1879 64.831 81.7897C64.9007 81.3914 64.9606 80.9549 65.0105 80.48C65.0457 79.8364 64.992 79.5209 64.8493 79.5334C64.2396 79.5867 63.5174 80.5191 62.6825 82.3305C61.9851 83.9208 61.6002 85.1243 61.5279 85.941C61.5117 86.2038 61.3581 86.4656 61.0673 86.7263C60.7798 87.0259 60.5128 87.1865 60.2664 87.2081C60.0848 87.224 59.9293 87.0154 59.7999 86.5823C59.6598 86.1763 59.6013 85.8808 59.6243 85.6958C59.6824 84.5667 60.1585 83.2114 61.0527 81.6301C61.9515 80.1006 62.8857 78.9013 63.8553 78.0323C64.7669 77.2467 65.521 76.8278 66.1177 76.7756C66.6754 76.7268 67.102 77.1208 67.3974 77.9576C67.6155 78.6574 67.6951 79.3432 67.6362 80.015ZM73.0511 79.3844C73.0646 79.2394 72.9991 79.0883 72.8546 78.931C72.722 78.7597 72.5908 78.6796 72.4611 78.691C71.9811 78.733 71.4072 79.1949 70.7394 80.0768C70.1662 80.8458 69.7932 81.5124 69.6203 82.0765C71.8744 80.6506 73.018 79.7533 73.0511 79.3844ZM76.195 83.0501C76.1205 83.8409 75.2249 84.5858 73.5085 85.2849C72.1806 85.7932 70.9913 86.0933 69.9406 86.1853C67.7744 86.3748 66.7746 85.5539 66.9411 83.7225C67.047 82.3931 67.8563 80.8126 69.3691 78.9811C70.8701 77.1637 72.2821 76.1971 73.6052 76.0813C74.1759 76.0314 74.6622 76.2111 75.0639 76.6203C75.4798 77.0414 75.6549 77.5489 75.5893 78.1428C75.466 79.7221 73.7518 81.4928 70.4467 83.455C70.6859 83.4994 70.9546 83.5086 71.253 83.4825C71.8108 83.4337 72.5653 83.2435 73.5166 82.9119C74.5964 82.556 75.2661 82.3667 75.5255 82.3441C76.0184 82.3009 76.2416 82.5363 76.195 83.0501Z" fill="white"/>
</svg>
