<svg width="102" height="102" viewBox="0 0 102 102" fill="none" xmlns="http://www.w3.org/2000/svg">
<path fill-rule="evenodd" clip-rule="evenodd" d="M51.4764 0.196533C73.8696 0.196533 92.7543 14.145 98.6039 33.1957L98.6687 33.1962C98.6839 33.2328 98.6991 33.2695 98.7143 33.3062C99.4392 35.0567 100.197 37.5488 100.987 40.7825C99.4833 39.8746 97.9483 39.539 96.3826 39.7759C92.0524 40.431 86.8888 44.6392 84.5759 44.5777C80.4794 44.4688 76.602 42.305 73.279 42.305C73.112 42.305 72.1341 42.6154 71.983 42.6325C71.0431 42.739 69.4713 43.6495 67.9102 44.6368L67.3266 45.0092C65.5847 46.1286 63.958 47.23 63.3616 47.2779C61.6519 47.4151 60.5736 46.6778 59.1183 46.2299C58.7578 46.119 58.3932 46.005 58.0274 45.8913L57.2955 45.665C55.1008 44.9925 52.941 44.4025 51.4761 44.5777C47.1649 45.0931 41.9794 50.2906 39.8401 50.4623C39.1431 50.5182 38.773 50.5407 38.5958 50.5439L38.5175 50.5438C38.3959 50.5402 38.4748 50.5168 38.5799 50.4921L38.6443 50.4774C38.8277 50.436 38.9876 50.4014 38.2884 50.4623C38.1497 50.3793 36.5067 49.721 34.8506 49.0663L34.3002 48.849C32.8418 48.274 31.504 47.7527 31.3339 47.6915C30.4384 47.3694 29.2564 47.303 28.604 47.2779C28.4808 47.2732 28.3807 47.2685 28.297 47.2642L28.0883 47.2531C27.8578 47.2409 27.7828 47.2413 27.4353 47.2779C26.2264 47.4052 25.0404 48.1899 24.0255 49.1638C22.8653 50.2771 19.8978 52.6997 17.7508 52.9232C13.8165 53.3327 9.91561 49.3011 7.12235 49.5396C3.7277 49.8294 2.93708 50.6633 1.78354 51.1965C1.42081 51.3642 1.16558 51.5017 1.01785 51.609L1.0127 51.6123L1.05532 51.2539C2.09063 42.6859 3.17813 36.6663 4.31783 33.1953L4.3487 33.1945L4.52804 32.6267C10.5759 13.8679 29.3068 0.196533 51.4764 0.196533Z" fill="#A4C754"/>
<path fill-rule="evenodd" clip-rule="evenodd" d="M50.4355 101.803C28.0424 101.803 9.15763 87.855 3.30808 68.8043L3.24326 68.8038C3.22806 68.7672 3.21286 68.7305 3.19765 68.6938C2.4728 66.9433 1.59508 64.1182 0.564499 60.2185C2.76175 58.9812 4.64323 58.2441 6.20894 58.0073C10.5392 57.3521 14.0237 60.7167 16.3367 60.7782C20.4332 60.8871 25.7044 55.3232 29.0274 55.3232C32.3503 55.3232 34.2882 56.6385 34.42 56.6808C36.7307 57.4223 38.5603 58.103 39.7531 58.0073C40.1992 57.9715 41.5144 57.7959 42.2709 57.4223C44.4133 56.3644 45.751 55.9203 47.7556 54.7221C49.7603 53.5238 52.0103 52.8035 52.9773 52.8035C53.9444 52.8035 54.6879 52.9667 55.6326 53.5238C57.7165 54.7529 60.9573 56.098 62.0718 55.9884C63.1713 55.8804 66.0369 53.8755 66.6268 53.5238C69.5982 51.7523 71.6628 50.2776 73.308 50.1345C73.4376 50.212 76.1384 50.4066 78.5582 51.0476C81.3186 51.7787 83.8911 52.9555 84.9756 52.8362C88.3924 52.4604 93.6981 49.0279 95.2732 48.2117C96.5734 47.5378 98.6276 48.1787 101.436 50.1345C100.564 58.7607 99.283 64.9471 97.5921 68.6938L97.5435 68.8035L97.5633 68.8033C91.7141 87.8545 72.8291 101.803 50.4355 101.803Z" fill="#89CDE9"/>
<path d="M38.8989 27.0316C38.8471 27.5313 38.7664 28.1507 38.6569 28.89C38.5474 29.6292 38.4103 30.5068 38.2458 31.5227C38.0795 32.5139 37.9416 33.3792 37.8321 34.1184C37.7226 34.8577 37.6419 35.4771 37.59 35.9768C37.5545 36.1777 37.5234 36.3534 37.4967 36.5041C37.4692 36.6424 37.4338 36.7565 37.3904 36.8463C37.2665 37.2022 37.0011 37.5741 36.5943 37.9622C36.1848 38.3132 35.8012 38.5013 35.4433 38.5263C34.9744 38.5591 34.7725 38.3314 34.8375 37.8432C34.9046 37.2061 34.9996 36.4369 35.1226 35.5355C35.2455 34.6341 35.4001 33.5631 35.5861 32.3225C35.9484 29.8792 36.1918 28.0393 36.3161 26.803C36.9652 20.6569 36.3395 17.6502 34.4392 17.7831C32.687 17.9056 31.2359 19.9415 30.0861 23.8907C29.3518 26.3352 28.8155 29.0387 28.477 32.0012C28.4593 32.1017 28.4454 32.2576 28.4354 32.4691C28.4368 32.6674 28.4268 32.8789 28.4053 33.1036C28.3962 33.3275 28.3866 33.5451 28.3766 33.7566C28.3657 33.9558 28.3576 34.1052 28.3521 34.2047C28.2845 34.6559 28.0366 35.101 27.6085 35.5401C27.1672 35.9678 26.7306 36.1967 26.2987 36.2269C25.7805 36.2632 25.593 35.5323 25.7362 34.0343L25.9159 32.3477C26.0245 31.5961 26.0967 31.0331 26.1325 30.6586C27.03 22.2134 26.5718 18.0542 24.7578 18.1811C24.4247 18.2044 23.9327 18.617 23.282 19.4189C20.8581 22.5272 19.2382 27.9105 18.4221 35.5687C18.4095 35.7432 18.3942 35.9675 18.3761 36.2415C18.3573 36.5033 18.3352 36.8086 18.31 37.1576C18.2605 37.8678 18.2227 38.3913 18.1966 38.7279C18.1777 38.9896 18.0403 39.241 17.7844 39.4821C17.5433 39.7594 17.3056 39.9062 17.0712 39.9226C16.775 39.9433 16.5862 39.8139 16.5046 39.5344C16.3217 38.6916 16.3291 37.2899 16.5268 35.3293C17.344 27.5097 19.1397 21.8909 21.9138 18.473C23.3292 16.7248 24.6847 15.8054 25.9804 15.7148C27.6092 15.6009 28.5634 17.543 28.843 21.541C29.9136 19.2962 31.2201 17.5866 32.7624 16.4124C33.9181 15.5627 34.9464 15.1064 35.8472 15.0434C38.7471 14.8407 39.7643 18.8367 38.8989 27.0316ZM43.254 24.9415C43.1889 25.4297 42.9806 25.9092 42.6292 26.3802C42.2654 26.852 41.8367 27.1052 41.3431 27.1397C40.504 27.1984 40.1211 26.8656 40.1945 26.1412C40.2515 25.7157 40.5175 25.2631 40.9923 24.7835C41.454 24.2924 41.9008 24.0317 42.3326 24.0015C43.0113 23.9541 43.3184 24.2674 43.254 24.9415ZM41.6577 29.7775C41.6543 29.7282 41.398 30.7629 40.889 32.8817C40.7388 33.7478 40.4949 35.0482 40.1574 36.783C40.1049 37.0967 39.8793 37.4163 39.4805 37.7418C39.0684 38.0558 38.7143 38.2231 38.4182 38.2439C38.0603 38.2689 37.9205 37.7765 37.9987 36.7666C38.0844 36.0414 38.3523 34.8199 38.8026 33.102C39.2962 31.2943 39.6862 30.1324 39.9725 29.6164C40.2924 29.0484 40.6806 28.7485 41.1371 28.7165C41.569 28.6863 41.7426 29.04 41.6577 29.7775ZM48.2638 31.4174C48.1922 32.1664 48.0474 32.9329 47.8294 33.717C47.6114 34.501 47.3216 35.3211 46.9598 36.1772C46.5178 37.1257 45.9142 37.6267 45.1491 37.6802C44.6926 37.7121 44.4849 37.491 44.5262 37.0169C44.5735 36.6292 44.6883 36.1438 44.8707 35.5606C45.192 34.6578 45.35 34.1693 45.3449 34.0953C45.422 33.7799 45.497 33.4337 45.5698 33.0566C45.6427 32.6795 45.7067 32.2658 45.762 31.8155C45.8061 31.2048 45.7603 30.9042 45.6246 30.9137C45.0446 30.9543 44.3431 31.8279 43.5201 33.5347C42.8313 35.0337 42.4458 36.1704 42.3635 36.945C42.3438 37.1944 42.1936 37.4405 41.913 37.6833C41.6349 37.9631 41.3787 38.1112 41.1442 38.1276C40.9715 38.1397 40.8272 37.939 40.7115 37.5255C40.5852 37.1375 40.5345 36.8559 40.5594 36.6805C40.6333 35.609 41.108 34.3296 41.9837 32.8423C42.8627 31.4045 43.7699 30.2808 44.7053 29.4714C45.5842 28.7404 46.3075 28.355 46.8751 28.3153C47.4057 28.2782 47.8044 28.6595 48.0711 29.4593C48.2666 30.1276 48.3309 30.7803 48.2638 31.4174ZM54.5548 30.8287C54.57 30.6912 54.5103 30.5466 54.3757 30.3948C54.2525 30.2298 54.1293 30.1516 54.0059 30.1603C53.5493 30.1922 52.9965 30.6214 52.3475 31.448C51.7903 32.169 51.425 32.7959 51.2515 33.3289C53.4162 32.0119 54.5173 31.1785 54.5548 30.8287ZM57.4803 34.3627C57.3964 35.1126 56.5334 35.8053 54.8915 36.4409C53.6217 36.9017 52.487 37.1671 51.4875 37.237C49.4268 37.3811 48.4907 36.5847 48.6793 34.8479C48.8019 33.587 49.5969 32.0992 51.0642 30.3846C52.52 28.6832 53.8772 27.7885 55.1359 27.7004C55.6788 27.6625 56.1377 27.8412 56.5126 28.2366C56.9006 28.6434 57.0585 29.1284 56.9863 29.6914C56.8431 31.1895 55.1855 32.843 52.0136 34.652C52.24 34.6981 52.4951 34.7113 52.7789 34.6915C53.3095 34.6544 54.0294 34.4862 54.9385 34.187C55.9701 33.8669 56.6093 33.6982 56.8561 33.681C57.325 33.6482 57.5331 33.8754 57.4803 34.3627ZM57.6609 22.3159C57.6538 22.3908 57.6069 22.5181 57.5202 22.6977C57.384 23.0544 56.8208 23.689 55.8306 24.6015C54.1988 26.092 53.2102 26.8493 52.8646 26.8735C52.3587 26.9088 52.1436 26.6697 52.2193 26.156C52.2402 25.7453 53.0815 24.7441 54.7434 23.1523C55.7893 22.1492 56.522 21.6329 56.9415 21.6036C57.4845 21.5656 57.7243 21.803 57.6609 22.3159ZM67.353 29.9337C67.3163 30.2959 67.0831 30.6842 66.6533 31.0987C66.2349 31.4999 65.8468 31.7131 65.489 31.7381C65.2299 31.7562 64.891 31.4327 64.4725 30.7676C64.0532 30.0901 63.572 29.7703 63.0291 29.8083C62.0666 29.8756 61.3606 30.5078 60.9111 31.7048C60.7754 32.2475 60.6398 32.7902 60.5041 33.3329C60.3676 33.8632 60.2324 34.4121 60.0985 34.9794C59.7204 36.1343 59.0933 36.7423 58.2172 36.8036C57.7853 36.8338 57.5966 36.6176 57.6511 36.155C57.6903 35.8298 57.8041 35.1523 57.9925 34.1223C58.1932 33.0915 58.491 31.6756 58.8859 29.8748C59.201 28.3524 59.6733 27.5692 60.3026 27.5251C60.5494 27.5079 60.736 27.9598 60.8624 28.881C62.0997 27.7777 63.3106 27.1846 64.4952 27.1018C65.322 27.044 66.0275 27.2922 66.6119 27.8466C67.1962 28.4009 67.4433 29.0966 67.353 29.9337ZM73.4728 32.4818C73.1993 32.6497 72.9577 32.741 72.7479 32.7557C72.6369 32.7635 72.3568 32.659 71.9076 32.4424C71.4576 32.2135 71.0599 32.1111 70.7144 32.1353C70.3318 32.162 70.1302 32.2939 70.1096 32.531C70.0452 33.2051 70.5312 33.5059 71.5677 33.4334C72.5179 33.367 73.1529 33.0498 73.4728 32.4818ZM76.3393 30.3842C76.1811 31.846 75.483 33.1224 74.2449 34.2134C73.0059 35.292 71.6399 35.8836 70.1468 35.988C69.7519 36.0156 69.384 35.9855 69.0431 35.8978C68.703 35.8223 68.4088 35.6941 68.1606 35.5131C67.9114 35.3197 67.7272 35.0784 67.6077 34.7891C67.4883 34.4999 67.4518 34.1552 67.4982 33.7552C67.6108 32.7057 68.1459 31.7569 69.1034 30.9087C70.0609 30.0606 71.0641 29.5998 72.1129 29.5265C72.2487 29.517 72.3914 29.5194 72.5412 29.5337C72.7025 29.5349 72.8704 29.5417 73.0449 29.5543C72.5854 29.1897 72.0718 29.0272 71.5042 29.0669C71.1957 29.0884 70.8037 29.246 70.3283 29.5397C69.8149 29.8236 69.478 29.9711 69.3176 29.9824C68.861 30.0143 68.6653 29.7862 68.7304 29.298C68.7788 28.749 69.3441 28.1453 70.4265 27.4868C71.4383 26.8829 72.2465 26.5598 72.8511 26.5175C73.9247 26.4424 74.7984 26.7905 75.4723 27.5618C76.1586 28.3322 76.4476 29.273 76.3393 30.3842ZM81.6125 14.7076C81.3193 17.4313 80.6645 22.1643 79.648 28.9066C79.5838 29.4071 79.5134 29.908 79.4369 30.4094C79.3594 30.8984 79.2886 31.3931 79.2244 31.8936C79.031 33.3827 78.8414 34.3074 78.6558 34.6676C78.3615 35.2461 77.9798 35.5518 77.5109 35.5846C77.0667 35.6157 76.9015 35.0258 77.0152 33.8151C77.1849 32.34 77.4351 30.3323 77.7658 27.792C77.9708 26.2897 78.1441 25.0438 78.2857 24.0543C78.4264 23.0524 78.5276 22.2827 78.5892 21.7452C78.7382 20.5072 78.8895 19.2132 79.0431 17.8633C79.1959 16.501 79.3598 15.0325 79.5349 13.4579C79.5521 13.1715 79.7641 12.8343 80.1709 12.4462C80.5663 12.0714 80.9183 11.8732 81.2268 11.8516C81.3748 11.8412 81.4893 11.8828 81.5703 11.9764C81.6504 12.0576 81.6982 12.2092 81.7137 12.4313C81.7416 12.6526 81.7438 12.95 81.7203 13.3237C81.696 13.685 81.66 14.1463 81.6125 14.7076Z" fill="white"/>
<path d="M20.4356 89.569L20.4151 89.3355L20.4356 89.569ZM39.3933 73.4217C39.1983 75.6738 38.247 77.5738 36.5394 79.1218C34.8567 80.6545 32.8739 81.5207 30.5909 81.7204C28.1783 81.9315 26.3789 81.5334 25.1929 80.5262C25.0236 80.3841 24.9541 80.1876 24.9845 79.9366C25.0023 79.543 25.2395 79.117 25.6961 78.6588C26.1527 78.2006 26.5821 77.9539 26.9842 77.9187C27.0101 77.9165 27.1362 77.9381 27.3624 77.9837C29.2284 78.6961 30.7776 78.9985 32.0099 78.8907C34.7987 78.6467 36.3016 77.2996 36.5186 74.8495C36.6806 72.9662 36.1746 71.2917 35.0007 69.826C33.7575 68.314 32.2149 67.6386 30.3729 67.7997C26.4816 68.1402 24.1022 73.289 23.235 83.2462C23.1492 84.2079 23.0698 85.0187 22.9969 85.6786C22.9239 86.3385 22.8514 86.8546 22.7794 87.2269C22.375 89.3274 21.7642 90.4134 20.947 90.4849C20.6098 90.5144 20.4393 90.2091 20.4356 89.569L20.6552 87.3735C20.6703 87.0977 20.6921 86.7494 20.7206 86.3287C20.7492 85.9079 20.7845 85.4147 20.8265 84.849C20.8792 84.2562 20.9204 83.7559 20.95 83.3481C20.9786 82.9274 21.0069 82.5785 21.0349 82.3016C21.2519 79.8515 21.5481 77.8584 21.9234 76.3225C22.6286 73.4768 23.7243 71.0609 25.2105 69.0748C27.0461 66.6007 29.1897 65.2564 31.6413 65.042C33.9113 64.8434 35.8214 65.6108 37.3716 67.3443C38.9229 69.0907 39.5969 71.1165 39.3933 73.4217ZM43.1723 74.934C43.1128 75.4489 42.9025 75.9575 42.5412 76.4596C42.167 76.9629 41.7204 77.2373 41.2016 77.2827C40.3195 77.3598 39.9105 77.0166 39.9743 76.2529C40.0266 75.8039 40.2982 75.3227 40.7891 74.8092C41.266 74.2839 41.7314 74.0013 42.1854 73.9616C42.8988 73.8992 43.2278 74.2233 43.1723 74.934ZM41.5812 80.0531C41.5767 80.0012 41.326 81.0949 40.8292 83.3342C40.6869 84.2485 40.4542 85.6217 40.1308 87.4537C40.0814 87.7848 39.8498 88.1253 39.436 88.4752C39.0081 88.8133 38.6385 88.9959 38.3272 89.0232C37.951 89.0561 37.7948 88.5404 37.8585 87.4761C37.9354 86.7113 38.195 85.4207 38.6373 83.6044C39.1236 81.6928 39.5127 80.4628 39.8045 79.9144C40.1308 79.3108 40.5339 78.988 41.0138 78.946C41.4678 78.9063 41.6569 79.2753 41.5812 80.0531ZM50.6778 79.3749C50.6616 79.6377 50.4951 79.9006 50.1782 80.1636C49.8614 80.4266 49.5733 80.5694 49.3139 80.5921C49.1841 80.6035 49.0285 80.6171 48.8469 80.633C48.6771 80.6348 48.4685 80.6399 48.2209 80.6485C47.7505 80.6505 47.3921 80.6622 47.1456 80.6838C46.4581 80.7439 45.8274 80.9298 45.2534 81.2414C45.6123 81.4584 45.9776 81.6748 46.3493 81.8906C46.72 82.0934 47.0971 82.2957 47.4808 82.4974C48.2345 83.0458 48.5733 83.7808 48.4971 84.7024C48.4001 85.8349 47.7498 86.7676 46.546 87.5003C45.5255 88.0862 44.4121 88.432 43.2058 88.5375C42.9723 88.558 42.5039 88.5074 41.8005 88.386C41.1124 88.2893 40.7733 88.1491 40.7834 87.9652C40.7928 87.6246 40.9827 87.255 41.353 86.8567C41.7233 86.4583 42.0796 86.1984 42.4219 86.0769C42.6909 86.0142 43.0135 85.9664 43.3897 85.9335L44.5182 85.8347C44.6479 85.8234 44.8394 85.8458 45.0926 85.9021C45.3459 85.9584 45.5374 85.9808 45.6671 85.9695C45.7579 85.9615 45.8151 85.9435 45.8388 85.9152C45.8774 85.3106 45.2753 84.7032 44.0325 84.0931C42.7756 83.4711 42.1769 82.9026 42.2364 82.3877C42.3171 81.5179 43.133 80.61 44.6841 79.664C46.1027 78.8471 47.2789 78.3978 48.2129 78.3161C48.5242 78.2889 49.009 78.3772 49.6673 78.581C50.3549 78.8215 50.6917 79.0861 50.6778 79.3749ZM58.052 80.2982C58.0143 80.6152 57.8628 80.9748 57.5974 81.3771C57.3297 81.7534 57.0532 81.954 56.7678 81.979C56.5084 82.0017 56.187 81.69 55.8037 81.0438C55.4204 80.3977 54.898 80.1036 54.2365 80.1614C52.8874 80.2795 52.1625 80.9572 52.0616 82.1947C51.9791 82.8946 52.1526 83.533 52.5821 84.1097C53.0116 84.6865 53.5506 84.9465 54.1992 84.8897C54.6013 84.8545 55.0459 84.6327 55.533 84.2241C56.0319 83.8014 56.4111 83.5787 56.6705 83.556C57.2153 83.5083 57.4591 83.7549 57.4018 84.2958C57.3845 84.5457 57.2219 84.854 56.9142 85.2208C55.6488 86.7431 54.2832 87.5684 52.8175 87.6966C51.7019 87.7942 50.8067 87.4216 50.1317 86.5788C49.5204 85.7173 49.2709 84.7327 49.3831 83.625C49.5161 82.3063 50.1358 81.0234 51.2423 79.7764C52.3617 78.5283 53.5765 77.8469 54.8866 77.7323C55.7946 77.6528 56.5485 77.8287 57.1482 78.2598C57.8078 78.7772 58.109 79.4567 58.052 80.2982ZM62.746 73.2215C62.6865 73.7365 62.4761 74.245 62.1149 74.7472C61.7406 75.2504 61.2941 75.5248 60.7752 75.5702C59.8932 75.6473 59.4841 75.3041 59.548 74.5404C59.6002 74.0914 59.8718 73.6102 60.3628 73.0967C60.8397 72.5714 61.3051 72.2889 61.7591 72.2491C62.4725 72.1867 62.8015 72.5108 62.746 73.2215ZM61.1549 78.3406C61.1503 78.2887 60.8996 79.3824 60.4028 81.6218C60.2606 82.5361 60.0278 83.9092 59.7045 85.7413C59.6551 86.0724 59.4234 86.4128 59.0097 86.7627C58.5818 87.1008 58.2122 87.2835 57.9008 87.3107C57.5247 87.3436 57.3685 86.8279 57.4322 85.7636C57.5091 84.9988 57.7687 83.7082 58.211 81.8919C58.6973 79.9803 59.0864 78.7503 59.3782 78.202C59.7044 77.5983 60.1075 77.2755 60.5875 77.2335C61.0415 77.1938 61.2306 77.5628 61.1549 78.3406ZM68.1377 79.9451C68.0761 80.7348 67.9378 81.5442 67.7227 82.3734C67.5077 83.2026 67.2177 84.071 66.8528 84.9786C66.4049 85.985 65.7789 86.5234 64.9747 86.5938C64.4947 86.6358 64.2721 86.4069 64.3068 85.9072C64.3495 85.4983 64.4614 84.9853 64.6427 84.3681C64.9642 83.412 65.1216 82.895 65.1148 82.8172C65.1902 82.4838 65.2627 82.118 65.3325 81.7198C65.4022 81.3216 65.462 80.885 65.512 80.4101C65.5472 79.7666 65.4934 79.4511 65.3507 79.4636C64.7411 79.5169 64.0188 80.4493 63.1839 82.2607C62.4866 83.851 62.1017 85.0545 62.0294 85.8712C62.0132 86.134 61.8596 86.3958 61.5687 86.6565C61.2812 86.9561 61.0143 87.1167 60.7678 87.1383C60.5862 87.1542 60.4307 86.9456 60.3014 86.5125C60.1613 86.1065 60.1027 85.811 60.1258 85.626C60.1838 84.4968 60.66 83.1416 61.5542 81.5602C62.453 80.0308 63.3871 78.8315 64.3568 77.9624C65.2683 77.1769 66.0224 76.758 66.6191 76.7058C67.1769 76.657 67.6035 77.051 67.8989 77.8878C68.117 78.5876 68.1966 79.2734 68.1377 79.9451ZM73.5526 79.3146C73.566 79.1696 73.5005 79.0185 73.356 78.8612C73.2234 78.6898 73.0922 78.6098 72.9625 78.6212C72.4826 78.6631 71.9087 79.1251 71.2408 80.007C70.6677 80.776 70.2946 81.4425 70.1218 82.0066C72.3759 80.5808 73.5195 79.6834 73.5526 79.3146ZM76.6965 82.9803C76.6219 83.771 75.7264 84.516 74.01 85.2151C72.682 85.7234 71.4927 86.0235 70.4421 86.1154C68.2758 86.305 67.276 85.484 67.4426 83.6527C67.5484 82.3233 68.3578 80.7428 69.8706 78.9113C71.3715 77.0939 72.7836 76.1273 74.1066 76.0115C74.6774 75.9616 75.1636 76.1412 75.5654 76.5505C75.9813 76.9716 76.1564 77.4791 76.0907 78.073C75.9675 79.6522 74.2533 81.423 70.9482 83.3852C71.1874 83.4296 71.4561 83.4388 71.7545 83.4127C72.3122 83.3639 73.0667 83.1737 74.018 82.8421C75.0979 82.4862 75.7675 82.2969 76.027 82.2742C76.5199 82.2311 76.7431 82.4665 76.6965 82.9803Z" fill="white"/>
</svg>
