<svg width="102" height="102" viewBox="0 0 102 102" fill="none" xmlns="http://www.w3.org/2000/svg">
<path fill-rule="evenodd" clip-rule="evenodd" d="M51.4764 0.196655C73.8696 0.196655 92.7543 14.1451 98.6039 33.1958L98.6687 33.1963C98.6839 33.2329 98.6991 33.2696 98.7143 33.3063C99.4392 35.0569 100.197 37.549 100.987 40.7827C99.4833 39.8747 97.9483 39.5391 96.3826 39.776C92.0524 40.4312 86.8888 44.6393 84.5759 44.5778C80.4794 44.4689 76.602 42.3051 73.279 42.3051C73.112 42.3051 72.1341 42.6155 71.983 42.6326C71.0431 42.7391 69.4713 43.6497 67.9102 44.6369L67.3266 45.0093C65.5847 46.1287 63.958 47.2302 63.3616 47.278C61.6519 47.4152 60.5736 46.6779 59.1183 46.23C58.7578 46.1191 58.3932 46.0052 58.0274 45.8914L57.2955 45.6651C55.1008 44.9926 52.941 44.4026 51.4761 44.5778C47.1649 45.0933 41.9794 50.2907 39.8401 50.4624C39.1431 50.5183 38.773 50.5408 38.5958 50.544L38.5175 50.5439C38.3959 50.5403 38.4748 50.5169 38.5799 50.4922L38.6443 50.4775C38.8277 50.4362 38.9876 50.4016 38.2884 50.4624C38.1497 50.3794 36.5067 49.7211 34.8506 49.0664L34.3002 48.8491C32.8418 48.2742 31.504 47.7528 31.3339 47.6917C30.4384 47.3695 29.2564 47.3031 28.604 47.278C28.4808 47.2733 28.3807 47.2686 28.297 47.2643L28.0883 47.2532C27.8578 47.241 27.7828 47.2414 27.4353 47.278C26.2264 47.4053 25.0404 48.19 24.0255 49.1639C22.8653 50.2772 19.8978 52.6998 17.7508 52.9233C13.8165 53.3329 9.91561 49.3012 7.12235 49.5397C3.7277 49.8296 2.93708 50.6634 1.78354 51.1967C1.42081 51.3643 1.16558 51.5018 1.01785 51.6091L1.0127 51.6124L1.05532 51.254C2.09063 42.686 3.17813 36.6664 4.31783 33.1954L4.3487 33.1947L4.52804 32.6268C10.5759 13.868 29.3068 0.196655 51.4764 0.196655Z" fill="#FBC900"/>
<path fill-rule="evenodd" clip-rule="evenodd" d="M50.4355 101.803C28.0424 101.803 9.15763 87.8549 3.30808 68.8042L3.24326 68.8037C3.22806 68.7671 3.21286 68.7304 3.19765 68.6937C2.4728 66.9431 1.59508 64.1181 0.564499 60.2184C2.76175 58.9811 4.64323 58.244 6.20894 58.0071C10.5392 57.352 14.0237 60.7166 16.3367 60.7781C20.4332 60.887 25.7044 55.3231 29.0274 55.3231C32.3503 55.3231 34.2882 56.6384 34.42 56.6807C36.7307 57.4222 38.5603 58.1029 39.7531 58.0071C40.1992 57.9713 41.5144 57.7958 42.2709 57.4222C44.4133 56.3643 45.751 55.9202 47.7556 54.722C49.7603 53.5237 52.0103 52.8033 52.9773 52.8033C53.9444 52.8033 54.6879 52.9666 55.6326 53.5237C57.7165 54.7528 60.9573 56.0978 62.0718 55.9883C63.1713 55.8803 66.0369 53.8754 66.6268 53.5237C69.5982 51.7521 71.6628 50.2775 73.308 50.1344C73.4376 50.2119 76.1384 50.4065 78.5582 51.0474C81.3186 51.7786 83.8911 52.9554 84.9756 52.8361C88.3924 52.4603 93.6981 49.0278 95.2732 48.2115C96.5734 47.5377 98.6276 48.1786 101.436 50.1344C100.564 58.7606 99.283 64.947 97.5921 68.6937L97.5435 68.8033L97.5633 68.8032C91.7141 87.8544 72.8291 101.803 50.4355 101.803Z" fill="#89CDE9"/>
<path d="M34.3347 28.9502C34.0808 31.3488 32.7247 33.5888 30.2662 35.6703C27.9243 37.6445 25.544 38.7161 23.1254 38.8852C21.2745 39.0147 19.7832 38.5238 18.6515 37.4125C17.5304 36.2757 17.0717 34.7702 17.2754 32.8959C17.3319 32.2844 17.4593 31.6245 17.6578 30.9162C17.8563 30.2079 18.1253 29.4451 18.465 28.6277C18.7762 27.9364 19.0875 27.245 19.3987 26.5536C19.71 25.8623 20.0208 25.1647 20.3312 24.461C20.5019 24.0647 20.6664 23.6688 20.8247 23.2733C20.9831 22.8778 21.1348 22.4766 21.28 22.0697C21.782 21.0922 22.3786 20.5793 23.0696 20.5309C23.5755 20.4956 23.7968 20.7343 23.7335 21.2471C23.6426 21.8983 23.2717 22.9782 22.6208 24.4869C22.3741 25.0374 22.1274 25.5878 21.8807 26.1383C21.6331 26.6764 21.3868 27.233 21.1419 27.8081C20.5581 29.213 20.2108 30.4525 20.0999 31.5266C19.9434 33.0131 20.2916 34.1792 21.1443 35.0248C21.9962 35.858 23.1625 36.2228 24.6432 36.1193C26.198 36.0106 27.6681 35.3994 29.0534 34.2857C30.5455 33.1026 31.3808 31.7484 31.5593 30.2231C31.7103 28.8361 31.178 27.6954 29.9622 26.8008C28.9181 26.0554 27.6713 25.6032 26.2217 25.4441C26.0234 25.4456 25.7877 25.4435 25.5145 25.4378C25.2404 25.4197 24.9228 25.3986 24.5615 25.3742C24.1878 25.3507 24.0127 25.1522 24.0362 24.7786C24.1087 24.0419 24.6274 23.3918 25.5924 22.8283L28.5663 21.4672C30.0524 20.7309 30.8292 20.1371 30.8969 19.686C30.9677 18.9247 30.4952 18.3749 29.4796 18.0367C28.767 17.7765 27.9418 17.6792 27.004 17.7448C25.4985 17.8501 23.9441 18.3184 22.3406 19.1497C20.5211 20.083 19.2768 21.1744 18.6078 22.4239C18.1579 23.2614 17.598 23.7656 16.9279 23.9364L16.5663 23.5525C16.6589 22.926 16.9053 22.2826 17.3055 21.6222C18.3639 19.9114 20.0529 18.4417 22.3726 17.2131C24.4736 16.0494 26.5236 15.3976 28.5227 15.2578C29.7443 15.1724 30.857 15.3922 31.861 15.9172C33.0807 16.5139 33.6311 17.3806 33.5122 18.5173C33.3752 19.9281 32.0426 21.4411 29.5144 23.0563C33.0382 23.9755 34.645 25.9401 34.3347 28.9502ZM42.8672 31.2738C42.8305 31.6359 42.5973 32.0242 42.1675 32.4387C41.7491 32.8399 41.361 33.0531 41.0032 33.0781C40.744 33.0962 40.4052 32.7727 39.9867 32.1076C39.5673 31.4301 39.0862 31.1104 38.5432 31.1483C37.5807 31.2156 36.8747 31.8478 36.4252 33.0448C36.2896 33.5875 36.1539 34.1302 36.0183 34.6729C35.8818 35.2032 35.7465 35.7521 35.6126 36.3194C35.2346 37.4743 34.6075 38.0823 33.7314 38.1436C33.2995 38.1738 33.1108 37.9576 33.1652 37.495C33.2045 37.1698 33.3183 36.4923 33.5067 35.4623C33.7074 34.4315 34.0052 33.0157 34.4001 31.2148C34.7152 29.6924 35.1874 28.9092 35.8168 28.8652C36.0636 28.8479 36.2502 29.2999 36.3766 30.221C37.6138 29.1177 38.8248 28.5246 40.0094 28.4418C40.8361 28.384 41.5417 28.6322 42.126 29.1866C42.7104 29.7409 42.9575 30.4366 42.8672 31.2738ZM48.0191 24.2361C47.954 24.7243 47.7457 25.2038 47.3943 25.6748C47.0305 26.1466 46.6018 26.3998 46.1082 26.4343C45.2691 26.493 44.8862 26.1602 44.9595 25.4358C45.0166 25.0103 45.2825 24.5577 45.7574 24.0781C46.2191 23.587 46.6658 23.3263 47.0977 23.2961C47.7764 23.2487 48.0835 23.562 48.0191 24.2361ZM46.4228 29.0721C46.4194 29.0228 46.1631 30.0575 45.6541 32.1763C45.5038 33.0424 45.26 34.3428 44.9225 36.0776C44.87 36.3913 44.6444 36.7109 44.2455 37.0364C43.8335 37.3504 43.4794 37.5177 43.1832 37.5385C42.8254 37.5635 42.6856 37.0711 42.7637 36.0612C42.8494 35.336 43.1174 34.1145 43.5677 32.3966C44.0613 30.5889 44.4512 29.427 44.7376 28.911C45.0574 28.343 45.4457 28.0431 45.9022 28.0111C46.3341 27.9809 46.5076 28.3346 46.4228 29.0721ZM51.4627 16.4437C51.1696 19.1674 50.5148 23.9004 49.4982 30.6427C49.434 31.1432 49.3637 31.6441 49.2871 32.1454C49.2097 32.6344 49.1389 33.1292 49.0747 33.6297C48.8812 35.1188 48.6917 36.0435 48.5061 36.4036C48.2117 36.9822 47.8301 37.2879 47.3612 37.3207C46.917 37.3518 46.7517 36.7619 46.8655 35.5512C47.0351 34.0761 47.2853 32.0684 47.6161 29.5281C47.821 28.0258 47.9943 26.7798 48.1359 25.7903C48.2767 24.7885 48.3778 24.0188 48.4395 23.4813C48.5885 22.2433 48.7398 20.9493 48.8934 19.5994C49.0461 18.2371 49.2101 16.7686 49.3852 15.194C49.4023 14.9076 49.6143 14.5704 50.0212 14.1823C50.4166 13.8075 50.7685 13.6092 51.077 13.5877C51.2251 13.5773 51.3396 13.6189 51.4206 13.7125C51.5006 13.7937 51.5484 13.9453 51.564 14.1674C51.5918 14.3887 51.594 14.6861 51.5706 15.0598C51.5462 15.4211 51.5103 15.8824 51.4627 16.4437ZM55.1173 16.1882C54.8241 18.9119 54.1693 23.6448 53.1527 30.3871C53.0885 30.8876 53.0182 31.3885 52.9416 31.8899C52.8642 32.3789 52.7934 32.8736 52.7292 33.3741C52.5357 34.8633 52.3462 35.7879 52.1606 36.1481C51.8662 36.7267 51.4846 37.0324 51.0157 37.0652C50.5715 37.0962 50.4062 36.5064 50.52 35.2956C50.6896 33.8206 50.9398 31.8129 51.2706 29.2725C51.4755 27.7702 51.6488 26.5243 51.7904 25.5348C51.9312 24.5329 52.0324 23.7633 52.094 23.2258C52.243 21.9877 52.3943 20.6938 52.5479 19.3438C52.7007 17.9815 52.8646 16.5131 53.0397 14.9384C53.0568 14.652 53.2689 14.3148 53.6757 13.9268C54.0711 13.5519 54.423 13.3537 54.7315 13.3321C54.8796 13.3218 54.9941 13.3634 55.0751 13.4569C55.1551 13.5381 55.2029 13.6898 55.2185 13.9119C55.2463 14.1331 55.2485 14.4306 55.2251 14.8042C55.2007 15.1655 55.1648 15.6268 55.1173 16.1882ZM60.3577 33.0267C60.0842 33.1946 59.8426 33.2859 59.6329 33.3006C59.5218 33.3084 59.2417 33.2039 58.7926 32.9873C58.3425 32.7584 57.9448 32.656 57.5993 32.6802C57.2167 32.7069 57.0152 32.8388 56.9945 33.0759C56.9301 33.75 57.4161 34.0508 58.4526 33.9783C59.4028 33.9119 60.0378 33.5947 60.3577 33.0267ZM63.2242 30.9291C63.066 32.3909 62.3679 33.6673 61.1298 34.7583C59.8908 35.837 58.5248 36.4285 57.0317 36.5329C56.6368 36.5605 56.2689 36.5304 55.928 36.4427C55.5879 36.3672 55.2937 36.239 55.0455 36.058C54.7963 35.8646 54.6121 35.6233 54.4926 35.334C54.3732 35.0448 54.3367 34.7001 54.3831 34.3001C54.4958 33.2506 55.0308 32.3018 55.9883 31.4536C56.9458 30.6055 57.949 30.1447 58.9978 30.0714C59.1336 30.0619 59.2764 30.0643 59.4262 30.0786C59.5874 30.0798 59.7553 30.0866 59.9298 30.0992C59.4703 29.7346 58.9567 29.5721 58.3891 29.6118C58.0806 29.6333 57.6886 29.7909 57.2132 30.0846C56.6998 30.3685 56.3629 30.516 56.2025 30.5273C55.746 30.5592 55.5502 30.3311 55.6153 29.8429C55.6637 29.2939 56.2291 28.6902 57.3114 28.0317C58.3232 27.4278 59.1314 27.1047 59.736 27.0624C60.8096 26.9873 61.6833 27.3354 62.3573 28.1067C63.0435 28.8771 63.3325 29.8179 63.2242 30.9291ZM71.2008 29.4413C71.1291 30.1903 70.9843 30.9568 70.7664 31.7409C70.5484 32.5249 70.2585 33.345 69.8968 34.2011C69.4547 35.1496 68.8512 35.6506 68.0861 35.7041C67.6295 35.736 67.4219 35.5149 67.4631 35.0408C67.5104 34.6531 67.6253 34.1677 67.8077 33.5845C68.129 32.6817 68.287 32.1932 68.2818 32.1192C68.359 31.8038 68.434 31.4576 68.5068 31.0805C68.5796 30.7034 68.6437 30.2897 68.699 29.8394C68.7431 29.2287 68.6973 28.9281 68.5615 28.9376C67.9816 28.9782 67.2801 29.8518 66.457 31.5586C65.7682 33.0576 65.3827 34.1943 65.3005 34.9689C65.2807 35.2183 65.1305 35.4644 64.8499 35.7072C64.5719 35.987 64.3156 36.1351 64.0812 36.1515C63.9084 36.1636 63.7642 35.9629 63.6485 35.5494C63.5222 35.1614 63.4715 34.8798 63.4964 34.7044C63.5703 33.6329 64.045 32.3535 64.9206 30.8662C65.7997 29.4284 66.7069 28.3047 67.6423 27.4953C68.5212 26.7643 69.2444 26.3789 69.812 26.3392C70.3427 26.3021 70.7413 26.6834 71.008 27.4832C71.2036 28.1515 71.2678 28.8042 71.2008 29.4413ZM80.1881 28.3106C80.1471 28.6111 79.9972 28.9502 79.7384 29.3279C79.4779 29.6809 79.2119 29.8669 78.9404 29.8859C78.6936 29.9031 78.3936 29.6017 78.0402 28.9816C77.6868 28.3615 77.1955 28.0735 76.5662 28.1175C75.2829 28.2072 74.583 28.839 74.4667 30.0127C74.3767 30.6762 74.5309 31.2854 74.9293 31.8404C75.3277 32.3953 75.8354 32.6512 76.4524 32.6081C76.8349 32.5813 77.2609 32.3779 77.7303 31.9979C78.2112 31.6047 78.5751 31.3994 78.8219 31.3822C79.3401 31.3459 79.5676 31.5842 79.5043 32.097C79.4836 32.3341 79.3241 32.6242 79.0257 32.9675C77.7986 34.3925 76.4878 35.1538 75.0934 35.2513C74.0322 35.3255 73.188 34.9567 72.5609 34.145C71.9945 33.3166 71.7739 32.3772 71.8988 31.3269C72.047 30.0765 72.6569 28.8683 73.7285 27.7021C74.8125 26.5351 75.9777 25.908 77.224 25.8209C78.0878 25.7605 78.8009 25.94 79.3634 26.3595C79.9814 26.8619 80.2563 27.5123 80.1881 28.3106ZM86.5511 28.2191C86.5663 28.0816 86.5065 27.937 86.3719 27.7852C86.2488 27.6202 86.1255 27.542 86.0021 27.5507C85.5456 27.5826 84.9928 28.0119 84.3438 28.8384C83.7866 29.5594 83.4212 30.1863 83.2477 30.7193C85.4124 29.4023 86.5135 28.5689 86.5511 28.2191ZM89.4766 31.7531C89.3926 32.503 88.5297 33.1957 86.8877 33.8313C85.6179 34.2921 84.4833 34.5575 83.4838 34.6274C81.4231 34.7715 80.487 33.9751 80.6755 32.2383C80.7981 30.9774 81.5931 29.4896 83.0604 27.775C84.5162 26.0736 85.8735 25.1789 87.1321 25.0909C87.6751 25.0529 88.134 25.2316 88.5088 25.627C88.8969 26.0339 89.0548 26.5188 88.9825 27.0819C88.8393 28.5799 87.1817 30.2334 84.0098 32.0424C84.2363 32.0886 84.4914 32.1017 84.7752 32.0819C85.3058 32.0448 86.0256 31.8766 86.9347 31.5775C87.9663 31.2573 88.6055 31.0886 88.8523 31.0714C89.3212 31.0386 89.5293 31.2658 89.4766 31.7531Z" fill="white"/>
<path d="M24.9243 89.1969L24.9039 88.9634L24.9243 89.1969ZM43.8821 73.0496C43.687 75.3017 42.7357 77.2018 41.0282 78.7497C39.3455 80.2824 37.3627 81.1486 35.0797 81.3483C32.6671 81.5594 30.8677 81.1613 29.6817 80.1541C29.5124 80.0121 29.4429 79.8156 29.4732 79.5646C29.4911 79.1709 29.7283 78.7449 30.1849 78.2867C30.6415 77.8285 31.0708 77.5818 31.4729 77.5467C31.4989 77.5444 31.6249 77.566 31.8511 77.6116C33.7172 78.3241 35.2664 78.6264 36.4986 78.5186C39.2875 78.2746 40.7904 76.9276 41.0073 74.4774C41.1693 72.5942 40.6634 70.9197 39.4895 69.4539C38.2462 67.9419 36.7036 67.2665 34.8617 67.4276C30.9703 67.7681 28.591 72.9169 27.7238 82.8742C27.638 83.8358 27.5586 84.6466 27.4856 85.3065C27.4127 85.9664 27.3402 86.4825 27.2682 86.8548C26.8638 88.9553 26.253 90.0413 25.4358 90.1128C25.0985 90.1423 24.9281 89.837 24.9243 89.1969L25.144 87.0014C25.1591 86.7256 25.1809 86.3774 25.2094 85.9566C25.238 85.5358 25.2732 85.0426 25.3152 84.4769C25.3679 83.8841 25.4091 83.3838 25.4388 82.976C25.4673 82.5553 25.4956 82.2064 25.5237 81.9295C25.7407 79.4794 26.0368 77.4864 26.4122 75.9504C27.1174 73.1047 28.2131 70.6888 29.6993 68.7027C31.5349 66.2287 33.6785 64.8844 36.1301 64.6699C38.4001 64.4713 40.3102 65.2387 41.8604 66.9722C43.4117 68.7186 44.0856 70.7444 43.8821 73.0496ZM47.6611 74.5619C47.6016 75.0769 47.3912 75.5854 47.03 76.0876C46.6557 76.5909 46.2092 76.8652 45.6903 76.9106C44.8083 76.9878 44.3992 76.6445 44.4631 75.8808C44.5153 75.4318 44.7869 74.9506 45.2779 74.4371C45.7548 73.9118 46.2202 73.6293 46.6742 73.5895C47.3876 73.5271 47.7166 73.8512 47.6611 74.5619ZM46.07 79.681C46.0654 79.6291 45.8147 80.7228 45.3179 82.9622C45.1757 83.8765 44.9429 85.2496 44.6196 87.0817C44.5702 87.4128 44.3385 87.7533 43.9248 88.1031C43.4969 88.4412 43.1273 88.6239 42.8159 88.6511C42.4398 88.684 42.2836 88.1683 42.3473 87.104C42.4242 86.3392 42.6838 85.0486 43.1261 83.2323C43.6124 81.3207 44.0015 80.0907 44.2933 79.5424C44.6195 78.9387 45.0226 78.6159 45.5026 78.5739C45.9566 78.5342 46.1457 78.9032 46.07 79.681ZM55.1666 79.0028C55.1504 79.2656 54.9838 79.5285 54.667 79.7915C54.3502 80.0545 54.0621 80.1974 53.8026 80.22C53.6729 80.2314 53.5173 80.245 53.3357 80.2609C53.1659 80.2627 52.9572 80.2679 52.7096 80.2765C52.2393 80.2784 51.8809 80.2902 51.6344 80.3117C50.9469 80.3719 50.3162 80.5578 49.7422 80.8694C50.101 81.0863 50.4663 81.3027 50.8381 81.5185C51.2088 81.7214 51.5859 81.9236 51.9695 82.1253C52.7233 82.6737 53.0621 83.4087 52.9859 84.3303C52.8889 85.4629 52.2385 86.3955 51.0348 87.1282C50.0143 87.7142 48.9009 88.0599 47.6945 88.1655C47.461 88.1859 46.9926 88.1354 46.2893 88.0139C45.6011 87.9173 45.2621 87.777 45.2721 87.5931C45.2816 87.2525 45.4714 86.883 45.8418 86.4846C46.2121 86.0862 46.5684 85.8263 46.9107 85.7049C47.1797 85.6421 47.5023 85.5943 47.8784 85.5614L49.0069 85.4627C49.1366 85.4513 49.3281 85.4738 49.5814 85.53C49.8347 85.5863 50.0261 85.6088 50.1559 85.5974C50.2467 85.5895 50.3039 85.5714 50.3276 85.5432C50.3662 84.9386 49.7641 84.3312 48.5213 83.721C47.2643 83.099 46.6656 82.5306 46.7252 82.0156C46.8059 81.1459 47.6218 80.238 49.1729 79.2919C50.5914 78.4751 51.7677 78.0258 52.7016 77.9441C53.0129 77.9168 53.4977 78.0051 54.156 78.2089C54.8437 78.4494 55.1805 78.714 55.1666 79.0028ZM62.5407 79.9261C62.5031 80.2431 62.3516 80.6027 62.0862 81.005C61.8185 81.3813 61.5419 81.582 61.2566 81.6069C60.9971 81.6296 60.6758 81.3179 60.2925 80.6718C59.9092 80.0256 59.3868 79.7315 58.7252 79.7894C57.3762 79.9074 56.6513 80.5851 56.5504 81.8226C56.4679 82.5226 56.6414 83.1609 57.0709 83.7377C57.5004 84.3144 58.0394 84.5744 58.688 84.5176C59.0901 84.4825 59.5347 84.2606 60.0217 83.852C60.5207 83.4293 60.8998 83.2066 61.1593 83.1839C61.704 83.1362 61.9478 83.3829 61.8906 83.9238C61.8732 84.1736 61.7107 84.4819 61.4029 84.8487C60.1376 86.371 58.772 87.1963 57.3062 87.3245C56.1907 87.4221 55.2955 87.0495 54.6205 86.2067C54.0092 85.3452 53.7597 84.3606 53.8719 83.2529C54.0049 81.9342 54.6246 80.6514 55.7311 79.4043C56.8505 78.1562 58.0653 77.4748 59.3754 77.3602C60.2834 77.2808 61.0372 77.4566 61.637 77.8877C62.2966 78.4051 62.5978 79.0846 62.5407 79.9261ZM67.2348 72.8494C67.1753 73.3644 66.9649 73.8729 66.6036 74.3751C66.2294 74.8784 65.7829 75.1527 65.264 75.1981C64.382 75.2753 63.9729 74.932 64.0368 74.1683C64.089 73.7194 64.3606 73.2381 64.8516 72.7246C65.3284 72.1993 65.7939 71.9168 66.2478 71.8771C66.9613 71.8147 67.2902 72.1388 67.2348 72.8494ZM65.6436 77.9685C65.6391 77.9166 65.3884 79.0104 64.8916 81.2497C64.7494 82.164 64.5166 83.5372 64.1933 85.3692C64.1438 85.7003 63.9122 86.0408 63.4984 86.3907C63.0705 86.7287 62.7009 86.9114 62.3896 86.9386C62.0134 86.9715 61.8572 86.4558 61.921 85.3915C61.9978 84.6267 62.2574 83.3362 62.6998 81.5199C63.1861 79.6082 63.5751 78.3782 63.867 77.8299C64.1932 77.2262 64.5963 76.9034 65.0762 76.8614C65.5302 76.8217 65.7194 77.1907 65.6436 77.9685ZM72.6265 79.5731C72.5648 80.3627 72.4265 81.1721 72.2115 82.0013C71.9965 82.8305 71.7065 83.6989 71.3415 84.6066C70.8937 85.613 70.2676 86.1513 69.4634 86.2217C68.9835 86.2637 68.7609 86.0348 68.7956 85.5351C68.8382 85.1262 68.9502 84.6132 69.1315 83.9961C69.453 83.0399 69.6104 82.523 69.6036 82.4451C69.679 82.1118 69.7515 81.746 69.8212 81.3478C69.891 80.9495 69.9508 80.513 70.0007 80.0381C70.0359 79.3945 69.9822 79.079 69.8395 79.0915C69.2299 79.1448 68.5076 80.0772 67.6727 81.8886C66.9753 83.4789 66.5905 84.6824 66.5181 85.4991C66.5019 85.7619 66.3484 86.0237 66.0575 86.2844C65.77 86.5841 65.503 86.7447 65.2566 86.7662C65.075 86.7821 64.9195 86.5735 64.7901 86.1404C64.65 85.7344 64.5915 85.4389 64.6145 85.2539C64.6726 84.1248 65.1487 82.7695 66.043 81.1882C66.9417 79.6587 67.8759 78.4594 68.8455 77.5904C69.7571 76.8048 70.5112 76.3859 71.1079 76.3337C71.6657 76.2849 72.0922 76.6789 72.3877 77.5157C72.6057 78.2156 72.6853 78.9013 72.6265 79.5731ZM78.0413 78.9425C78.0548 78.7975 77.9893 78.6464 77.8448 78.4891C77.7122 78.3178 77.581 78.2377 77.4513 78.2491C76.9714 78.2911 76.3975 78.753 75.7296 79.6349C75.1564 80.4039 74.7834 81.0705 74.6106 81.6346C76.8647 80.2087 78.0082 79.3114 78.0413 78.9425ZM81.1853 82.6082C81.1107 83.399 80.2152 84.1439 78.4987 84.843C77.1708 85.3513 75.9815 85.6515 74.9308 85.7434C72.7646 85.9329 71.7648 85.112 71.9313 83.2806C72.0372 81.9512 72.8466 80.3707 74.3594 78.5392C75.8603 76.7218 77.2723 75.7552 78.5954 75.6394C79.1661 75.5895 79.6524 75.7692 80.0542 76.1784C80.4701 76.5995 80.6452 77.107 80.5795 77.7009C80.4563 79.2802 78.7421 81.0509 75.437 83.0131C75.6761 83.0575 75.9449 83.0667 76.2432 83.0406C76.801 82.9918 77.5555 82.8016 78.5068 82.47C79.5867 82.1141 80.2563 81.9249 80.5157 81.9022C81.0086 81.859 81.2318 82.0944 81.1853 82.6082Z" fill="white"/>
</svg>
